<?xml version="1.0" encoding="utf-8"?>
<!-- Generator: Adobe Illustrator 23.0.0, SVG Export Plug-In . SVG Version: 6.00 Build 0)  -->
<svg version="1.1" id="Layer_1" xmlns="http://www.w3.org/2000/svg" xmlns:xlink="http://www.w3.org/1999/xlink" x="0px" y="0px"
	 viewBox="0 0 99 99" style="enable-background:new 0 0 99 99;" xml:space="preserve">
<style type="text/css">
	.st0{fill:#010101;}
	.st1{fill:#020202;}
</style>
<g>
	<path class="st0" d="M123.7,235.3c-0.2,0-0.4,0-0.7-0.1l-34.7-14.6c-0.6-0.3-1-0.9-1-1.5c0-0.7,0.4-1.3,1-1.5l34.7-15.2
		c0.4-0.2,0.9-0.2,1.3,0l33.9,14.4c0.6,0.3,1,0.9,1,1.5c0,0.7-0.4,1.3-1,1.5l-33.9,15.4C124.2,235.3,123.9,235.3,123.7,235.3
		 M93.3,219l30.4,12.8l29.7-13.5l-29.7-12.6L93.3,219z"/>
	<rect x="99.7" y="224" class="st0" width="3.4" height="21.8"/>
	<rect x="143.5" y="224" class="st0" width="3.4" height="21.8"/>
	<path class="st0" d="M123.3,254.9c-11.7,0-23.6-3.1-23.6-9.1h3.4c0,1.6,6,5.7,20.2,5.7s20.2-4.1,20.2-5.7h3.4
		C146.8,251.8,135,254.9,123.3,254.9"/>
	<rect x="153.8" y="219" class="st0" width="3.4" height="12"/>
	<path class="st0" d="M123.3,273.3c-25.9,0-47-21.1-47-47s21.1-47,47-47s47,21.1,47,47S149.3,273.3,123.3,273.3 M123.3,182.6
		c-24.1,0-43.7,19.6-43.7,43.7S99.3,270,123.3,270s43.7-19.6,43.7-43.7S147.4,182.6,123.3,182.6"/>
</g>
<g>
	<path class="st0" d="M615.8,225.5c-6.5,0-11.8-6-11.8-13.4s5.3-13.4,11.8-13.4c6.5,0,11.8,6,11.8,13.4S622.3,225.5,615.8,225.5
		 M615.8,202c-4.6,0-8.4,4.5-8.4,10.1c0,5.6,3.8,10.1,8.4,10.1c4.6,0,8.4-4.5,8.4-10.1C624.2,206.5,620.4,202,615.8,202"/>
	<path class="st0" d="M603.8,273.3c-25.9,0-47-21.1-47-47s21.1-47,47-47c25.9,0,47,21.1,47,47S629.8,273.3,603.8,273.3 M603.8,182.6
		c-24.1,0-43.7,19.6-43.7,43.7s19.6,43.7,43.7,43.7c24.1,0,43.7-19.6,43.7-43.7S627.9,182.6,603.8,182.6"/>
	<path class="st0" d="M603.8,273.3c-25.9,0-47-21.1-47-47s21.1-47,47-47c25.9,0,47,21.1,47,47S629.8,273.3,603.8,273.3 M603.8,182.6
		c-24.1,0-43.7,19.6-43.7,43.7s19.6,43.7,43.7,43.7c24.1,0,43.7-19.6,43.7-43.7S627.9,182.6,603.8,182.6"/>
	<rect x="590.4" y="199.3" class="st0" width="3.4" height="60.1"/>
	<rect x="613.8" y="223.8" class="st0" width="3.4" height="35.5"/>
	<path class="st0" d="M594.1,225.6h-3.9c-3.6,0-6.5-2.9-6.5-6.5v-19.8h3.4v19.8c0,1.7,1.4,3.2,3.2,3.2h3.9c1.7,0,3.2-1.4,3.2-3.2
		v-19.8h3.4v19.8C600.6,222.7,597.6,225.6,594.1,225.6"/>
</g>
<g>
	<path class="st1" d="M34.9,66.9h-7.6c-0.6,0-1.1-0.3-1.4-0.8c-0.3-0.5-0.3-1.1-0.1-1.6l14.9-31.3H24.1c-0.9,0-1.7-0.8-1.7-1.7v-6.2
		c0-0.9,0.8-1.7,1.7-1.7h27.1c0.9,0,1.7,0.8,1.7,1.7v5.1c0,0.2-0.1,0.5-0.2,0.7L36.4,65.9C36.1,66.5,35.5,66.9,34.9,66.9 M29.9,63.6
		h3.9L49.6,30v-3H25.8v2.9h17.5c0.6,0,1.1,0.3,1.4,0.8c0.3,0.5,0.3,1.1,0.1,1.6L29.9,63.6z"/>
	<path class="st1" d="M59.8,79.3c-9.4,0-16.5-6.9-16.5-16.1c0-3.9,1.5-8.1,4.5-12.8l9.4-14.4c0.3-0.5,0.8-0.8,1.4-0.8h8
		c0.6,0,1.2,0.3,1.5,0.9c0.3,0.6,0.2,1.2-0.1,1.7l-6.9,10.1h0.1c8.5,0,15.1,6.7,15.1,15.2C76.3,72.2,69,79.3,59.8,79.3 M59.5,38.5
		l-8.9,13.6c-2.7,4.2-4,7.8-4,11c0,7.2,5.7,12.7,13.2,12.7c7.4,0,13.1-5.6,13.1-12.8c0-6.8-5.1-11.9-11.8-11.9c-1.2,0-2.4,0.3-3,0.8
		c-0.7,0.5-1.6,0.4-2.2-0.1c-0.6-0.6-0.7-1.5-0.2-2.2l7.7-11.2H59.5z M59.7,72.8c-5.3,0-9.5-4.2-9.5-9.4c0-5.3,4.2-9.4,9.6-9.4
		c5.3,0,9.5,4.2,9.5,9.5C69.3,68.6,65,72.8,59.7,72.8 M59.8,57.3c-3.5,0-6.2,2.7-6.2,6.1c0,3.4,2.7,6.1,6.2,6.1c3.4,0,6.2-2.7,6.2-6
		C66,60,63.3,57.3,59.8,57.3"/>
	<path class="st0" d="M49.5,96.5c-25.9,0-47-21.1-47-47c0-25.9,21.1-47,47-47c25.9,0,47,21.1,47,47C96.5,75.4,75.4,96.5,49.5,96.5
		 M49.5,5.8C25.4,5.8,5.8,25.4,5.8,49.5c0,24.1,19.6,43.7,43.7,43.7c24.1,0,43.7-19.6,43.7-43.7C93.2,25.4,73.6,5.8,49.5,5.8"/>
</g>
</svg>
