<?xml version="1.0" encoding="utf-8"?>
<!-- Generator: Adobe Illustrator 23.0.0, SVG Export Plug-In . SVG Version: 6.00 Build 0)  -->
<svg version="1.1" id="Layer_1" xmlns="http://www.w3.org/2000/svg" xmlns:xlink="http://www.w3.org/1999/xlink" x="0px" y="0px"
	 viewBox="0 0 99 99" style="enable-background:new 0 0 99 99;" xml:space="preserve">
<style type="text/css">
	.st0{fill:#010101;}
</style>
<g>
	<path class="st0" d="M123.7,235.3c-0.2,0-0.4,0-0.7-0.1l-34.7-14.6c-0.6-0.3-1-0.9-1-1.5c0-0.7,0.4-1.3,1-1.5l34.7-15.2
		c0.4-0.2,0.9-0.2,1.3,0l33.9,14.4c0.6,0.3,1,0.9,1,1.5c0,0.7-0.4,1.3-1,1.5l-33.9,15.4C124.2,235.3,123.9,235.3,123.7,235.3
		 M93.3,219l30.4,12.8l29.7-13.5l-29.7-12.6L93.3,219z"/>
	<rect x="99.7" y="224" class="st0" width="3.4" height="21.8"/>
	<rect x="143.5" y="224" class="st0" width="3.4" height="21.8"/>
	<path class="st0" d="M123.3,254.9c-11.7,0-23.6-3.1-23.6-9.1h3.4c0,1.6,6,5.7,20.2,5.7s20.2-4.1,20.2-5.7h3.4
		C146.8,251.8,135,254.9,123.3,254.9"/>
	<rect x="153.8" y="219" class="st0" width="3.4" height="12"/>
	<path class="st0" d="M123.3,273.3c-25.9,0-47-21.1-47-47s21.1-47,47-47s47,21.1,47,47S149.3,273.3,123.3,273.3 M123.3,182.6
		c-24.1,0-43.7,19.6-43.7,43.7S99.3,270,123.3,270s43.7-19.6,43.7-43.7S147.4,182.6,123.3,182.6"/>
</g>
<g>
	<path class="st0" d="M27.1,69.8c-6.4,0-11.6-5.2-11.6-11.6c0-6.4,5.2-11.6,11.6-11.6c6.4,0,11.6,5.2,11.6,11.6
		C38.7,64.5,33.5,69.8,27.1,69.8 M27.1,49.8c-4.6,0-8.3,3.7-8.3,8.3c0,4.6,3.7,8.3,8.3,8.3c4.6,0,8.3-3.7,8.3-8.3
		C35.4,53.6,31.7,49.8,27.1,49.8"/>
	<path class="st0" d="M71.6,69.8c-6.4,0-11.6-5.2-11.6-11.6c0-6.4,5.2-11.6,11.6-11.6c6.4,0,11.6,5.2,11.6,11.6
		C83.2,64.5,78,69.8,71.6,69.8 M71.6,49.8c-4.6,0-8.3,3.7-8.3,8.3c0,4.6,3.7,8.3,8.3,8.3c4.6,0,8.3-3.7,8.3-8.3
		C79.9,53.6,76.2,49.8,71.6,49.8"/>
	<path class="st0" d="M48,59.6L48,59.6l-21.1,0c-0.6,0-1.2-0.4-1.5-1c-0.3-0.6-0.2-1.3,0.2-1.8l10.9-13.5c0.3-0.4,0.8-0.6,1.3-0.6h0
		l26,0c0.7,0,1.3,0.4,1.6,1.1c0.2,0.7,0,1.4-0.5,1.9L49.1,59.2C48.8,59.5,48.4,59.6,48,59.6 M30.5,56.3l17,0l11.9-10.1l-20.6,0
		L30.5,56.3z"/>
	<path class="st0" d="M69.9,59.2l-9.8-24.3c-0.2-0.5-0.1-1.1,0.2-1.6c0.3-0.5,0.8-0.7,1.4-0.7h5.5c2.1,0,4,1.1,5.1,2.9
		c1.1,1.8,1.1,4,0.1,5.8l-3-1.6c0.4-0.8,0.4-1.7-0.1-2.5C69,36.4,68.1,36,67.2,36h-3l8.8,22L69.9,59.2z"/>
	<rect x="39" y="31.9" transform="matrix(0.8819 -0.4715 0.4715 0.8819 -16.7543 24.5789)" class="st0" width="3.4" height="27.7"/>
	<rect x="29.4" y="32.5" class="st0" width="12.2" height="3.4"/>
	<path class="st0" d="M49.5,96.5c-25.9,0-47-21.1-47-47s21.1-47,47-47c25.9,0,47,21.1,47,47S75.4,96.5,49.5,96.5 M49.5,5.8
		C25.4,5.8,5.8,25.4,5.8,49.5s19.6,43.7,43.7,43.7c24.1,0,43.7-19.6,43.7-43.7S73.6,5.8,49.5,5.8"/>
</g>
</svg>
