<?xml version="1.0" encoding="utf-8"?>
<!-- Generator: Adobe Illustrator 23.0.0, SVG Export Plug-In . SVG Version: 6.00 Build 0)  -->
<svg version="1.1" id="Layer_1" xmlns="http://www.w3.org/2000/svg" xmlns:xlink="http://www.w3.org/1999/xlink" x="0px" y="0px"
	 viewBox="0 0 99 99" style="enable-background:new 0 0 99 99;" xml:space="preserve">
<g>
	<path d="M257.7,670.8l-1.4-3l25.3-11.6c0.4-0.2,1-0.2,1.4,0l25.1,11.6l-1.4,3l-24.4-11.3L257.7,670.8z"/>
	<path d="M282.3,730.1c-25.9,0-47-21.1-47-47c0-25.9,21.1-47,47-47c25.9,0,47,21.1,47,47C329.3,709,308.2,730.1,282.3,730.1
		 M282.3,639.5c-24.1,0-43.7,19.6-43.7,43.7s19.6,43.7,43.7,43.7c24.1,0,43.7-19.6,43.7-43.7S306.4,639.5,282.3,639.5"/>
	<rect x="258.7" y="673" width="47.2" height="3.4"/>
	<rect x="263.8" y="679.7" width="3.4" height="30.4"/>
	<rect x="272.2" y="679.7" width="3.4" height="30.4"/>
	<rect x="289.1" y="679.7" width="3.4" height="30.4"/>
	<rect x="297.5" y="679.7" width="3.4" height="30.4"/>
	<rect x="280.6" y="679.7" width="3.4" height="30.4"/>
</g>
<g>
	<path d="M24.9,37.2l-1.4-3l25.3-11.6c0.4-0.2,1-0.2,1.4,0l25.1,11.6l-1.4,3L49.5,25.9L24.9,37.2z"/>
	<path d="M49.5,96.5c-25.9,0-47-21.1-47-47s21.1-47,47-47c25.9,0,47,21.1,47,47S75.4,96.5,49.5,96.5 M49.5,5.8
		C25.4,5.8,5.8,25.4,5.8,49.5s19.6,43.7,43.7,43.7c24.1,0,43.7-19.6,43.7-43.7S73.6,5.8,49.5,5.8"/>
	<rect x="25.9" y="39.4" width="47.2" height="3.4"/>
	<rect x="31" y="46.1" width="3.4" height="30.4"/>
	<rect x="39.4" y="46.1" width="3.4" height="30.4"/>
	<rect x="56.3" y="46.1" width="3.4" height="30.4"/>
	<rect x="64.7" y="46.1" width="3.4" height="30.4"/>
	<rect x="47.8" y="46.1" width="3.4" height="30.4"/>
</g>
</svg>
