<?xml version="1.0" encoding="utf-8"?>
<!-- Generator: Adobe Illustrator 23.0.0, SVG Export Plug-In . SVG Version: 6.00 Build 0)  -->
<svg version="1.1" id="Layer_1" xmlns="http://www.w3.org/2000/svg" xmlns:xlink="http://www.w3.org/1999/xlink" x="0px" y="0px"
	 viewBox="0 0 99 99" style="enable-background:new 0 0 99 99;" xml:space="preserve">
<style type="text/css">
	.st0{fill:#010101;}
</style>
<g>
	<path class="st0" d="M123.7,235.3c-0.2,0-0.4,0-0.7-0.1l-34.7-14.6c-0.6-0.3-1-0.9-1-1.5c0-0.7,0.4-1.3,1-1.5l34.7-15.2
		c0.4-0.2,0.9-0.2,1.3,0l33.9,14.4c0.6,0.3,1,0.9,1,1.5c0,0.7-0.4,1.3-1,1.5l-33.9,15.4C124.2,235.3,123.9,235.3,123.7,235.3
		 M93.3,219l30.4,12.8l29.7-13.5l-29.7-12.6L93.3,219z"/>
	<rect x="99.7" y="224" class="st0" width="3.4" height="21.8"/>
	<rect x="143.5" y="224" class="st0" width="3.4" height="21.8"/>
	<path class="st0" d="M123.3,254.9c-11.7,0-23.6-3.1-23.6-9.1h3.4c0,1.6,6,5.7,20.2,5.7s20.2-4.1,20.2-5.7h3.4
		C146.8,251.8,135,254.9,123.3,254.9"/>
	<rect x="153.8" y="219" class="st0" width="3.4" height="12"/>
	<path class="st0" d="M123.3,273.3c-25.9,0-47-21.1-47-47s21.1-47,47-47s47,21.1,47,47S149.3,273.3,123.3,273.3 M123.3,182.6
		c-24.1,0-43.7,19.6-43.7,43.7S99.3,270,123.3,270s43.7-19.6,43.7-43.7S147.4,182.6,123.3,182.6"/>
</g>
<g>
	<path class="st0" d="M615.8,225.5c-6.5,0-11.8-6-11.8-13.4s5.3-13.4,11.8-13.4c6.5,0,11.8,6,11.8,13.4S622.3,225.5,615.8,225.5
		 M615.8,202c-4.6,0-8.4,4.5-8.4,10.1c0,5.6,3.8,10.1,8.4,10.1c4.6,0,8.4-4.5,8.4-10.1C624.2,206.5,620.4,202,615.8,202"/>
	<path class="st0" d="M603.8,273.3c-25.9,0-47-21.1-47-47s21.1-47,47-47c25.9,0,47,21.1,47,47S629.8,273.3,603.8,273.3 M603.8,182.6
		c-24.1,0-43.7,19.6-43.7,43.7s19.6,43.7,43.7,43.7c24.1,0,43.7-19.6,43.7-43.7S627.9,182.6,603.8,182.6"/>
	<path class="st0" d="M603.8,273.3c-25.9,0-47-21.1-47-47s21.1-47,47-47c25.9,0,47,21.1,47,47S629.8,273.3,603.8,273.3 M603.8,182.6
		c-24.1,0-43.7,19.6-43.7,43.7s19.6,43.7,43.7,43.7c24.1,0,43.7-19.6,43.7-43.7S627.9,182.6,603.8,182.6"/>
	<rect x="590.4" y="199.3" class="st0" width="3.4" height="60.1"/>
	<rect x="613.8" y="223.8" class="st0" width="3.4" height="35.5"/>
	<path class="st0" d="M594.1,225.6h-3.9c-3.6,0-6.5-2.9-6.5-6.5v-19.8h3.4v19.8c0,1.7,1.4,3.2,3.2,3.2h3.9c1.7,0,3.2-1.4,3.2-3.2
		v-19.8h3.4v19.8C600.6,222.7,597.6,225.6,594.1,225.6"/>
</g>
<g>
	<path class="st0" d="M49.5,74.5c-0.6,0-1.2-0.3-1.5-0.9L28.5,38.5c-0.4-0.6-0.2-1.5,0.3-2l19.5-19.9c0.6-0.6,1.8-0.6,2.4,0
		l19.5,19.9c0.5,0.5,0.6,1.3,0.3,2L51,73.7C50.7,74.2,50.1,74.5,49.5,74.5 M32.1,38l17.4,31.4L66.9,38L49.5,20.2L32.1,38z"/>
	<path class="st0" d="M72.5,87.5c-0.1,0-0.3,0-0.4,0c-2.3-0.2-5-0.6-6.9-2.5c-0.9-0.9-1.5-1.9-1.7-3c-0.8-4.1,3-6.3,4.3-7l0.4-0.2
		c1.3-0.8,2.6-1.5,3.1-2.5c0.4-0.7,0.3-1.7-0.1-2.4c-0.8-1.2-2.6-1.6-3.9-1.3l-0.3,0.1c-2,0.4-4.1,0.8-6,4.3
		c-0.7,1.2-1.1,2.5-1.5,3.8c-1,2.9-2.1,6.3-6.2,6.3c-1.3,0-2.5-0.3-3.4-1c-3.3-2.2-2.4-7.1-1.9-9.5l3.3,0.6c-0.4,2.4-0.8,5.2,0.5,6
		c0.5,0.3,1.1,0.4,1.5,0.4c1.5,0,2-0.8,3.1-4c0.5-1.3,1-2.9,1.8-4.4c2.7-4.9,6-5.5,8.3-6l0.3-0.1c3-0.6,6,0.5,7.4,2.8
		c1.1,1.7,1.2,3.9,0.3,5.7c-1,2-2.8,3-4.4,3.9l-0.4,0.2c-2.6,1.5-2.8,2.6-2.7,3.5c0.1,0.4,0.3,0.9,0.7,1.3c1.2,1.2,3,1.5,4.8,1.6
		c1.4,0.1,4.7-0.9,6-1.9l2,2.7C78.6,86.2,74.9,87.5,72.5,87.5"/>
	<rect x="47.8" y="18.7" class="st0" width="3.4" height="51.4"/>
	<rect x="30" y="36.1" class="st0" width="39" height="3.4"/>
	<path class="st0" d="M49.5,96.5c-25.9,0-47-21.1-47-47c0-25.9,21.1-47,47-47s47,21.1,47,47C96.5,75.4,75.4,96.5,49.5,96.5
		 M49.5,5.8C25.4,5.8,5.8,25.4,5.8,49.5c0,24.1,19.6,43.7,43.7,43.7s43.7-19.6,43.7-43.7C93.2,25.4,73.6,5.8,49.5,5.8"/>
</g>
</svg>
