<?xml version="1.0" encoding="utf-8"?>
<!-- Generator: Adobe Illustrator 23.0.0, SVG Export Plug-In . SVG Version: 6.00 Build 0)  -->
<svg version="1.1" id="Layer_1" xmlns="http://www.w3.org/2000/svg" xmlns:xlink="http://www.w3.org/1999/xlink" x="0px" y="0px"
	 viewBox="0 0 99 99" style="enable-background:new 0 0 99 99;" xml:space="preserve">
<style type="text/css">
	.st0{fill:#010101;}
	.st1{fill:#020202;}
</style>
<g>
	<path class="st0" d="M123.7,235.3c-0.2,0-0.4,0-0.7-0.1l-34.7-14.6c-0.6-0.3-1-0.9-1-1.5c0-0.7,0.4-1.3,1-1.5l34.7-15.2
		c0.4-0.2,0.9-0.2,1.3,0l33.9,14.4c0.6,0.3,1,0.9,1,1.5c0,0.7-0.4,1.3-1,1.5l-33.9,15.4C124.2,235.3,123.9,235.3,123.7,235.3
		 M93.3,219l30.4,12.8l29.7-13.5l-29.7-12.6L93.3,219z"/>
	<rect x="99.7" y="224" class="st0" width="3.4" height="21.8"/>
	<rect x="143.5" y="224" class="st0" width="3.4" height="21.8"/>
	<path class="st0" d="M123.3,254.9c-11.7,0-23.6-3.1-23.6-9.1h3.4c0,1.6,6,5.7,20.2,5.7s20.2-4.1,20.2-5.7h3.4
		C146.8,251.8,135,254.9,123.3,254.9"/>
	<rect x="153.8" y="219" class="st0" width="3.4" height="12"/>
	<path class="st0" d="M123.3,273.3c-25.9,0-47-21.1-47-47s21.1-47,47-47s47,21.1,47,47S149.3,273.3,123.3,273.3 M123.3,182.6
		c-24.1,0-43.7,19.6-43.7,43.7S99.3,270,123.3,270s43.7-19.6,43.7-43.7S147.4,182.6,123.3,182.6"/>
</g>
<g>
	<path class="st0" d="M615.8,225.5c-6.5,0-11.8-6-11.8-13.4s5.3-13.4,11.8-13.4c6.5,0,11.8,6,11.8,13.4S622.3,225.5,615.8,225.5
		 M615.8,202c-4.6,0-8.4,4.5-8.4,10.1c0,5.6,3.8,10.1,8.4,10.1c4.6,0,8.4-4.5,8.4-10.1C624.2,206.5,620.4,202,615.8,202"/>
	<path class="st0" d="M603.8,273.3c-25.9,0-47-21.1-47-47s21.1-47,47-47c25.9,0,47,21.1,47,47S629.8,273.3,603.8,273.3 M603.8,182.6
		c-24.1,0-43.7,19.6-43.7,43.7s19.6,43.7,43.7,43.7c24.1,0,43.7-19.6,43.7-43.7S627.9,182.6,603.8,182.6"/>
	<path class="st0" d="M603.8,273.3c-25.9,0-47-21.1-47-47s21.1-47,47-47c25.9,0,47,21.1,47,47S629.8,273.3,603.8,273.3 M603.8,182.6
		c-24.1,0-43.7,19.6-43.7,43.7s19.6,43.7,43.7,43.7c24.1,0,43.7-19.6,43.7-43.7S627.9,182.6,603.8,182.6"/>
	<rect x="590.4" y="199.3" class="st0" width="3.4" height="60.1"/>
	<rect x="613.8" y="223.8" class="st0" width="3.4" height="35.5"/>
	<path class="st0" d="M594.1,225.6h-3.9c-3.6,0-6.5-2.9-6.5-6.5v-19.8h3.4v19.8c0,1.7,1.4,3.2,3.2,3.2h3.9c1.7,0,3.2-1.4,3.2-3.2
		v-19.8h3.4v19.8C600.6,222.7,597.6,225.6,594.1,225.6"/>
</g>
<g>
	<path class="st1" d="M49.4,85.4L43.6,81c-13-9.7-28-23-28-39.4c0-10.9,9.1-22.6,22.6-22.6c3.8,0,7.6,1.2,11.2,3.6
		C53,20.2,56.8,19,60.6,19c6.4,0,12.4,2.7,16.7,7.5c3.8,4.2,5.9,9.7,5.9,15.1c0,16.5-15,29.7-28,39.4L49.4,85.4z M38.3,22.4
		c-11.5,0-19.3,10-19.3,19.3c0,15,14.2,27.5,26.6,36.7l3.8,2.8l3.8-2.8c12.4-9.2,26.6-21.8,26.6-36.7c0-4.6-1.8-9.2-5.1-12.9
		c-3.7-4.1-8.7-6.4-14.2-6.4c-3.4,0-6.9,1.2-10.2,3.6l-1,0.7l-1-0.7C45.2,23.6,41.7,22.4,38.3,22.4"/>
	<path class="st1" d="M49.4,75.3l-1-0.7c-11.5-8.6-24.7-20.1-24.7-33c0-7,5.9-14.6,14.6-14.6c4.6,0,8.4,3.2,11.2,6.2
		c2.7-3,6.5-6.2,11.2-6.2c8.7,0,14.6,7.5,14.6,14.6c0,12.9-13.2,24.4-24.7,33L49.4,75.3z M38.3,30.4c-4.6,0-11.2,4-11.2,11.2
		c0,11.1,12.5,22.1,22.4,29.5C69.5,56,71.8,47,71.8,41.6c0-7.2-6.6-11.2-11.2-11.2c-3.1,0-6.2,2-9.9,6.4l-1.3,1.5l-1.3-1.5
		C44.5,32.5,41.3,30.4,38.3,30.4"/>
	<path class="st0" d="M49.5,96.5c-25.9,0-47-21.1-47-47c0-25.9,21.1-47,47-47c25.9,0,47,21.1,47,47C96.5,75.4,75.4,96.5,49.5,96.5
		 M49.5,5.8C25.4,5.8,5.8,25.4,5.8,49.5c0,24.1,19.6,43.7,43.7,43.7c24.1,0,43.7-19.6,43.7-43.7C93.2,25.4,73.6,5.8,49.5,5.8"/>
</g>
</svg>
