<?xml version="1.0" encoding="utf-8"?>
<!-- Generator: Adobe Illustrator 23.0.0, SVG Export Plug-In . SVG Version: 6.00 Build 0)  -->
<svg version="1.1" id="Layer_1" xmlns="http://www.w3.org/2000/svg" xmlns:xlink="http://www.w3.org/1999/xlink" x="0px" y="0px"
	 viewBox="0 0 99 99" style="enable-background:new 0 0 99 99;" xml:space="preserve">
<path d="M44.3,77.7v-5.9h10.3v5.9h8.1V16.4H36.2v61.3H44.3z M66.1,29.7v43.7h11v-43l-6-3.8L66.1,29.7z M32.9,23v-8.3
	c0-0.9,0.8-1.7,1.7-1.7h29.9c0.9,0,1.7,0.8,1.7,1.7v11.1l4.3-2.7c0.4-0.2,1-0.2,1.4,0l11.7,7.3l-1.4,3l-1.7-1.1V75
	c0,0.9-0.8,1.7-1.7,1.7H66.1v2.7c0,0.9-0.8,1.7-1.7,1.7H34.6c-0.9,0-1.7-0.8-1.7-1.7v-2.7H20.3c-0.9,0-1.7-0.8-1.7-1.7V41.8
	l-1.7,1.1l-1.4-3l11.7-7.3c0.4-0.2,1-0.2,1.4,0l4.2,2.6V23z M32.9,39l-4.9-3.1l-6,3.8v33.7h11V39z M49.5,5.8
	C25.4,5.8,5.8,25.4,5.8,49.5s19.6,43.7,43.7,43.7c24.1,0,43.7-19.6,43.7-43.7S73.6,5.8,49.5,5.8z M49.5,96.5c-25.9,0-47-21.1-47-47
	c0-25.9,21.1-47,47-47c25.9,0,47,21.1,47,47C96.5,75.4,75.4,96.5,49.5,96.5z M48.4,68.7V21.1h2.5v47.6H48.4z M40.9,68.7V21.1h2.5
	v47.6H40.9z M55.6,68.7V21.1h2.5v47.6H55.6z M69.9,68.7v-2.9h2.5v2.9H69.9z M69.9,63.1v-2.9h2.5v2.9H69.9z M69.9,57.5v-2.9h2.5v2.9
	H69.9z M69.9,52v-2.9h2.5V52H69.9z M69.9,46.4v-2.9h2.5v2.9H69.9z M69.9,40.8v-2.9h2.5v2.9H69.9z M69.9,35.2v-2.9h2.5v2.9H69.9z
	 M26.5,68.7v-4.6H29v4.6H26.5z M26.5,61v-4.6H29V61H26.5L26.5,61z M26.5,53.3v-4.6H29v4.6H26.5z M26.5,45.6V41H29v4.6H26.5z"/>
</svg>
