<?xml version="1.0" encoding="utf-8"?>
<!-- Generator: Adobe Illustrator 23.0.0, SVG Export Plug-In . SVG Version: 6.00 Build 0)  -->
<svg version="1.1" id="Layer_1" xmlns="http://www.w3.org/2000/svg" xmlns:xlink="http://www.w3.org/1999/xlink" x="0px" y="0px"
	 viewBox="0 0 99 99" style="enable-background:new 0 0 99 99;" xml:space="preserve">
<style type="text/css">
	.st0{fill:#010101;}
</style>
<g>
	<path class="st0" d="M123.7,235.3c-0.2,0-0.4,0-0.7-0.1l-34.7-14.6c-0.6-0.3-1-0.9-1-1.5c0-0.7,0.4-1.3,1-1.5l34.7-15.2
		c0.4-0.2,0.9-0.2,1.3,0l33.9,14.4c0.6,0.3,1,0.9,1,1.5c0,0.7-0.4,1.3-1,1.5l-33.9,15.4C124.2,235.3,123.9,235.3,123.7,235.3
		 M93.3,219l30.4,12.8l29.7-13.5l-29.7-12.6L93.3,219z"/>
	<rect x="99.7" y="224" class="st0" width="3.4" height="21.8"/>
	<rect x="143.5" y="224" class="st0" width="3.4" height="21.8"/>
	<path class="st0" d="M123.3,254.9c-11.7,0-23.6-3.1-23.6-9.1h3.4c0,1.6,6,5.7,20.2,5.7s20.2-4.1,20.2-5.7h3.4
		C146.8,251.8,135,254.9,123.3,254.9"/>
	<rect x="153.8" y="219" class="st0" width="3.4" height="12"/>
	<path class="st0" d="M123.3,273.3c-25.9,0-47-21.1-47-47s21.1-47,47-47s47,21.1,47,47S149.3,273.3,123.3,273.3 M123.3,182.6
		c-24.1,0-43.7,19.6-43.7,43.7S99.3,270,123.3,270s43.7-19.6,43.7-43.7S147.4,182.6,123.3,182.6"/>
</g>
<g>
	<path class="st0" d="M615.8,225.5c-6.5,0-11.8-6-11.8-13.4s5.3-13.4,11.8-13.4c6.5,0,11.8,6,11.8,13.4S622.3,225.5,615.8,225.5
		 M615.8,202c-4.6,0-8.4,4.5-8.4,10.1c0,5.6,3.8,10.1,8.4,10.1c4.6,0,8.4-4.5,8.4-10.1C624.2,206.5,620.4,202,615.8,202"/>
	<path class="st0" d="M603.8,273.3c-25.9,0-47-21.1-47-47s21.1-47,47-47c25.9,0,47,21.1,47,47S629.8,273.3,603.8,273.3 M603.8,182.6
		c-24.1,0-43.7,19.6-43.7,43.7s19.6,43.7,43.7,43.7c24.1,0,43.7-19.6,43.7-43.7S627.9,182.6,603.8,182.6"/>
	<path class="st0" d="M603.8,273.3c-25.9,0-47-21.1-47-47s21.1-47,47-47c25.9,0,47,21.1,47,47S629.8,273.3,603.8,273.3 M603.8,182.6
		c-24.1,0-43.7,19.6-43.7,43.7s19.6,43.7,43.7,43.7c24.1,0,43.7-19.6,43.7-43.7S627.9,182.6,603.8,182.6"/>
	<rect x="590.4" y="199.3" class="st0" width="3.4" height="60.1"/>
	<rect x="613.8" y="223.8" class="st0" width="3.4" height="35.5"/>
	<path class="st0" d="M594.1,225.6h-3.9c-3.6,0-6.5-2.9-6.5-6.5v-19.8h3.4v19.8c0,1.7,1.4,3.2,3.2,3.2h3.9c1.7,0,3.2-1.4,3.2-3.2
		v-19.8h3.4v19.8C600.6,222.7,597.6,225.6,594.1,225.6"/>
</g>
<g>
	<path class="st0" d="M42.2,71c-0.4,0-0.8-0.1-1.1-0.4c-0.4-0.3-0.6-0.8-0.6-1.3V29.7c0-0.5,0.2-0.9,0.6-1.3
		c0.4-0.3,0.8-0.5,1.3-0.4l39.3,4.8c0.8,0.1,1.5,0.8,1.5,1.7v29.9c0,0.8-0.6,1.6-1.5,1.7l-39.3,4.8C42.3,71,42.2,71,42.2,71
		 M43.8,31.6v35.8l36-4.4V36L43.8,31.6z"/>
	<path class="st0" d="M42.2,71c-0.1,0-0.1,0-0.2,0l-24.7-3c-0.8-0.1-1.5-0.8-1.5-1.7V32.7c0-0.8,0.6-1.6,1.5-1.7l24.7-3
		c0.5-0.1,1,0.1,1.3,0.4c0.4,0.3,0.6,0.8,0.6,1.3v39.6c0,0.5-0.2,0.9-0.6,1.3C43,70.8,42.6,71,42.2,71 M19.2,64.8l21.3,2.6V31.6
		l-21.3,2.6V64.8z"/>
	
		<rect x="42.1" y="53.5" transform="matrix(0.999 -4.537864e-02 4.537864e-02 0.999 -2.4396 2.8618)" class="st0" width="39.4" height="3.4"/>
	
		<rect x="60.2" y="24.3" transform="matrix(3.271917e-02 -0.9995 0.9995 3.271917e-02 15.8706 104.3158)" class="st0" width="3.4" height="39.4"/>
	<rect x="52.8" y="30.9" class="st0" width="3.4" height="37.2"/>
	<rect x="72.4" y="33.5" class="st0" width="3.4" height="31.9"/>
	<rect x="62.8" y="32.2" class="st0" width="3.4" height="34.5"/>
	<polygon class="st0" points="36.4,38.5 23.1,39.6 23.1,42.6 36.4,42 	"/>
	<polygon class="st0" points="36.4,47.7 23.1,48 23.1,51 36.4,51.4 	"/>
	<polygon class="st0" points="36.4,57 23.1,56.4 23.1,59.4 36.4,60.5 	"/>
	<path class="st0" d="M49.5,96.5c-25.9,0-47-21.1-47-47s21.1-47,47-47c25.9,0,47,21.1,47,47S75.4,96.5,49.5,96.5 M49.5,5.8
		C25.4,5.8,5.8,25.4,5.8,49.5s19.6,43.7,43.7,43.7c24.1,0,43.7-19.6,43.7-43.7S73.6,5.8,49.5,5.8"/>
</g>
</svg>
