<?xml version="1.0" encoding="utf-8"?>
<!-- Generator: Adobe Illustrator 23.0.0, SVG Export Plug-In . SVG Version: 6.00 Build 0)  -->
<svg version="1.1" id="Layer_1" xmlns="http://www.w3.org/2000/svg" xmlns:xlink="http://www.w3.org/1999/xlink" x="0px" y="0px"
	 viewBox="0 0 99 99" style="enable-background:new 0 0 99 99;" xml:space="preserve">
<style type="text/css">
	.st0{fill:#010101;}
</style>
<g>
	<path class="st0" d="M123.7,235.3c-0.2,0-0.4,0-0.7-0.1l-34.7-14.6c-0.6-0.3-1-0.9-1-1.5c0-0.7,0.4-1.3,1-1.5l34.7-15.2
		c0.4-0.2,0.9-0.2,1.3,0l33.9,14.4c0.6,0.3,1,0.9,1,1.5c0,0.7-0.4,1.3-1,1.5l-33.9,15.4C124.2,235.3,123.9,235.3,123.7,235.3
		 M93.3,219l30.4,12.8l29.7-13.5l-29.7-12.6L93.3,219z"/>
	<rect x="99.7" y="224" class="st0" width="3.4" height="21.8"/>
	<rect x="143.5" y="224" class="st0" width="3.4" height="21.8"/>
	<path class="st0" d="M123.3,254.9c-11.7,0-23.6-3.1-23.6-9.1h3.4c0,1.6,6,5.7,20.2,5.7s20.2-4.1,20.2-5.7h3.4
		C146.8,251.8,135,254.9,123.3,254.9"/>
	<rect x="153.8" y="219" class="st0" width="3.4" height="12"/>
	<path class="st0" d="M123.3,273.3c-25.9,0-47-21.1-47-47s21.1-47,47-47s47,21.1,47,47S149.3,273.3,123.3,273.3 M123.3,182.6
		c-24.1,0-43.7,19.6-43.7,43.7S99.3,270,123.3,270s43.7-19.6,43.7-43.7S147.4,182.6,123.3,182.6"/>
</g>
<g>
	<path class="st0" d="M615.8,225.5c-6.5,0-11.8-6-11.8-13.4s5.3-13.4,11.8-13.4c6.5,0,11.8,6,11.8,13.4S622.3,225.5,615.8,225.5
		 M615.8,202c-4.6,0-8.4,4.5-8.4,10.1c0,5.6,3.8,10.1,8.4,10.1c4.6,0,8.4-4.5,8.4-10.1C624.2,206.5,620.4,202,615.8,202"/>
	<path class="st0" d="M603.8,273.3c-25.9,0-47-21.1-47-47s21.1-47,47-47c25.9,0,47,21.1,47,47S629.8,273.3,603.8,273.3 M603.8,182.6
		c-24.1,0-43.7,19.6-43.7,43.7s19.6,43.7,43.7,43.7c24.1,0,43.7-19.6,43.7-43.7S627.9,182.6,603.8,182.6"/>
	<path class="st0" d="M603.8,273.3c-25.9,0-47-21.1-47-47s21.1-47,47-47c25.9,0,47,21.1,47,47S629.8,273.3,603.8,273.3 M603.8,182.6
		c-24.1,0-43.7,19.6-43.7,43.7s19.6,43.7,43.7,43.7c24.1,0,43.7-19.6,43.7-43.7S627.9,182.6,603.8,182.6"/>
	<rect x="590.4" y="199.3" class="st0" width="3.4" height="60.1"/>
	<rect x="613.8" y="223.8" class="st0" width="3.4" height="35.5"/>
	<path class="st0" d="M594.1,225.6h-3.9c-3.6,0-6.5-2.9-6.5-6.5v-19.8h3.4v19.8c0,1.7,1.4,3.2,3.2,3.2h3.9c1.7,0,3.2-1.4,3.2-3.2
		v-19.8h3.4v19.8C600.6,222.7,597.6,225.6,594.1,225.6"/>
</g>
<g>
	<path class="st0" d="M61.4,48.7c-6.5,0-11.8-6-11.8-13.4s5.3-13.4,11.8-13.4c6.5,0,11.8,6,11.8,13.4S67.9,48.7,61.4,48.7
		 M61.4,25.2c-4.6,0-8.4,4.5-8.4,10.1c0,5.6,3.8,10.1,8.4,10.1c4.6,0,8.4-4.5,8.4-10.1C69.9,29.7,66.1,25.2,61.4,25.2"/>
	<path class="st0" d="M49.5,96.5c-25.9,0-47-21.1-47-47s21.1-47,47-47c25.9,0,47,21.1,47,47S75.4,96.5,49.5,96.5 M49.5,5.8
		C25.4,5.8,5.8,25.4,5.8,49.5s19.6,43.7,43.7,43.7c24.1,0,43.7-19.6,43.7-43.7S73.6,5.8,49.5,5.8"/>
	<path class="st0" d="M49.5,96.5c-25.9,0-47-21.1-47-47s21.1-47,47-47c25.9,0,47,21.1,47,47S75.4,96.5,49.5,96.5 M49.5,5.8
		C25.4,5.8,5.8,25.4,5.8,49.5s19.6,43.7,43.7,43.7c24.1,0,43.7-19.6,43.7-43.7S73.6,5.8,49.5,5.8"/>
	<rect x="36.1" y="22.5" class="st0" width="3.4" height="60.1"/>
	<rect x="59.5" y="47" class="st0" width="3.4" height="35.5"/>
	<path class="st0" d="M39.7,48.8h-3.9c-3.6,0-6.5-2.9-6.5-6.5V22.5h3.4v19.8c0,1.7,1.4,3.2,3.2,3.2h3.9c1.7,0,3.2-1.4,3.2-3.2V22.5
		h3.4v19.8C46.2,45.9,43.3,48.8,39.7,48.8"/>
</g>
</svg>
