<?xml version="1.0" encoding="utf-8"?>
<!-- Generator: Adobe Illustrator 23.0.0, SVG Export Plug-In . SVG Version: 6.00 Build 0)  -->
<svg version="1.1" id="Layer_1" xmlns="http://www.w3.org/2000/svg" xmlns:xlink="http://www.w3.org/1999/xlink" x="0px" y="0px"
	 viewBox="0 0 99 99" style="enable-background:new 0 0 99 99;" xml:space="preserve">
<style type="text/css">
	.st0{fill:#010101;}
</style>
<g>
	<path class="st0" d="M123.7,235.3c-0.2,0-0.4,0-0.7-0.1l-34.7-14.6c-0.6-0.3-1-0.9-1-1.5c0-0.7,0.4-1.3,1-1.5l34.7-15.2
		c0.4-0.2,0.9-0.2,1.3,0l33.9,14.4c0.6,0.3,1,0.9,1,1.5c0,0.7-0.4,1.3-1,1.5l-33.9,15.4C124.2,235.3,123.9,235.3,123.7,235.3
		 M93.3,219l30.4,12.8l29.7-13.5l-29.7-12.6L93.3,219z"/>
	<rect x="99.7" y="224" class="st0" width="3.4" height="21.8"/>
	<rect x="143.5" y="224" class="st0" width="3.4" height="21.8"/>
	<path class="st0" d="M123.3,254.9c-11.7,0-23.6-3.1-23.6-9.1h3.4c0,1.6,6,5.7,20.2,5.7s20.2-4.1,20.2-5.7h3.4
		C146.8,251.8,135,254.9,123.3,254.9"/>
	<rect x="153.8" y="219" class="st0" width="3.4" height="12"/>
	<path class="st0" d="M123.3,273.3c-25.9,0-47-21.1-47-47s21.1-47,47-47s47,21.1,47,47S149.3,273.3,123.3,273.3 M123.3,182.6
		c-24.1,0-43.7,19.6-43.7,43.7S99.3,270,123.3,270s43.7-19.6,43.7-43.7S147.4,182.6,123.3,182.6"/>
</g>
<g>
	<path class="st0" d="M615.8,225.5c-6.5,0-11.8-6-11.8-13.4s5.3-13.4,11.8-13.4c6.5,0,11.8,6,11.8,13.4S622.3,225.5,615.8,225.5
		 M615.8,202c-4.6,0-8.4,4.5-8.4,10.1c0,5.6,3.8,10.1,8.4,10.1c4.6,0,8.4-4.5,8.4-10.1C624.2,206.5,620.4,202,615.8,202"/>
	<path class="st0" d="M603.8,273.3c-25.9,0-47-21.1-47-47s21.1-47,47-47c25.9,0,47,21.1,47,47S629.8,273.3,603.8,273.3 M603.8,182.6
		c-24.1,0-43.7,19.6-43.7,43.7s19.6,43.7,43.7,43.7c24.1,0,43.7-19.6,43.7-43.7S627.9,182.6,603.8,182.6"/>
	<path class="st0" d="M603.8,273.3c-25.9,0-47-21.1-47-47s21.1-47,47-47c25.9,0,47,21.1,47,47S629.8,273.3,603.8,273.3 M603.8,182.6
		c-24.1,0-43.7,19.6-43.7,43.7s19.6,43.7,43.7,43.7c24.1,0,43.7-19.6,43.7-43.7S627.9,182.6,603.8,182.6"/>
	<rect x="590.4" y="199.3" class="st0" width="3.4" height="60.1"/>
	<rect x="613.8" y="223.8" class="st0" width="3.4" height="35.5"/>
	<path class="st0" d="M594.1,225.6h-3.9c-3.6,0-6.5-2.9-6.5-6.5v-19.8h3.4v19.8c0,1.7,1.4,3.2,3.2,3.2h3.9c1.7,0,3.2-1.4,3.2-3.2
		v-19.8h3.4v19.8C600.6,222.7,597.6,225.6,594.1,225.6"/>
</g>
<g>
	<path class="st0" d="M52.5,81.5c-0.2,0-0.5,0-0.7-0.1c-0.5-0.2-0.8-0.6-0.9-1.1c0-0.2-4.2-17.7-11.1-22.8c-0.1,0-0.1-0.1-0.2-0.1
		c-2.5-2.5-7.1-6.6-8.9-7.5c-2.4-0.7-8.8-1.8-12,0.6c-0.5,0.3-1,0.4-1.6,0.2c-0.5-0.2-0.9-0.6-1.1-1.2c-0.1-0.4-2.2-9.7,3.5-14.8
		c0.6-0.6,3.2-3.2,8.4-3.6c0.6-0.2,2.5-1.9,3.4-2.7c0.9-0.8,1.6-1.5,2.3-2c2.4-1.6,4.9-2.7,7.7-3.3c5.8-1.3,12-0.8,18,1.2
		c0,0,0,0,0.1,0c0.2,0.1,5.5,2.2,11.1,6.5c7.5,5.8,12,13,12.9,20.6c0.1,0.6-0.2,1.2-0.6,1.5c-0.5,0.4-1.1,0.5-1.6,0.2
		c0,0-2.1-0.8-4.3-1.6c2.5,4.1,4.6,11.1,1,20.5c-0.2,0.5-0.6,0.9-1.2,1c-0.5,0.1-1.1,0-1.5-0.4c-0.1-0.1-6.3-5.4-10.8-8.2
		c-0.6,4.2-2.9,12.3-11,16.7C53.1,81.5,52.8,81.5,52.5,81.5 M41.9,54.8c6.3,4.8,10.2,17.2,11.7,22.4c7.4-5.5,7.6-15.2,7.6-15.3
		c0-0.6,0.3-1.1,0.8-1.4c0.5-0.3,1.1-0.3,1.6-0.1c3.5,1.6,9,5.9,11.8,8.3c3.4-11.6-3.3-18-4.3-18.8c-1.4-0.8-1.1-1.9-0.9-2.3
		c0.6-1.5,2.2-1,3.1-0.7c1.1,0.4,4,1.4,6.2,2.2c-3.6-14.3-20.5-21.3-21.3-21.6c-5.4-1.9-11-2.2-16.1-1.1c-2.4,0.5-4.5,1.4-6.5,2.8
		c-0.4,0.3-1.2,1-1.9,1.6c-2.3,2.1-3.9,3.5-5.4,3.6c-4.2,0.3-6.1,2.4-6.2,2.5c-0.1,0.1-0.1,0.1-0.2,0.2c-2.8,2.4-3,6.7-2.8,9.3
		c5.3-2,12.4,0,12.7,0.1c0.1,0,0.1,0,0.2,0.1C34.7,47.9,40.9,53.8,41.9,54.8"/>
	<path class="st0" d="M18.7,47.1l-2.7-2c4-5.5,12.6-5.7,18-5.2c-3.1-3.3-6.6-7-6.7-7.1l2.4-2.3c0.3,0.3,7,7.3,9.9,10.7l3.3,3.9
		L38,44c0,0-3.8-0.9-8.1-0.9h-0.1C26.1,43.2,21.1,43.9,18.7,47.1"/>
	<path class="st0" d="M46.3,32.6c0,1.1-0.9,2-2,2c-1.1,0-2-0.9-2-2c0-1.1,0.9-2,2-2C45.4,30.6,46.3,31.5,46.3,32.6"/>
	<path class="st0" d="M49.5,96.5c-25.9,0-47-21.1-47-47c0-25.9,21.1-47,47-47c25.9,0,47,21.1,47,47C96.5,75.4,75.4,96.5,49.5,96.5
		 M49.5,5.8C25.4,5.8,5.8,25.4,5.8,49.5c0,24.1,19.6,43.7,43.7,43.7c24.1,0,43.7-19.6,43.7-43.7C93.2,25.4,73.6,5.8,49.5,5.8"/>
</g>
</svg>
