<?xml version="1.0" encoding="utf-8"?>
<!-- Generator: Adobe Illustrator 23.0.0, SVG Export Plug-In . SVG Version: 6.00 Build 0)  -->
<svg version="1.1" id="Layer_1" xmlns="http://www.w3.org/2000/svg" xmlns:xlink="http://www.w3.org/1999/xlink" x="0px" y="0px"
	 viewBox="0 0 99 99" style="enable-background:new 0 0 99 99;" xml:space="preserve">
<style type="text/css">
	.st0{fill:#010101;}
</style>
<g>
	<path class="st0" d="M123.7,235.3c-0.2,0-0.4,0-0.7-0.1l-34.7-14.6c-0.6-0.3-1-0.9-1-1.5c0-0.7,0.4-1.3,1-1.5l34.7-15.2
		c0.4-0.2,0.9-0.2,1.3,0l33.9,14.4c0.6,0.3,1,0.9,1,1.5c0,0.7-0.4,1.3-1,1.5l-33.9,15.4C124.2,235.3,123.9,235.3,123.7,235.3
		 M93.3,219l30.4,12.8l29.7-13.5l-29.7-12.6L93.3,219z"/>
	<rect x="99.7" y="224" class="st0" width="3.4" height="21.8"/>
	<rect x="143.5" y="224" class="st0" width="3.4" height="21.8"/>
	<path class="st0" d="M123.3,254.9c-11.7,0-23.6-3.1-23.6-9.1h3.4c0,1.6,6,5.7,20.2,5.7s20.2-4.1,20.2-5.7h3.4
		C146.8,251.8,135,254.9,123.3,254.9"/>
	<rect x="153.8" y="219" class="st0" width="3.4" height="12"/>
	<path class="st0" d="M123.3,273.3c-25.9,0-47-21.1-47-47s21.1-47,47-47s47,21.1,47,47S149.3,273.3,123.3,273.3 M123.3,182.6
		c-24.1,0-43.7,19.6-43.7,43.7S99.3,270,123.3,270s43.7-19.6,43.7-43.7S147.4,182.6,123.3,182.6"/>
</g>
<g>
	<path class="st0" d="M49.9,58.6c-0.2,0-0.4,0-0.7-0.1L14.5,43.8c-0.6-0.3-1-0.9-1-1.5c0-0.7,0.4-1.3,1-1.5l34.7-15.2
		c0.4-0.2,0.9-0.2,1.3,0l33.9,14.4c0.6,0.3,1,0.9,1,1.5c0,0.7-0.4,1.3-1,1.5L50.5,58.4C50.3,58.5,50.1,58.6,49.9,58.6 M19.4,42.2
		l30.4,12.8l29.7-13.5L49.8,28.9L19.4,42.2z"/>
	<rect x="25.9" y="47.2" class="st0" width="3.4" height="21.8"/>
	<rect x="69.6" y="47.2" class="st0" width="3.4" height="21.8"/>
	<path class="st0" d="M49.4,78.1c-11.7,0-23.6-3.1-23.6-9.1h3.4c0,1.6,6,5.7,20.2,5.7s20.2-4.1,20.2-5.7H73
		C73,75,61.2,78.1,49.4,78.1"/>
	<rect x="80" y="42.3" class="st0" width="3.4" height="12"/>
	<path class="st0" d="M49.5,96.5c-25.9,0-47-21.1-47-47s21.1-47,47-47s47,21.1,47,47S75.4,96.5,49.5,96.5 M49.5,5.8
		C25.4,5.8,5.8,25.4,5.8,49.5s19.6,43.7,43.7,43.7s43.7-19.6,43.7-43.7S73.6,5.8,49.5,5.8"/>
</g>
</svg>
