<?xml version="1.0" encoding="utf-8"?>
<!-- Generator: Adobe Illustrator 23.0.0, SVG Export Plug-In . SVG Version: 6.00 Build 0)  -->
<svg version="1.1" id="Layer_1" xmlns="http://www.w3.org/2000/svg" xmlns:xlink="http://www.w3.org/1999/xlink" x="0px" y="0px"
	 viewBox="0 0 99 99" style="enable-background:new 0 0 99 99;" xml:space="preserve">
<style type="text/css">
	.st0{fill:#010101;}
</style>
<g>
	<rect x="23.7" y="56.2" class="st0" width="54.9" height="3.4"/>
	<path class="st0" d="M79.8,73.1h-3.4v-6.8H23.7V63h54.5c0.9,0,1.7,0.8,1.7,1.7V73.1z"/>
	<path class="st0" d="M79.8,68.4h-3.4V58.3c-1-4.3-4.8-8.8-9.4-8.8H47.3v8.6H44V47.8c0-0.9,0.8-1.7,1.7-1.7h21.4
		c6.5,0,11.6,5.9,12.8,11.6c0,0.1,0,0.2,0,0.3V68.4z"/>
	<rect x="22.5" y="42.7" class="st0" width="3.4" height="30.4"/>
	<path class="st0" d="M34.9,58.4c-3.4,0-6.2-2.8-6.2-6.2c0-3.4,2.8-6.2,6.2-6.2c3.4,0,6.2,2.8,6.2,6.2
		C41.1,55.6,38.3,58.4,34.9,58.4 M34.9,49.3c-1.6,0-2.8,1.3-2.8,2.8s1.3,2.8,2.8,2.8c1.6,0,2.8-1.3,2.8-2.8S36.5,49.3,34.9,49.3"/>
	<path class="st0" d="M80.2,39.9L49.5,25.7L18.8,39.9l-1.4-3l31.4-14.5c0.4-0.2,1-0.2,1.4,0l31.4,14.5L80.2,39.9z"/>
	<path class="st0" d="M49.5,96.5c-25.9,0-47-21.1-47-47s21.1-47,47-47c25.9,0,47,21.1,47,47S75.4,96.5,49.5,96.5 M49.5,5.8
		C25.4,5.8,5.8,25.4,5.8,49.5s19.6,43.7,43.7,43.7c24.1,0,43.7-19.6,43.7-43.7S73.6,5.8,49.5,5.8"/>
</g>
</svg>
