<?xml version="1.0" encoding="utf-8"?>
<!-- Generator: Adobe Illustrator 23.0.0, SVG Export Plug-In . SVG Version: 6.00 Build 0)  -->
<svg version="1.1" id="Layer_1" xmlns="http://www.w3.org/2000/svg" xmlns:xlink="http://www.w3.org/1999/xlink" x="0px" y="0px"
	 viewBox="0 0 99 99" style="enable-background:new 0 0 99 99;" xml:space="preserve">
<style type="text/css">
	.st0{fill:#010101;}
</style>
<g>
	<path class="st0" d="M49.5,96.5c-25.9,0-47-21.1-47-47s21.1-47,47-47c25.9,0,47,21.1,47,47S75.4,96.5,49.5,96.5 M49.5,5.8
		C25.4,5.8,5.8,25.4,5.8,49.5s19.6,43.7,43.7,43.7c24.1,0,43.7-19.6,43.7-43.7S73.6,5.8,49.5,5.8"/>
	<path class="st0" d="M74.7,59.6H24.2c-0.9,0-1.7-0.8-1.7-1.7c0-14,12.1-25.3,26.9-25.3S76.3,44,76.3,58
		C76.3,58.9,75.6,59.6,74.7,59.6 M25.9,56.3h47C72,44.9,61.8,36,49.4,36C37,36,26.9,44.9,25.9,56.3"/>
	<path class="st0" d="M78.3,73.1H21c-0.6,0-1.1-0.3-1.4-0.8c-0.3-0.5-0.3-1.1-0.1-1.6l3.4-6.8c0.3-0.6,0.9-0.9,1.5-0.9h50.3
		c0.6,0,1.2,0.3,1.5,0.9l3.6,6.8c0.3,0.5,0.3,1.1,0,1.7C79.4,72.8,78.9,73.1,78.3,73.1 M23.7,69.8h51.8l-1.8-3.5H25.4L23.7,69.8z"/>
	<rect x="47.8" y="23.9" class="st0" width="3.4" height="10.4"/>
	<rect x="42.8" y="22.5" class="st0" width="13.5" height="3.4"/>
	<path class="st0" d="M33.3,52l-3.1-1.3c2.6-6.2,8.6-10.8,15.6-12l0.5,3.3C40.5,42.9,35.5,46.8,33.3,52"/>
</g>
</svg>
