<?xml version="1.0" encoding="utf-8"?>
<!-- Generator: Adobe Illustrator 23.0.0, SVG Export Plug-In . SVG Version: 6.00 Build 0)  -->
<svg version="1.1" xmlns="http://www.w3.org/2000/svg" xmlns:xlink="http://www.w3.org/1999/xlink" x="0px" y="0px"
	 viewBox="0 0 99 99" style="enable-background:new 0 0 99 99;" xml:space="preserve">
<style type="text/css">
	.st0{fill:#010101;}
	.st1{display:none;}
</style>
<g id="Layer_1">
	<g>
		<path class="st0" d="M49.5,96.5c-25.9,0-47-21.1-47-47s21.1-47,47-47s47,21.1,47,47S75.4,96.5,49.5,96.5 M49.5,5.8
			C25.4,5.8,5.8,25.4,5.8,49.5s19.6,43.7,43.7,43.7s43.7-19.6,43.7-43.7S73.6,5.8,49.5,5.8"/>
		<path class="st0" d="M60.8,64.7h-3.4c0-9.8,5.2-18.2,5.8-19.2c2-2.9,3-6.1,3-9.6c0-9.3-7.5-16.8-16.8-16.8
			c-9.3,0-16.8,7.5-16.8,16.8c0,3.4,1,6.7,2.9,9.5c0.3,0.4,5.9,9.2,5.9,19.3h-3.4c0-9-5.1-17.1-5.3-17.4c-2.3-3.3-3.5-7.2-3.5-11.3
			c0-11.1,9-20.1,20.1-20.1c11.1,0,20.1,9,20.1,20.1c0,4.1-1.2,8-3.5,11.4C65.5,48.2,60.8,56,60.8,64.7"/>
		<path class="st0" d="M57.2,76.4H41.6c-3.7,0-6.7-3-6.7-6.7c0-3.7,3-6.7,6.7-6.7h15.6c3.7,0,6.7,3,6.7,6.7
			C63.9,73.4,60.9,76.4,57.2,76.4 M41.6,66.4c-1.8,0-3.4,1.5-3.4,3.4c0,1.8,1.5,3.4,3.4,3.4h15.6c1.8,0,3.4-1.5,3.4-3.4
			c0-1.8-1.5-3.4-3.4-3.4H41.6z"/>
		<path class="st0" d="M49.6,83.2h-0.2c-4.2,0-7.7-3.4-7.7-7.7h3.4c0,2.4,1.9,4.3,4.3,4.3h0.2c2.4,0,4.3-1.9,4.3-4.3h3.4
			C57.3,79.8,53.9,83.2,49.6,83.2"/>
		<rect x="48.5" y="39" transform="matrix(0.7071 -0.7071 0.7071 0.7071 -13.4934 48.7868)" class="st0" width="7.3" height="3.4"/>
		<polygon class="st0" points="51.2,64.7 47.8,64.7 47.8,43.9 43.2,39.3 45.6,36.9 51.2,42.5 		"/>
	</g>
</g>
<g id="Layer_2" class="st1">
</g>
</svg>
