<?xml version="1.0" encoding="utf-8"?>
<!-- Generator: Adobe Illustrator 23.0.0, SVG Export Plug-In . SVG Version: 6.00 Build 0)  -->
<svg version="1.1" id="Layer_1" xmlns="http://www.w3.org/2000/svg" xmlns:xlink="http://www.w3.org/1999/xlink" x="0px" y="0px"
	 viewBox="0 0 99 99" style="enable-background:new 0 0 99 99;" xml:space="preserve">
<style type="text/css">
	.st0{fill-rule:evenodd;clip-rule:evenodd;}
</style>
<path class="st0" d="M49.6,6.2C25.5,6.2,5.9,25.8,5.9,49.9s19.6,43.7,43.7,43.7s43.7-19.6,43.7-43.7S73.6,6.2,49.6,6.2z M49.6,96.9
	c-25.9,0-47-21.1-47-47s21.1-47,47-47s47,21.1,47,47S75.5,96.9,49.6,96.9z M49.3,29.1c5.6,0,6.3,0,8.5,0.1c2.2,0.1,3.7,0.4,5,1
	c1.4,0.5,2.5,1.2,3.6,2.4c1,1,1.9,2.3,2.4,3.6c0.5,1.3,0.9,2.8,1,5c0.1,2.2,0.1,2.9,0.1,8.5c0,5.6,0,6.3-0.1,8.5
	c-0.1,2.2-0.4,3.7-1,5c-0.5,1.4-1.3,2.6-2.4,3.6c-1,1-2.3,1.9-3.6,2.4c-1.3,0.5-2.8,0.9-5,1c-2.2,0.1-2.9,0.1-8.5,0.1
	c-5.6,0-6.3,0-8.5-0.1c-2.2-0.1-3.7-0.4-5-1c-1.4-0.5-2.6-1.3-3.6-2.4c-1-1-1.9-2.3-2.4-3.6c-0.5-1.3-0.9-2.8-1-5
	c-0.1-2.2-0.1-2.9-0.1-8.5s0-6.3,0.1-8.5c0.1-2.2,0.4-3.7,1-5c0.5-1.4,1.2-2.5,2.4-3.6c1-1,2.3-1.9,3.6-2.4c1.3-0.5,2.8-0.9,5-1
	C43,29.1,43.7,29.1,49.3,29.1z M49.7,33.1c-5.5,0-6.2,0-8.3,0.1c-2,0.1-3.1,0.4-3.8,0.7c-1,0.4-1.6,0.8-2.4,1.5
	c-0.7,0.7-1.2,1.4-1.5,2.4c-0.3,0.7-0.6,1.8-0.7,3.8c-0.1,2.2-0.1,2.8-0.1,8.3s0,6.2,0.1,8.3c0.1,2,0.4,3.1,0.7,3.8
	c0.4,1,0.8,1.6,1.5,2.4c0.7,0.7,1.4,1.2,2.4,1.5c0.7,0.3,1.8,0.6,3.8,0.7c2.2,0.1,2.8,0.1,8.3,0.1c5.5,0,6.2,0,8.3-0.1
	c2-0.1,3.1-0.4,3.8-0.7c1-0.4,1.6-0.8,2.4-1.5c0.7-0.7,1.2-1.4,1.5-2.4c0.3-0.7,0.6-1.8,0.7-3.8c0.1-2.2,0.1-2.8,0.1-8.3
	s0-6.2-0.1-8.3c-0.1-2-0.4-3.1-0.7-3.8c-0.4-1-0.8-1.7-1.5-2.4c-0.7-0.7-1.4-1.2-2.4-1.5c-0.7-0.3-1.8-0.6-3.8-0.7
	C55.8,33.1,55.2,33.1,49.7,33.1z M49.7,39.5c5.8,0,10.5,4.7,10.5,10.5s-4.7,10.5-10.5,10.5c-5.8,0-10.5-4.7-10.5-10.5
	S43.8,39.5,49.7,39.5z M49.3,56.5c3.8,0,6.9-3.1,6.9-6.9s-3.1-6.9-6.9-6.9s-6.9,3.1-6.9,6.9S45.5,56.5,49.3,56.5L49.3,56.5z
	 M62.9,38.6c0,1.4-1.1,2.5-2.5,2.5c-1.4,0-2.5-1.1-2.5-2.5s1.1-2.5,2.5-2.5C61.8,36.1,62.9,37.2,62.9,38.6z"/>
</svg>
