<?xml version="1.0" encoding="utf-8"?>
<!-- Generator: Adobe Illustrator 23.0.0, SVG Export Plug-In . SVG Version: 6.00 Build 0)  -->
<svg version="1.1" id="Layer_1" xmlns="http://www.w3.org/2000/svg" xmlns:xlink="http://www.w3.org/1999/xlink" x="0px" y="0px"
	 viewBox="0 0 99 99" style="enable-background:new 0 0 99 99;" xml:space="preserve">
<g>
	<path d="M49.5,83.4c-13.1,0-23.7-10.6-23.7-23.7c0-13.1,10.6-23.7,23.7-23.7c13.1,0,23.7,10.6,23.7,23.7
		C73.2,72.7,62.6,83.4,49.5,83.4 M49.5,39.3c-11.2,0-20.4,9.1-20.4,20.4c0,11.2,9.1,20.4,20.4,20.4c11.2,0,20.4-9.1,20.4-20.4
		C69.9,48.4,60.7,39.3,49.5,39.3"/>
	<path d="M49.5,96.5c-25.9,0-47-21.1-47-47s21.1-47,47-47c25.9,0,47,21.1,47,47S75.4,96.5,49.5,96.5 M49.5,5.8
		C25.4,5.8,5.8,25.4,5.8,49.5s19.6,43.7,43.7,43.7c24.1,0,43.7-19.6,43.7-43.7S73.6,5.8,49.5,5.8"/>
	<rect x="29.1" y="63" width="41.2" height="3.4"/>
	<rect x="29.1" y="49.6" width="17" height="3.4"/>
	<rect x="56.2" y="17.6" width="3.4" height="21.5"/>
	<rect x="39.4" y="17.6" width="3.4" height="21.3"/>
	<rect x="36.8" y="15.7" width="24.7" height="3.4"/>
</g>
</svg>
