<?xml version="1.0" encoding="utf-8"?>
<!-- Generator: Adobe Illustrator 23.0.0, SVG Export Plug-In . SVG Version: 6.00 Build 0)  -->
<svg version="1.1" id="Layer_1" xmlns="http://www.w3.org/2000/svg" xmlns:xlink="http://www.w3.org/1999/xlink" x="0px" y="0px"
	 viewBox="0 0 99 99" style="enable-background:new 0 0 99 99;" xml:space="preserve">
<style type="text/css">
	.st0{fill:#010101;}
</style>
<g>
	<path class="st0" d="M123.7,235.3c-0.2,0-0.4,0-0.7-0.1l-34.7-14.6c-0.6-0.3-1-0.9-1-1.5c0-0.7,0.4-1.3,1-1.5l34.7-15.2
		c0.4-0.2,0.9-0.2,1.3,0l33.9,14.4c0.6,0.3,1,0.9,1,1.5c0,0.7-0.4,1.3-1,1.5l-33.9,15.4C124.2,235.3,123.9,235.3,123.7,235.3
		 M93.3,219l30.4,12.8l29.7-13.5l-29.7-12.6L93.3,219z"/>
	<rect x="99.7" y="224" class="st0" width="3.4" height="21.8"/>
	<rect x="143.5" y="224" class="st0" width="3.4" height="21.8"/>
	<path class="st0" d="M123.3,254.9c-11.7,0-23.6-3.1-23.6-9.1h3.4c0,1.6,6,5.7,20.2,5.7s20.2-4.1,20.2-5.7h3.4
		C146.8,251.8,135,254.9,123.3,254.9"/>
	<rect x="153.8" y="219" class="st0" width="3.4" height="12"/>
	<path class="st0" d="M123.3,273.3c-25.9,0-47-21.1-47-47s21.1-47,47-47s47,21.1,47,47S149.3,273.3,123.3,273.3 M123.3,182.6
		c-24.1,0-43.7,19.6-43.7,43.7S99.3,270,123.3,270s43.7-19.6,43.7-43.7S147.4,182.6,123.3,182.6"/>
</g>
<g>
	<path class="st0" d="M615.8,225.5c-6.5,0-11.8-6-11.8-13.4s5.3-13.4,11.8-13.4c6.5,0,11.8,6,11.8,13.4S622.3,225.5,615.8,225.5
		 M615.8,202c-4.6,0-8.4,4.5-8.4,10.1c0,5.6,3.8,10.1,8.4,10.1c4.6,0,8.4-4.5,8.4-10.1C624.2,206.5,620.4,202,615.8,202"/>
	<path class="st0" d="M603.8,273.3c-25.9,0-47-21.1-47-47s21.1-47,47-47c25.9,0,47,21.1,47,47S629.8,273.3,603.8,273.3 M603.8,182.6
		c-24.1,0-43.7,19.6-43.7,43.7s19.6,43.7,43.7,43.7c24.1,0,43.7-19.6,43.7-43.7S627.9,182.6,603.8,182.6"/>
	<path class="st0" d="M603.8,273.3c-25.9,0-47-21.1-47-47s21.1-47,47-47c25.9,0,47,21.1,47,47S629.8,273.3,603.8,273.3 M603.8,182.6
		c-24.1,0-43.7,19.6-43.7,43.7s19.6,43.7,43.7,43.7c24.1,0,43.7-19.6,43.7-43.7S627.9,182.6,603.8,182.6"/>
	<rect x="590.4" y="199.3" class="st0" width="3.4" height="60.1"/>
	<rect x="613.8" y="223.8" class="st0" width="3.4" height="35.5"/>
	<path class="st0" d="M594.1,225.6h-3.9c-3.6,0-6.5-2.9-6.5-6.5v-19.8h3.4v19.8c0,1.7,1.4,3.2,3.2,3.2h3.9c1.7,0,3.2-1.4,3.2-3.2
		v-19.8h3.4v19.8C600.6,222.7,597.6,225.6,594.1,225.6"/>
</g>
<g>
	<path class="st0" d="M71.5,32.6h-5.1c-0.7,0-1.3-0.4-1.6-1.1l-3.5-9.1H37.7l-3.4,9.1c-0.2,0.7-0.9,1.1-1.6,1.1h-5.2
		c-0.9,0-1.7-0.8-1.7-1.7c0-0.9,0.8-1.7,1.7-1.7h4l3.4-9.1c0.2-0.7,0.9-1.1,1.6-1.1h26c0.7,0,1.3,0.4,1.6,1.1l3.5,9.1h3.9
		c0.9,0,1.7,0.8,1.7,1.7C73.2,31.9,72.4,32.6,71.5,32.6"/>
	<path class="st0" d="M52,39.4h-5.3c-0.8,0-1.5-0.6-1.6-1.4l-3-17c-0.2-0.9,0.4-1.8,1.4-1.9c0.9-0.2,1.8,0.4,1.9,1.4l2.8,15.6h2.4
		l2.5-15.5c0.1-0.9,1-1.5,1.9-1.4c0.9,0.1,1.5,1,1.4,1.9l-2.8,17C53.5,38.8,52.8,39.4,52,39.4"/>
	<path class="st0" d="M49.3,48.8c-4.4,0-8.8-0.5-13-1.4l-0.5-0.1c-0.9-0.2-1.5-1.1-1.3-2c0.2-0.9,1.1-1.5,2-1.3l0.5,0.1
		c8,1.8,16.6,1.8,24.6,0l0.5-0.1c0.9-0.2,1.8,0.4,2,1.3c0.2,0.9-0.4,1.8-1.3,2l-0.5,0.1C58.1,48.4,53.7,48.8,49.3,48.8"/>
	<path class="st0" d="M49.5,79.9c-14.6,0-30.3-3.6-30.3-9.5c0-2.2,2.1-4.1,4.5-6.3c0.4-0.4,0.9-0.8,1.3-1.2c3.2-3,5.3-6.6,6.2-10.6
		l3.4-15c0.2-0.8,0.9-1.3,1.6-1.3h26.4c0.8,0,1.5,0.5,1.6,1.3l3.3,14.8c0.8,4.1,3.1,7.8,6.4,10.9c0.5,0.5,1,0.9,1.5,1.3
		c2.5,2.2,4.5,3.9,4.5,6C79.8,76.3,64.1,79.9,49.5,79.9 M37.5,39.4l-3.1,13.6c-1,4.6-3.4,8.9-7.2,12.3c-0.5,0.4-0.9,0.9-1.4,1.3
		c-1.4,1.3-3.3,3-3.3,3.8c0,1.5,9.6,6.1,27,6.1c17.4,0,27-4.6,27-6.1c0-0.7-2-2.4-3.3-3.5c-0.5-0.4-1-0.9-1.5-1.4
		c-3.9-3.5-6.5-7.9-7.5-12.6l-3-13.5H37.5z"/>
	<path class="st0" d="M46.7,79.5c-0.8,0-1.4-0.5-1.6-1.3L44,73.8l-5.7-4.9c-0.5-0.4-0.7-1-0.6-1.6l2.2-10.1c0.2-0.9,1.1-1.5,2-1.3
		c0.9,0.2,1.5,1.1,1.3,2l-2,9.1l5.4,4.6c0.3,0.2,0.5,0.5,0.5,0.9l1.2,5c0.2,0.9-0.3,1.8-1.2,2C47,79.5,46.8,79.5,46.7,79.5"/>
	<path class="st0" d="M49.5,96.5c-25.9,0-47-21.1-47-47c0-25.9,21.1-47,47-47c25.9,0,47,21.1,47,47C96.5,75.4,75.4,96.5,49.5,96.5
		 M49.5,5.8C25.4,5.8,5.8,25.4,5.8,49.5c0,24.1,19.6,43.7,43.7,43.7c24.1,0,43.7-19.6,43.7-43.7C93.2,25.4,73.6,5.8,49.5,5.8"/>
</g>
</svg>
