<?xml version="1.0" encoding="utf-8"?>
<!-- Generator: Adobe Illustrator 23.0.0, SVG Export Plug-In . SVG Version: 6.00 Build 0)  -->
<svg version="1.1" id="Layer_1" xmlns="http://www.w3.org/2000/svg" xmlns:xlink="http://www.w3.org/1999/xlink" x="0px" y="0px"
	 viewBox="0 0 99 99" style="enable-background:new 0 0 99 99;" xml:space="preserve">
<g>
	<path d="M49.4,1.3C22.9,1.3,1.3,22.9,1.3,49.4s21.6,48.1,48.1,48.1C76,97.6,97.6,76,97.6,49.4S76,1.3,49.4,1.3z M49.4,94.1
		c-24.7,0-44.7-20.1-44.7-44.7S24.8,4.7,49.4,4.7c24.7,0,44.7,20.1,44.7,44.7S74.1,94.1,49.4,94.1z"/>
	<rect x="43.9" y="42.5" transform="matrix(0.9168 -0.3993 0.3993 0.9168 -13.6085 22.9334)" width="8.6" height="3.3"/>
	<rect x="48.8" y="53.8" transform="matrix(0.9168 -0.3993 0.3993 0.9168 -17.6988 25.8302)" width="8.6" height="3.3"/>
	<rect x="44.3" y="48.1" transform="matrix(0.9168 -0.3993 0.3993 0.9168 -15.6537 24.3817)" width="12.7" height="3.3"/>
	<rect x="35.2" y="22.6" transform="matrix(0.9168 -0.3993 0.3993 0.9168 -6.3749 17.8106)" width="8.6" height="3.3"/>
	<rect x="30.7" y="16.9" transform="matrix(0.9168 -0.3993 0.3993 0.9168 -4.3298 16.3622)" width="12.7" height="3.3"/>
	<rect x="57.5" y="73.7" transform="matrix(0.9168 -0.3993 0.3993 0.9168 -24.9328 30.9533)" width="8.6" height="3.3"/>
	<rect x="57.9" y="79.3" transform="matrix(0.9168 -0.3993 0.3993 0.9168 -26.978 32.4017)" width="12.7" height="3.3"/>
	<path d="M59.6,63.3c3.5-6,7-12.2,4-19.2c-3-7-10.1-8.6-17-10.2c-1-0.2-2.1-0.5-3.1-0.7c-6.9-1.7-13.6-4.2-17.2-12.5l-3,1.3
		C28,32.8,37,35.2,45.1,37c0,0,0,0,0,0c0.2,0.1,0.5,0.1,0.7,0.2c6.6,1.5,12.3,2.8,14.7,8.3c2.4,5.5-0.6,10.5-4,16.4
		c-0.1,0.2-0.2,0.4-0.4,0.6c-0.2-0.1-0.5-0.1-0.7-0.2c-6.6-1.5-12.3-2.8-14.7-8.3c-2.2-5.1,0.2-9.8,3.3-15.2
		c-1.1-0.2-2.2-0.5-3.3-0.8c-3.1,5.4-5.7,11.1-3,17.3c3,6.9,10,8.6,16.8,10.1C51,72,48.2,79.4,52.3,88.7l3-1.3
		c-3.6-8.3-0.9-14.9,2.6-21.1c6.9,1.7,13.6,4.2,17.2,12.5l3-1.3C74,68.1,66.7,65.1,59.6,63.3z"/>
	<path d="M47,32c0.3,0.1,0.5,0.1,0.8,0.2c3-6,4.9-12.9,1.3-21.3l-3,1.3c3.3,7.5,1.4,13.6-1.6,19.3C45.3,31.6,46.2,31.8,47,32z"/>
</g>
</svg>
