<?xml version="1.0" encoding="utf-8"?>
<!-- Generator: Adobe Illustrator 23.0.0, SVG Export Plug-In . SVG Version: 6.00 Build 0)  -->
<svg version="1.1" id="Layer_1" xmlns="http://www.w3.org/2000/svg" xmlns:xlink="http://www.w3.org/1999/xlink" x="0px" y="0px"
	 viewBox="0 0 99 99" style="enable-background:new 0 0 99 99;" xml:space="preserve">
<style type="text/css">
	.st0{fill:#010101;}
</style>
<g>
	<path class="st0" d="M49.5,79.9L49.5,79.9c-9.3,0-16.8-7.5-16.8-16.8l0-32.2c0-6.5,5.3-11.7,11.7-11.7c6.5,0,11.7,5.3,11.7,11.7V63
		c0,3.7-3,6.8-6.8,6.8s-6.8-3-6.8-6.8V29.2H46V63c0,1.9,1.5,3.4,3.4,3.4c1.9,0,3.4-1.5,3.4-3.4V30.9c0-4.6-3.8-8.4-8.4-8.4
		c-4.6,0-8.4,3.7-8.4,8.4l0,32.2c0,7.4,6,13.4,13.4,13.4h0c3.6,0,6.9-1.4,9.5-3.9c2.5-2.5,3.9-5.9,3.9-9.5V29.7h3.4v33.4
		c0,4.5-1.7,8.7-4.9,11.9C58.2,78.1,54,79.9,49.5,79.9"/>
	<path class="st0" d="M49.5,96.5c-25.9,0-47-21.1-47-47s21.1-47,47-47c25.9,0,47,21.1,47,47S75.4,96.5,49.5,96.5 M49.5,5.8
		C25.4,5.8,5.8,25.4,5.8,49.5s19.6,43.7,43.7,43.7c24.1,0,43.7-19.6,43.7-43.7S73.6,5.8,49.5,5.8"/>
</g>
</svg>
