<?xml version="1.0" encoding="utf-8"?>
<!-- Generator: Adobe Illustrator 23.0.0, SVG Export Plug-In . SVG Version: 6.00 Build 0)  -->
<svg version="1.1" id="Layer_1" xmlns="http://www.w3.org/2000/svg" xmlns:xlink="http://www.w3.org/1999/xlink" x="0px" y="0px"
	 viewBox="0 0 99 99" style="enable-background:new 0 0 99 99;" xml:space="preserve">
<style type="text/css">
	.st0{fill:#010101;}
	.st1{fill:#FFFFFF;}
</style>
<g>
	<path class="st0" d="M123.7,235.3c-0.2,0-0.4,0-0.7-0.1l-34.7-14.6c-0.6-0.3-1-0.9-1-1.5c0-0.7,0.4-1.3,1-1.5l34.7-15.2
		c0.4-0.2,0.9-0.2,1.3,0l33.9,14.4c0.6,0.3,1,0.9,1,1.5c0,0.7-0.4,1.3-1,1.5l-33.9,15.4C124.2,235.3,123.9,235.3,123.7,235.3
		 M93.3,219l30.4,12.8l29.7-13.5l-29.7-12.6L93.3,219z"/>
	<rect x="99.7" y="224" class="st0" width="3.4" height="21.8"/>
	<rect x="143.5" y="224" class="st0" width="3.4" height="21.8"/>
	<path class="st0" d="M123.3,254.9c-11.7,0-23.6-3.1-23.6-9.1h3.4c0,1.6,6,5.7,20.2,5.7s20.2-4.1,20.2-5.7h3.4
		C146.8,251.8,135,254.9,123.3,254.9"/>
	<rect x="153.8" y="219" class="st0" width="3.4" height="12"/>
	<path class="st0" d="M123.3,273.3c-25.9,0-47-21.1-47-47s21.1-47,47-47s47,21.1,47,47S149.3,273.3,123.3,273.3 M123.3,182.6
		c-24.1,0-43.7,19.6-43.7,43.7S99.3,270,123.3,270s43.7-19.6,43.7-43.7S147.4,182.6,123.3,182.6"/>
</g>
<g>
	<path class="st0" d="M615.8,225.5c-6.5,0-11.8-6-11.8-13.4s5.3-13.4,11.8-13.4c6.5,0,11.8,6,11.8,13.4S622.3,225.5,615.8,225.5
		 M615.8,202c-4.6,0-8.4,4.5-8.4,10.1c0,5.6,3.8,10.1,8.4,10.1c4.6,0,8.4-4.5,8.4-10.1C624.2,206.5,620.4,202,615.8,202"/>
	<path class="st0" d="M603.8,273.3c-25.9,0-47-21.1-47-47s21.1-47,47-47c25.9,0,47,21.1,47,47S629.8,273.3,603.8,273.3 M603.8,182.6
		c-24.1,0-43.7,19.6-43.7,43.7s19.6,43.7,43.7,43.7c24.1,0,43.7-19.6,43.7-43.7S627.9,182.6,603.8,182.6"/>
	<path class="st0" d="M603.8,273.3c-25.9,0-47-21.1-47-47s21.1-47,47-47c25.9,0,47,21.1,47,47S629.8,273.3,603.8,273.3 M603.8,182.6
		c-24.1,0-43.7,19.6-43.7,43.7s19.6,43.7,43.7,43.7c24.1,0,43.7-19.6,43.7-43.7S627.9,182.6,603.8,182.6"/>
	<rect x="590.4" y="199.3" class="st0" width="3.4" height="60.1"/>
	<rect x="613.8" y="223.8" class="st0" width="3.4" height="35.5"/>
	<path class="st0" d="M594.1,225.6h-3.9c-3.6,0-6.5-2.9-6.5-6.5v-19.8h3.4v19.8c0,1.7,1.4,3.2,3.2,3.2h3.9c1.7,0,3.2-1.4,3.2-3.2
		v-19.8h3.4v19.8C600.6,222.7,597.6,225.6,594.1,225.6"/>
</g>
<g>
	<path class="st1" d="M61.3,49.5c0,6.5-5.3,11.8-11.8,11.8c-6.5,0-11.8-5.3-11.8-11.8c0-6.5,5.3-11.8,11.8-11.8
		C56,37.7,61.3,43,61.3,49.5"/>
	<path class="st0" d="M49.4,63C42,63,35.9,57,35.9,49.5S42,36,49.4,36C56.9,36,63,42,63,49.5S56.9,63,49.4,63 M49.4,39.3
		c-5.6,0-10.2,4.6-10.2,10.2c0,5.6,4.6,10.2,10.2,10.2c5.6,0,10.2-4.6,10.2-10.2C59.6,43.9,55.1,39.3,49.4,39.3"/>
	<line class="st1" x1="61.3" y1="61.4" x2="69" y2="69.1"/>
	<rect x="63.5" y="59.8" transform="matrix(0.7084 -0.7058 0.7058 0.7084 -27.043 65.0305)" class="st0" width="3.4" height="11"/>
	<line class="st1" x1="30" y1="29.9" x2="37.6" y2="37.6"/>
	
		<rect x="32.1" y="28.3" transform="matrix(0.7084 -0.7058 0.7058 0.7084 -13.9688 33.7039)" class="st0" width="3.4" height="10.9"/>
	<line class="st1" x1="49.5" y1="66.2" x2="49.5" y2="77.2"/>
	<rect x="44" y="70" transform="matrix(1.484435e-03 -1 1 1.484435e-03 -22.3054 121.0416)" class="st0" width="11" height="3.4"/>
	<line class="st1" x1="49.5" y1="21.8" x2="49.5" y2="32.8"/>
	<rect x="44" y="25.6" transform="matrix(2.386020e-03 -1 1 2.386020e-03 22.1075 76.7815)" class="st0" width="11" height="3.4"/>
	<line class="st1" x1="37.7" y1="61.3" x2="29.9" y2="69"/>
	<rect x="28.3" y="63.5" transform="matrix(0.7081 -0.7061 0.7061 0.7081 -36.1494 42.8684)" class="st0" width="11" height="3.4"/>
	<line class="st1" x1="69.1" y1="30" x2="61.3" y2="37.7"/>
	<rect x="59.7" y="32.2" transform="matrix(0.7087 -0.7055 0.7055 0.7087 -4.8752 55.8625)" class="st0" width="11" height="3.4"/>
	<line class="st1" x1="32.8" y1="49.5" x2="21.8" y2="49.5"/>
	<rect x="25.6" y="44" transform="matrix(1.272953e-03 -1 1 1.272953e-03 -22.1825 76.7059)" class="st0" width="3.4" height="11"/>
	<line class="st1" x1="77.2" y1="49.5" x2="66.2" y2="49.5"/>
	<rect x="70" y="44" transform="matrix(2.365242e-03 -1 1 2.365242e-03 21.9839 121.1087)" class="st0" width="3.4" height="11"/>
	<path class="st0" d="M49.5,96.5c-25.9,0-47-21.1-47-47c0-25.9,21.1-47,47-47c25.9,0,47,21.1,47,47C96.5,75.4,75.4,96.5,49.5,96.5
		 M49.5,5.8C25.4,5.8,5.8,25.4,5.8,49.5c0,24.1,19.6,43.7,43.7,43.7c24.1,0,43.7-19.6,43.7-43.7C93.2,25.4,73.6,5.8,49.5,5.8"/>
</g>
</svg>
