<?xml version="1.0" encoding="utf-8"?>
<!-- Generator: Adobe Illustrator 23.0.0, SVG Export Plug-In . SVG Version: 6.00 Build 0)  -->
<svg version="1.1" id="Layer_1" xmlns="http://www.w3.org/2000/svg" xmlns:xlink="http://www.w3.org/1999/xlink" x="0px" y="0px"
	 viewBox="0 0 99 99" style="enable-background:new 0 0 99 99;" xml:space="preserve">
<style type="text/css">
	.st0{fill:#010101;}
</style>
<g>
	<path class="st0" d="M123.7,235.3c-0.2,0-0.4,0-0.7-0.1l-34.7-14.6c-0.6-0.3-1-0.9-1-1.5c0-0.7,0.4-1.3,1-1.5l34.7-15.2
		c0.4-0.2,0.9-0.2,1.3,0l33.9,14.4c0.6,0.3,1,0.9,1,1.5c0,0.7-0.4,1.3-1,1.5l-33.9,15.4C124.2,235.3,123.9,235.3,123.7,235.3
		 M93.3,219l30.4,12.8l29.7-13.5l-29.7-12.6L93.3,219z"/>
	<rect x="99.7" y="224" class="st0" width="3.4" height="21.8"/>
	<rect x="143.5" y="224" class="st0" width="3.4" height="21.8"/>
	<path class="st0" d="M123.3,254.9c-11.7,0-23.6-3.1-23.6-9.1h3.4c0,1.6,6,5.7,20.2,5.7s20.2-4.1,20.2-5.7h3.4
		C146.8,251.8,135,254.9,123.3,254.9"/>
	<rect x="153.8" y="219" class="st0" width="3.4" height="12"/>
	<path class="st0" d="M123.3,273.3c-25.9,0-47-21.1-47-47s21.1-47,47-47s47,21.1,47,47S149.3,273.3,123.3,273.3 M123.3,182.6
		c-24.1,0-43.7,19.6-43.7,43.7S99.3,270,123.3,270s43.7-19.6,43.7-43.7S147.4,182.6,123.3,182.6"/>
</g>
<g>
	<path class="st0" d="M615.8,225.5c-6.5,0-11.8-6-11.8-13.4s5.3-13.4,11.8-13.4c6.5,0,11.8,6,11.8,13.4S622.3,225.5,615.8,225.5
		 M615.8,202c-4.6,0-8.4,4.5-8.4,10.1c0,5.6,3.8,10.1,8.4,10.1c4.6,0,8.4-4.5,8.4-10.1C624.2,206.5,620.4,202,615.8,202"/>
	<path class="st0" d="M603.8,273.3c-25.9,0-47-21.1-47-47s21.1-47,47-47c25.9,0,47,21.1,47,47S629.8,273.3,603.8,273.3 M603.8,182.6
		c-24.1,0-43.7,19.6-43.7,43.7s19.6,43.7,43.7,43.7c24.1,0,43.7-19.6,43.7-43.7S627.9,182.6,603.8,182.6"/>
	<path class="st0" d="M603.8,273.3c-25.9,0-47-21.1-47-47s21.1-47,47-47c25.9,0,47,21.1,47,47S629.8,273.3,603.8,273.3 M603.8,182.6
		c-24.1,0-43.7,19.6-43.7,43.7s19.6,43.7,43.7,43.7c24.1,0,43.7-19.6,43.7-43.7S627.9,182.6,603.8,182.6"/>
	<rect x="590.4" y="199.3" class="st0" width="3.4" height="60.1"/>
	<rect x="613.8" y="223.8" class="st0" width="3.4" height="35.5"/>
	<path class="st0" d="M594.1,225.6h-3.9c-3.6,0-6.5-2.9-6.5-6.5v-19.8h3.4v19.8c0,1.7,1.4,3.2,3.2,3.2h3.9c1.7,0,3.2-1.4,3.2-3.2
		v-19.8h3.4v19.8C600.6,222.7,597.6,225.6,594.1,225.6"/>
</g>
<g>
	<path class="st0" d="M49.5,96.5c-25.9,0-47-21.1-47-47c0-25.9,21.1-47,47-47s47,21.1,47,47C96.5,75.4,75.4,96.5,49.5,96.5
		 M49.5,5.8C25.4,5.8,5.8,25.4,5.8,49.5c0,24.1,19.6,43.7,43.7,43.7s43.7-19.6,43.7-43.7C93.2,25.4,73.6,5.8,49.5,5.8"/>
	<path class="st0" d="M61.4,42.7H37.8c-0.9,0-1.7-0.8-1.7-1.7V24.1c0-0.9,0.8-1.7,1.7-1.7h23.6c0.9,0,1.7,0.8,1.7,1.7v16.9
		C63,42,62.3,42.7,61.4,42.7 M39.4,39.4h20.2V25.8H39.4V39.4z"/>
	<path class="st0" d="M64.6,79.9H34.4c-0.9,0-1.7-0.8-1.7-1.7V47.8c0-0.9,0.8-1.7,1.7-1.7h30.1c0.9,0,1.7,0.8,1.7,1.7v30.4
		C66.2,79.2,65.5,79.9,64.6,79.9 M36.1,76.6h26.8V49.5H36.1V76.6z"/>
	<rect x="44.4" y="41.1" class="st0" width="3.4" height="6.7"/>
	<rect x="51.2" y="41.1" class="st0" width="3.4" height="6.7"/>
	<path class="st0" d="M20.8,56.5c-1.8,0-3.5-0.7-4.8-2l2.4-2.4c0.6,0.6,1.5,1,2.4,1c0.9,0,1.8-0.4,2.4-1c0.6-0.6,1-1.5,1-2.4
		c0-0.9-0.4-1.8-1-2.4l2.4-2.4c1.3,1.3,2,3,2,4.8c0,1.8-0.7,3.5-2,4.8C24.3,55.8,22.6,56.5,20.8,56.5"/>
	
		<rect x="27.6" y="50.5" transform="matrix(0.6445 -0.7646 0.7646 0.6445 -33.2287 42.6543)" class="st0" width="3.4" height="13.1"/>
	<path class="st0" d="M78.1,56.5c-1.8,0-3.5-0.7-4.8-2c-1.3-1.3-2-3-2-4.8c0-1.8,0.7-3.5,2-4.8l2.4,2.4c-0.6,0.6-1,1.5-1,2.4
		c0,0.9,0.4,1.8,1,2.4s1.5,1,2.4,1c0.9,0,1.8-0.4,2.4-1l2.4,2.4C81.6,55.8,79.9,56.5,78.1,56.5"/>
	<rect x="63" y="55.4" transform="matrix(0.7644 -0.6447 0.6447 0.7644 -20.3939 58.3158)" class="st0" width="13.1" height="3.4"/>
	<path class="st0" d="M46.4,30.9c0,1.1-0.9,2-2,2c-1.1,0-2-0.9-2-2c0-1.1,0.9-2,2-2C45.5,28.9,46.4,29.8,46.4,30.9"/>
	<path class="st0" d="M56.6,30.9c0,1.1-0.9,2-2,2c-1.1,0-2-0.9-2-2c0-1.1,0.9-2,2-2C55.7,28.9,56.6,29.8,56.6,30.9"/>
</g>
</svg>
