<?xml version="1.0" encoding="utf-8"?>
<!-- Generator: Adobe Illustrator 23.0.0, SVG Export Plug-In . SVG Version: 6.00 Build 0)  -->
<svg version="1.1" id="Layer_1" xmlns="http://www.w3.org/2000/svg" xmlns:xlink="http://www.w3.org/1999/xlink" x="0px" y="0px"
	 viewBox="0 0 99 99" style="enable-background:new 0 0 99 99;" xml:space="preserve">
<style type="text/css">
	.st0{fill:#010101;}
</style>
<g>
	<path class="st0" d="M71.4,73.1H27.6c-0.9,0-1.7-0.8-1.7-1.7V33h3.4v36.7h40.5V33h3.4v38.4C73.1,72.3,72.4,73.1,71.4,73.1"/>
	<path class="st0" d="M17.8,39.1l-1.4-3l32.4-14.9c0.4-0.2,1-0.2,1.4,0L82.6,36l-1.4,3L49.5,24.5L17.8,39.1z"/>
	<path class="st0" d="M59.7,71.4h-3.4v-22H42.7v22h-3.4V47.7c0-0.9,0.8-1.7,1.7-1.7h17c0.9,0,1.7,0.8,1.7,1.7V71.4z"/>
	<rect x="29.3" y="22.6" class="st0" width="6.7" height="7.8"/>
	<path class="st0" d="M49.5,96.5c-25.9,0-47-21.1-47-47s21.1-47,47-47c25.9,0,47,21.1,47,47S75.4,96.5,49.5,96.5 M49.5,5.8
		C25.4,5.8,5.8,25.4,5.8,49.5s19.6,43.7,43.7,43.7c24.1,0,43.7-19.6,43.7-43.7S73.6,5.8,49.5,5.8"/>
</g>
</svg>
