<?xml version="1.0" encoding="utf-8"?>
<!-- Generator: Adobe Illustrator 23.0.0, SVG Export Plug-In . SVG Version: 6.00 Build 0)  -->
<svg version="1.1" id="Layer_1" xmlns="http://www.w3.org/2000/svg" xmlns:xlink="http://www.w3.org/1999/xlink" x="0px" y="0px"
	 viewBox="0 0 99 99" style="enable-background:new 0 0 99 99;" xml:space="preserve">
<style type="text/css">
	.st0{fill:#010101;}
</style>
<g>
	<path class="st0" d="M70.9,76.5H28.1c-0.5,0-0.9-0.2-1.2-0.5c-0.3-0.3-0.5-0.8-0.5-1.2l2-42.4c0-0.9,0.8-1.6,1.7-1.6h38.8
		c0.9,0,1.6,0.7,1.7,1.6l2,42.4c0,0.5-0.1,0.9-0.5,1.2C71.8,76.3,71.3,76.5,70.9,76.5 M29.9,73.2h39.2l-1.8-39H31.7L29.9,73.2z"/>
	<path class="st0" d="M59.7,38.4h-3.4v-9.6c0-3.4-3-6.2-6.7-6.2c-3.7,0-6.7,2.8-6.7,6.2v9.6h-3.4v-9.6c0-5.3,4.5-9.6,10.1-9.6
		c5.6,0,10.1,4.3,10.1,9.6V38.4z"/>
	<path class="st0" d="M49.5,96.5c-25.9,0-47-21.1-47-47s21.1-47,47-47c25.9,0,47,21.1,47,47S75.4,96.5,49.5,96.5 M49.5,5.8
		C25.4,5.8,5.8,25.4,5.8,49.5s19.6,43.7,43.7,43.7c24.1,0,43.7-19.6,43.7-43.7S73.6,5.8,49.5,5.8"/>
</g>
</svg>
