<?xml version="1.0" encoding="utf-8"?>
<!-- Generator: Adobe Illustrator 23.0.0, SVG Export Plug-In . SVG Version: 6.00 Build 0)  -->
<svg version="1.1" id="Layer_1" xmlns="http://www.w3.org/2000/svg" xmlns:xlink="http://www.w3.org/1999/xlink" x="0px" y="0px"
	 viewBox="0 0 99 99" style="enable-background:new 0 0 99 99;" xml:space="preserve">
<g>
	<rect x="56.5" y="45.2" transform="matrix(0.7071 -0.7071 0.7071 0.7071 -29.1347 60.2365)" width="3.4" height="40.3"/>
	<path d="M37.1,52.8c-0.4,0-0.9-0.2-1.2-0.5L16.7,33.1c-0.7-0.7-0.7-1.7,0-2.4l7.4-7.4c0.7-0.7,1.7-0.7,2.4,0l19.2,19.2
		c0.3,0.3,0.5,0.8,0.5,1.2l-0.1,7.3c0,0.9-0.7,1.6-1.7,1.7L37.1,52.8L37.1,52.8z M20.3,31.9l17.5,17.5l5-0.1l0.1-5L25.3,26.9
		L20.3,31.9z"/>
	<path d="M49.5,96.5c-25.9,0-47-21.1-47-47s21.1-47,47-47s47,21.1,47,47S75.4,96.5,49.5,96.5 M49.5,5.8C25.4,5.8,5.8,25.4,5.8,49.5
		s19.6,43.7,43.7,43.7s43.7-19.6,43.7-43.7S73.6,5.8,49.5,5.8"/>
	<rect x="20.9" y="63.6" transform="matrix(0.7071 -0.7071 0.7071 0.7071 -34.1496 48.1295)" width="40.3" height="3.4"/>
	<path d="M62.1,52.8L62.1,52.8l-7.4-0.1c-0.9,0-1.6-0.7-1.7-1.7l-0.1-7.3c0-0.5,0.2-0.9,0.5-1.2l19.2-19.2c0.7-0.7,1.7-0.7,2.4,0
		l7.4,7.4c0.7,0.7,0.7,1.7,0,2.4L63.2,52.3C62.9,52.6,62.5,52.8,62.1,52.8 M56.4,49.4l5,0.1l17.5-17.5l-5.1-5.1L56.3,44.4L56.4,49.4
		z"/>
</g>
</svg>
