<?xml version="1.0" encoding="utf-8"?>
<!-- Generator: Adobe Illustrator 23.0.0, SVG Export Plug-In . SVG Version: 6.00 Build 0)  -->
<svg version="1.1" id="Layer_1" xmlns="http://www.w3.org/2000/svg" xmlns:xlink="http://www.w3.org/1999/xlink" x="0px" y="0px"
	 viewBox="0 0 99 99" style="enable-background:new 0 0 99 99;" xml:space="preserve">
<style type="text/css">
	.st0{fill:#010101;}
	.st1{fill:#020202;}
</style>
<g>
	<path class="st0" d="M123.7,235.3c-0.2,0-0.4,0-0.7-0.1l-34.7-14.6c-0.6-0.3-1-0.9-1-1.5c0-0.7,0.4-1.3,1-1.5l34.7-15.2
		c0.4-0.2,0.9-0.2,1.3,0l33.9,14.4c0.6,0.3,1,0.9,1,1.5c0,0.7-0.4,1.3-1,1.5l-33.9,15.4C124.2,235.3,123.9,235.3,123.7,235.3
		 M93.3,219l30.4,12.8l29.7-13.5l-29.7-12.6L93.3,219z"/>
	<rect x="99.7" y="224" class="st0" width="3.4" height="21.8"/>
	<rect x="143.5" y="224" class="st0" width="3.4" height="21.8"/>
	<path class="st0" d="M123.3,254.9c-11.7,0-23.6-3.1-23.6-9.1h3.4c0,1.6,6,5.7,20.2,5.7s20.2-4.1,20.2-5.7h3.4
		C146.8,251.8,135,254.9,123.3,254.9"/>
	<rect x="153.8" y="219" class="st0" width="3.4" height="12"/>
	<path class="st0" d="M123.3,273.3c-25.9,0-47-21.1-47-47s21.1-47,47-47s47,21.1,47,47S149.3,273.3,123.3,273.3 M123.3,182.6
		c-24.1,0-43.7,19.6-43.7,43.7S99.3,270,123.3,270s43.7-19.6,43.7-43.7S147.4,182.6,123.3,182.6"/>
</g>
<g>
	<path class="st0" d="M615.8,225.5c-6.5,0-11.8-6-11.8-13.4s5.3-13.4,11.8-13.4c6.5,0,11.8,6,11.8,13.4S622.3,225.5,615.8,225.5
		 M615.8,202c-4.6,0-8.4,4.5-8.4,10.1c0,5.6,3.8,10.1,8.4,10.1c4.6,0,8.4-4.5,8.4-10.1C624.2,206.5,620.4,202,615.8,202"/>
	<path class="st0" d="M603.8,273.3c-25.9,0-47-21.1-47-47s21.1-47,47-47c25.9,0,47,21.1,47,47S629.8,273.3,603.8,273.3 M603.8,182.6
		c-24.1,0-43.7,19.6-43.7,43.7s19.6,43.7,43.7,43.7c24.1,0,43.7-19.6,43.7-43.7S627.9,182.6,603.8,182.6"/>
	<path class="st0" d="M603.8,273.3c-25.9,0-47-21.1-47-47s21.1-47,47-47c25.9,0,47,21.1,47,47S629.8,273.3,603.8,273.3 M603.8,182.6
		c-24.1,0-43.7,19.6-43.7,43.7s19.6,43.7,43.7,43.7c24.1,0,43.7-19.6,43.7-43.7S627.9,182.6,603.8,182.6"/>
	<rect x="590.4" y="199.3" class="st0" width="3.4" height="60.1"/>
	<rect x="613.8" y="223.8" class="st0" width="3.4" height="35.5"/>
	<path class="st0" d="M594.1,225.6h-3.9c-3.6,0-6.5-2.9-6.5-6.5v-19.8h3.4v19.8c0,1.7,1.4,3.2,3.2,3.2h3.9c1.7,0,3.2-1.4,3.2-3.2
		v-19.8h3.4v19.8C600.6,222.7,597.6,225.6,594.1,225.6"/>
</g>
<g>
	<path class="st1" d="M40.1,81.5c-0.9,0-1.7-0.3-2.3-1l-19-19.1c-0.6-0.7-1-1.5-1-2.3c0-0.9,0.4-1.7,1-2.3L29,46.4
		c0.9-2.3,3.6-8.6,8-14.7c6.2-8.5,13.1-12.7,20.5-12.6c8.5,0.2,22.2,14.1,22.2,22.4c0,3.4-2,7.1-6.3,11.8c0,2.9-1,5.7-2.8,7.9
		c-6.2,7.7-15,9.1-18.4,9.3l-9.9,9.9C41.8,81.2,41,81.5,40.1,81.5 M57.1,22.5C42.2,22.5,33,45.3,32,47.9l-0.1,0.3L21.1,59.1l19,19.1
		l10.7-10.8l0.7,0c2.4-0.1,10.8-0.9,16.6-8.1c1.4-1.8,2.2-4.1,2-6.4l0-0.7l0.5-0.5c3.9-4.1,5.9-7.5,5.9-10c0-6.6-12.2-18.9-19-19.1
		C57.3,22.5,57.2,22.5,57.1,22.5"/>
	
		<rect x="39.8" y="42.8" transform="matrix(0.7164 -0.6977 0.6977 0.7164 -28.5227 45.3051)" class="st1" width="3.4" height="29.9"/>
	<path class="st1" d="M60.2,55.6c-0.8,0-1.5-0.6-1.6-1.4c-0.5-2.9,0.9-6.7,3.5-8.8c2-1.7,4.4-2.1,6.7-1.2c1.6,0.6,2.9,2,3.6,3.8
		c0.6,1.5,0.9,3,1.1,4.4c0.1,0.9-0.5,1.8-1.4,1.9c-0.9,0.1-1.8-0.5-1.9-1.4c-0.2-1.2-0.4-2.5-0.9-3.5c-0.4-1-1.1-1.7-1.8-2
		c-1.1-0.5-2.3-0.2-3.3,0.6c-1.6,1.3-2.6,3.8-2.3,5.6c0.2,0.9-0.4,1.8-1.3,2C60.4,55.6,60.3,55.6,60.2,55.6"/>
	<path class="st1" d="M60.1,50.6C60.1,50.6,60,50.6,60.1,50.6c-5.7-0.2-8.4-3.8-10.8-6.9c-4-5.3-1.1-11.6,3.5-15.5
		c0.7-0.6,1.8-0.5,2.4,0.2c0.6,0.7,0.5,1.8-0.2,2.4c-3.2,2.7-5.9,7.2-3,10.9c2.6,3.4,4.5,5.5,8.2,5.6c0.9,0,1.7,0.8,1.6,1.7
		C61.7,49.9,61,50.6,60.1,50.6"/>
	<path class="st0" d="M49.5,96.5c-25.9,0-47-21.1-47-47c0-25.9,21.1-47,47-47c25.9,0,47,21.1,47,47C96.5,75.4,75.4,96.5,49.5,96.5
		 M49.5,5.8C25.4,5.8,5.8,25.4,5.8,49.5c0,24.1,19.6,43.7,43.7,43.7c24.1,0,43.7-19.6,43.7-43.7C93.2,25.4,73.6,5.8,49.5,5.8"/>
</g>
</svg>
