<?xml version="1.0" encoding="utf-8"?>
<!-- Generator: Adobe Illustrator 23.0.0, SVG Export Plug-In . SVG Version: 6.00 Build 0)  -->
<svg version="1.1" id="Layer_1" xmlns="http://www.w3.org/2000/svg" xmlns:xlink="http://www.w3.org/1999/xlink" x="0px" y="0px"
	 viewBox="0 0 99 99" style="enable-background:new 0 0 99 99;" xml:space="preserve">
<g>
	<path d="M49.5,96.5c-25.9,0-47-21.1-47-47c0-25.9,21.1-47,47-47c25.9,0,47,21.1,47,47C96.5,75.4,75.4,96.5,49.5,96.5 M49.5,5.8
		C25.4,5.8,5.8,25.4,5.8,49.5c0,24.1,19.6,43.7,43.7,43.7c24.1,0,43.7-19.6,43.7-43.7C93.2,25.4,73.6,5.8,49.5,5.8"/>
	<path d="M63.4,19.1L63.4,19.1l-40.2,0v0c-0.9,0-1.7,0.7-1.7,1.7c0,0.9,0.7,1.7,1.7,1.7h40.2c0.9,0,1.7-0.7,1.7-1.7
		C65,19.9,64.3,19.1,63.4,19.1"/>
	<path d="M71.9,23.9L71.9,23.9l-40.2,0v0c-0.9,0-1.7,0.8-1.7,1.7c0,0.9,0.7,1.7,1.7,1.7h40.2c0.9,0,1.7-0.8,1.7-1.7
		C73.5,24.7,72.8,23.9,71.9,23.9"/>
	<path d="M74.2,28.7L74.2,28.7l-40.2,0v0c-0.9,0-1.7,0.7-1.7,1.7s0.7,1.7,1.7,1.7h40.2c0.9,0,1.7-0.7,1.7-1.7S75.2,28.7,74.2,28.7"
		/>
	<path d="M75.2,33.5L75.2,33.5l-40.2,0v0c-0.9,0-1.7,0.8-1.7,1.7c0,0.9,0.7,1.7,1.7,1.7h40.2c0.9,0,1.7-0.8,1.7-1.7
		C76.9,34.3,76.2,33.5,75.2,33.5"/>
	<path d="M75,38.3L75,38.3l-40.2,0v0c-0.9,0-1.7,0.7-1.7,1.7c0,0.9,0.7,1.7,1.7,1.7H75c0.9,0,1.7-0.7,1.7-1.7
		C76.7,39.1,76,38.3,75,38.3"/>
	<path d="M71,43.1L71,43.1l-40.2,0v0c-0.9,0-1.7,0.8-1.7,1.7c0,0.9,0.8,1.7,1.7,1.7H71c0.9,0,1.7-0.8,1.7-1.7
		C72.7,43.9,71.9,43.1,71,43.1"/>
	<path d="M67.1,47.9L67.1,47.9l-40.2,0v0c-0.9,0-1.7,0.7-1.7,1.7c0,0.9,0.7,1.7,1.7,1.7h40.2c0.9,0,1.7-0.7,1.7-1.7
		C68.8,48.6,68,47.9,67.1,47.9"/>
	<path d="M73.9,52.7L73.9,52.7l-42.2,0v0c-0.9,0-1.7,0.8-1.7,1.7c0,0.9,0.7,1.7,1.7,1.7h42.2c0.9,0,1.7-0.8,1.7-1.7
		C75.6,53.4,74.8,52.7,73.9,52.7"/>
	<path d="M78.5,57.5L78.5,57.5l-42.2,0v0c-0.9,0-1.7,0.7-1.7,1.7c0,0.9,0.7,1.7,1.7,1.7h42.2c0.9,0,1.7-0.7,1.7-1.7
		C80.2,58.2,79.4,57.5,78.5,57.5"/>
	<path d="M78.4,62.3L78.4,62.3l-42.2,0v0c-0.9,0-1.7,0.8-1.7,1.7c0,0.9,0.8,1.7,1.7,1.7h42.2c0.9,0,1.7-0.8,1.7-1.7
		C80,63,79.3,62.3,78.4,62.3"/>
	<path d="M78.4,67.1L78.4,67.1l-44.2,0v0c-0.9,0-1.7,0.8-1.7,1.7c0,0.9,0.7,1.7,1.7,1.7h44.2c0.9,0,1.7-0.7,1.7-1.7
		C80,67.8,79.3,67.1,78.4,67.1"/>
	<path d="M76.4,71.9L76.4,71.9l-44.2,0v0c-0.9,0-1.7,0.7-1.7,1.7c0,0.9,0.7,1.7,1.7,1.7h44.2c0.9,0,1.7-0.8,1.7-1.7
		C78,72.6,77.3,71.9,76.4,71.9"/>
	<path d="M70.6,76.6L70.6,76.6l-46.2,0v0c-0.9,0-1.7,0.8-1.7,1.7c0,0.9,0.7,1.7,1.7,1.7h46.2c0.9,0,1.7-0.7,1.7-1.7
		C72.3,77.4,71.5,76.6,70.6,76.6"/>
</g>
</svg>
