<?xml version="1.0" encoding="utf-8"?>
<!-- Generator: Adobe Illustrator 23.0.0, SVG Export Plug-In . SVG Version: 6.00 Build 0)  -->
<svg version="1.1" id="Layer_1" xmlns="http://www.w3.org/2000/svg" xmlns:xlink="http://www.w3.org/1999/xlink" x="0px" y="0px"
	 viewBox="0 0 99 99" style="enable-background:new 0 0 99 99;" xml:space="preserve">
<path d="M49.5,5.8C25.4,5.8,5.8,25.4,5.8,49.5c0,24.1,19.6,43.7,43.7,43.7s43.7-19.6,43.7-43.7C93.2,25.4,73.6,5.8,49.5,5.8z
	 M49.5,96.5c-25.9,0-47-21.1-47-47c0-25.9,21.1-47,47-47s47,21.1,47,47C96.5,75.4,75.4,96.5,49.5,96.5z M40.5,77.1
	c-3.1,0-5.6-1.5-5.6-4.1c0-1,0.5-3.1,3.1-3.1c3,0,3.5,3.9,6.2,3.9c4.9,0,11-4.7,12.2-9.4c1.7-6.5,1.6-13.2,1.6-18.3
	c0-4.6-0.5-8-1.3-12.7c-0.1-0.4-0.2-0.9-0.6-0.9c-0.7,0-2.9,3-6,7L49.6,39c3.6-6.5,8-11.7,10.6-11.7c1.5,0,2,1,2.5,3.1
	c0.4,1.9,1.3,6.3,1.3,13.5c0,3.7,0.1,8.1-0.7,14c5.2-7.5,9.8-15.4,9.8-20.8c0-3.6-2.1-4.2-2.1-6.7c0-1.7,1.1-3.1,2.8-3.1
	c2.3,0,3.2,1.5,3.2,4.1c0,1.5-0.2,4.1-1.5,7.6c-2.7,7.2-6.6,13.2-13.2,22.8C54.7,72,45.6,77.1,40.5,77.1L40.5,77.1z M36.4,66.3
	c-6.7,0-9.8-2.4-10.1-2.4c-0.2,0-1,1.1-1.6,1.9h-0.5l-0.2-10.9h0.5c1.2,3.6,4.2,7.6,6.6,9c1.1,0.7,3.1,1.5,5,1.5c4.7,0,8-2.9,8-7.5
	c0-3.7-2.6-5.4-5.9-6.6c-2.7-1-4.5-1.5-7.3-2.7c-3.8-1.5-6.7-4.9-6.7-9.4c0-7.4,6.2-10.9,12.6-10.9c6.2,0,8.8,2.6,9.2,2.6
	c0.2,0,1-1.1,1.5-1.9h0.6v10.1h-0.6c-1.7-4.6-5.5-9.9-10.4-9.9c-4.2,0-7.4,2.8-7.4,7c0,3.5,2.6,5.5,5.9,6.7c2.3,0.9,4.4,1.6,6.9,2.6
	c4.8,1.8,7.5,4.9,7.5,9.9C50,62.2,44.1,66.3,36.4,66.3z"/>
</svg>
