<svg id="Layer_1" data-name="Layer 1" xmlns="http://www.w3.org/2000/svg" xmlns:xlink="http://www.w3.org/1999/xlink" viewBox="0 0 505.5 558.69"><defs><style>.cls-1{fill:url(#linear-gradient);}.cls-2{fill:url(#linear-gradient-2);}.cls-3{fill:url(#linear-gradient-3);}.cls-4{fill:url(#linear-gradient-4);}.cls-5{fill:url(#linear-gradient-5);}.cls-6{fill:url(#linear-gradient-6);}.cls-7{fill:url(#linear-gradient-7);}.cls-8{fill:url(#linear-gradient-8);}.cls-9{fill:url(#linear-gradient-9);}.cls-10{fill:url(#linear-gradient-10);}.cls-11{fill:url(#linear-gradient-11);}.cls-12{fill:url(#linear-gradient-12);}.cls-13{fill:url(#linear-gradient-13);}.cls-14{fill:url(#linear-gradient-14);}.cls-15{fill:url(#linear-gradient-15);}.cls-16{fill:url(#linear-gradient-16);}.cls-17{fill:url(#linear-gradient-17);}.cls-18{fill:url(#linear-gradient-18);}.cls-19{fill:url(#linear-gradient-19);}.cls-20{fill:url(#linear-gradient-20);}.cls-21{fill:url(#linear-gradient-21);}.cls-22{fill:url(#linear-gradient-22);}.cls-23{fill:url(#linear-gradient-23);}.cls-24{fill:url(#linear-gradient-24);}.cls-25{fill:url(#linear-gradient-25);}.cls-26{fill:url(#linear-gradient-26);}.cls-27{fill:url(#linear-gradient-27);}.cls-28{fill:url(#linear-gradient-28);}.cls-29{fill:url(#linear-gradient-29);}.cls-30{fill:url(#linear-gradient-30);}.cls-31{fill:url(#linear-gradient-31);}.cls-32{fill:url(#linear-gradient-32);}.cls-33{fill:url(#linear-gradient-33);}.cls-34{fill:url(#linear-gradient-34);}.cls-35{fill:url(#linear-gradient-35);}.cls-36{fill:url(#linear-gradient-36);}.cls-37{fill:url(#linear-gradient-37);}.cls-38{fill:url(#linear-gradient-38);}.cls-39{fill:url(#linear-gradient-39);}.cls-40{fill:url(#linear-gradient-40);}.cls-41{fill:url(#linear-gradient-41);}.cls-42{fill:url(#linear-gradient-42);}.cls-43{fill:url(#linear-gradient-43);}.cls-44{fill:url(#linear-gradient-44);}.cls-45{fill:url(#linear-gradient-45);}.cls-46{fill:url(#linear-gradient-46);}.cls-47{fill:url(#linear-gradient-47);}.cls-48{fill:url(#linear-gradient-48);}.cls-49{fill:url(#linear-gradient-49);}.cls-50{fill:url(#linear-gradient-50);}.cls-51{fill:url(#linear-gradient-51);}.cls-52{fill:url(#linear-gradient-52);}.cls-53{fill:url(#linear-gradient-53);}.cls-54{fill:url(#linear-gradient-54);}.cls-55{fill:url(#linear-gradient-55);}.cls-56{fill:url(#linear-gradient-56);}.cls-57{fill:url(#linear-gradient-57);}.cls-58{fill:url(#linear-gradient-58);}.cls-59{fill:url(#linear-gradient-59);}.cls-60{fill:url(#linear-gradient-60);}.cls-61{fill:url(#linear-gradient-61);}.cls-62{fill:url(#linear-gradient-62);}.cls-63{fill:url(#linear-gradient-63);}.cls-64{fill:url(#linear-gradient-64);}.cls-65{fill:url(#linear-gradient-65);}.cls-66{fill:url(#linear-gradient-66);}.cls-67{fill:#1b3e6e;}.cls-68{fill:#0094c9;}.cls-69{fill:none;}</style><linearGradient id="linear-gradient" x1="22.63" y1="130.9" x2="243.51" y2="130.9" gradientUnits="userSpaceOnUse"><stop offset="0" stop-color="#fff" stop-opacity="0"/><stop offset="1" stop-color="#0094c9"/></linearGradient><linearGradient id="linear-gradient-2" x1="74.15" y1="136.79" x2="256.62" y2="136.79" gradientUnits="userSpaceOnUse"><stop offset="0" stop-color="#1b3e6e" stop-opacity="0"/><stop offset="1" stop-color="#1b3e6e"/></linearGradient><linearGradient id="linear-gradient-3" x1="63.12" y1="149.89" x2="283.99" y2="149.89" gradientUnits="userSpaceOnUse"><stop offset="0" stop-color="#fff" stop-opacity="0"/><stop offset="1" stop-color="#1b3e6e"/></linearGradient><linearGradient id="linear-gradient-4" x1="92.01" y1="157.68" x2="283.99" y2="157.68" xlink:href="#linear-gradient-3"/><linearGradient id="linear-gradient-5" x1="96.31" y1="180.27" x2="288.3" y2="180.27" xlink:href="#linear-gradient-3"/><linearGradient id="linear-gradient-6" x1="86.29" y1="174.91" x2="289.71" y2="174.91" xlink:href="#linear-gradient-2"/><linearGradient id="linear-gradient-7" x1="61.68" y1="165.55" x2="286.37" y2="165.55" xlink:href="#linear-gradient-3"/><linearGradient id="linear-gradient-8" x1="46.77" y1="142.68" x2="267.64" y2="142.68" xlink:href="#linear-gradient-3"/><linearGradient id="linear-gradient-9" x1="63.11" y1="185.45" x2="289.71" y2="185.45" xlink:href="#linear-gradient-3"/><linearGradient id="linear-gradient-10" x1="62.7" y1="193.25" x2="289.71" y2="193.25" xlink:href="#linear-gradient-3"/><linearGradient id="linear-gradient-11" x1="60.64" y1="205.11" x2="288.3" y2="205.11" xlink:href="#linear-gradient"/><linearGradient id="linear-gradient-12" x1="77.56" y1="214.73" x2="283.54" y2="214.73" xlink:href="#linear-gradient-3"/><linearGradient id="linear-gradient-13" x1="57.94" y1="243.83" x2="261.1" y2="243.83" xlink:href="#linear-gradient"/><linearGradient id="linear-gradient-14" x1="55.08" y1="230.38" x2="275.69" y2="230.38" xlink:href="#linear-gradient-2"/><linearGradient id="linear-gradient-15" x1="38.31" y1="220.57" x2="284" y2="220.57" xlink:href="#linear-gradient-2"/><linearGradient id="linear-gradient-16" x1="54.95" y1="196.38" x2="275.82" y2="196.38" xlink:href="#linear-gradient-3"/><linearGradient id="linear-gradient-17" x1="1.57" y1="8.02" x2="222.45" y2="8.02" xlink:href="#linear-gradient-3"/><linearGradient id="linear-gradient-18" x1="54.42" y1="8.02" x2="236.9" y2="8.02" xlink:href="#linear-gradient-3"/><linearGradient id="linear-gradient-19" x1="40.22" y1="21.29" x2="261.1" y2="21.29" xlink:href="#linear-gradient-3"/><linearGradient id="linear-gradient-20" x1="75.99" y1="29.67" x2="271.12" y2="29.67" xlink:href="#linear-gradient"/><linearGradient id="linear-gradient-21" x1="92.01" y1="59.37" x2="283.99" y2="59.37" xlink:href="#linear-gradient"/><linearGradient id="linear-gradient-22" x1="77.56" y1="49.47" x2="280.98" y2="49.47" xlink:href="#linear-gradient-2"/><linearGradient id="linear-gradient-23" x1="53.04" y1="41.09" x2="277.73" y2="41.09" xlink:href="#linear-gradient-3"/><linearGradient id="linear-gradient-24" x1="4.47" y1="5.77" x2="225.35" y2="5.77" xlink:href="#linear-gradient-2"/><linearGradient id="linear-gradient-25" x1="63.12" y1="65.96" x2="283.99" y2="65.96" xlink:href="#linear-gradient-3"/><linearGradient id="linear-gradient-26" x1="62.7" y1="74.16" x2="283.54" y2="74.16" xlink:href="#linear-gradient-2"/><linearGradient id="linear-gradient-27" x1="54.95" y1="93.34" x2="275.82" y2="93.34" xlink:href="#linear-gradient"/><linearGradient id="linear-gradient-28" x1="72.61" y1="102.53" x2="264.6" y2="102.53" xlink:href="#linear-gradient-3"/><linearGradient id="linear-gradient-29" x1="42.91" y1="123.9" x2="234.89" y2="123.9" xlink:href="#linear-gradient-3"/><linearGradient id="linear-gradient-30" x1="31.36" y1="118.64" x2="244.68" y2="118.64" xlink:href="#linear-gradient-3"/><linearGradient id="linear-gradient-31" x1="34.34" y1="110.73" x2="259.03" y2="110.73" xlink:href="#linear-gradient"/><linearGradient id="linear-gradient-32" x1="60.64" y1="84.15" x2="281.52" y2="84.15" xlink:href="#linear-gradient-3"/><linearGradient id="linear-gradient-33" x1="45.62" y1="238.16" x2="270.3" y2="238.16" xlink:href="#linear-gradient-3"/><linearGradient id="linear-gradient-34" x1="11.09" y1="136.11" x2="231.96" y2="136.11" xlink:href="#linear-gradient"/><linearGradient id="linear-gradient-35" x1="62.6" y1="142" x2="245.08" y2="142" xlink:href="#linear-gradient-2"/><linearGradient id="linear-gradient-36" x1="51.57" y1="155.1" x2="272.44" y2="155.1" xlink:href="#linear-gradient-3"/><linearGradient id="linear-gradient-37" x1="85.49" y1="162.89" x2="277.48" y2="162.89" xlink:href="#linear-gradient-3"/><linearGradient id="linear-gradient-38" x1="84.76" y1="185.48" x2="276.75" y2="185.48" xlink:href="#linear-gradient-3"/><linearGradient id="linear-gradient-39" x1="74.74" y1="180.12" x2="278.16" y2="180.12" xlink:href="#linear-gradient-2"/><linearGradient id="linear-gradient-40" x1="58.19" y1="170.76" x2="282.88" y2="170.76" xlink:href="#linear-gradient-3"/><linearGradient id="linear-gradient-41" x1="41.26" y1="147.89" x2="262.14" y2="147.89" xlink:href="#linear-gradient-3"/><linearGradient id="linear-gradient-42" x1="57.61" y1="190.66" x2="284.21" y2="190.66" xlink:href="#linear-gradient-3"/><linearGradient id="linear-gradient-43" x1="51.15" y1="198.46" x2="278.16" y2="198.46" xlink:href="#linear-gradient-3"/><linearGradient id="linear-gradient-44" x1="54.13" y1="210.32" x2="281.79" y2="210.32" xlink:href="#linear-gradient"/><linearGradient id="linear-gradient-45" x1="66.01" y1="219.94" x2="272" y2="219.94" xlink:href="#linear-gradient-3"/><linearGradient id="linear-gradient-46" x1="46.4" y1="249.04" x2="249.55" y2="249.04" xlink:href="#linear-gradient"/><linearGradient id="linear-gradient-47" x1="48.57" y1="235.59" x2="269.17" y2="235.59" xlink:href="#linear-gradient-2"/><linearGradient id="linear-gradient-48" x1="43.4" y1="202.59" x2="264.27" y2="202.59" xlink:href="#linear-gradient-3"/><linearGradient id="linear-gradient-49" x1="32.8" y1="225.79" x2="278.49" y2="225.79" xlink:href="#linear-gradient-2"/><linearGradient id="linear-gradient-50" x1="-22.82" y1="1.63" x2="198.06" y2="1.63" xlink:href="#linear-gradient-3"/><linearGradient id="linear-gradient-51" x1="42.87" y1="13.23" x2="225.35" y2="13.23" xlink:href="#linear-gradient-3"/><linearGradient id="linear-gradient-52" x1="28.67" y1="26.5" x2="249.55" y2="26.5" xlink:href="#linear-gradient-3"/><linearGradient id="linear-gradient-53" x1="71.05" y1="34.88" x2="263.04" y2="34.88" xlink:href="#linear-gradient"/><linearGradient id="linear-gradient-54" x1="80.46" y1="64.59" x2="272.44" y2="64.59" xlink:href="#linear-gradient"/><linearGradient id="linear-gradient-55" x1="71.05" y1="54.68" x2="274.47" y2="54.68" xlink:href="#linear-gradient-2"/><linearGradient id="linear-gradient-56" x1="41.49" y1="46.3" x2="266.18" y2="46.3" xlink:href="#linear-gradient-3"/><linearGradient id="linear-gradient-57" x1="1.57" y1="16.83" x2="222.45" y2="16.83" xlink:href="#linear-gradient-2"/><linearGradient id="linear-gradient-58" x1="51.57" y1="71.17" x2="272.44" y2="71.17" xlink:href="#linear-gradient-3"/><linearGradient id="linear-gradient-59" x1="55.18" y1="79.37" x2="276.02" y2="79.37" xlink:href="#linear-gradient-2"/><linearGradient id="linear-gradient-60" x1="43.4" y1="98.55" x2="264.27" y2="98.55" xlink:href="#linear-gradient"/><linearGradient id="linear-gradient-61" x1="64.08" y1="107.74" x2="256.07" y2="107.74" xlink:href="#linear-gradient-3"/><linearGradient id="linear-gradient-62" x1="31.36" y1="129.11" x2="223.35" y2="129.11" xlink:href="#linear-gradient-3"/><linearGradient id="linear-gradient-63" x1="19.81" y1="123.85" x2="233.14" y2="123.85" xlink:href="#linear-gradient-3"/><linearGradient id="linear-gradient-64" x1="22.79" y1="115.94" x2="247.48" y2="115.94" xlink:href="#linear-gradient"/><linearGradient id="linear-gradient-65" x1="49.09" y1="89.36" x2="269.97" y2="89.36" xlink:href="#linear-gradient-3"/><linearGradient id="linear-gradient-66" x1="34.07" y1="243.37" x2="258.75" y2="243.37" xlink:href="#linear-gradient-3"/></defs><title>sy-footer-logo</title><path class="cls-1" d="M243.51,129.27H22.63a1.63,1.63,0,0,0,0,3.26H243.51a1.63,1.63,0,0,0,0-3.26Z" transform="translate(75.52 76.37)"/><path class="cls-2" d="M256.62,135.16H74.15a1.63,1.63,0,0,0,0,3.26H256.62a1.63,1.63,0,0,0,0-3.26Z" transform="translate(75.52 76.37)"/><path class="cls-3" d="M284,148.26H63.12a1.63,1.63,0,0,0,0,3.26H284a1.63,1.63,0,0,0,0-3.26Z" transform="translate(75.52 76.37)"/><path class="cls-4" d="M92,159.31H284a1.63,1.63,0,0,0,0-3.26H92a1.63,1.63,0,0,0,0,3.26Z" transform="translate(75.52 76.37)"/><path class="cls-5" d="M96.31,181.9h192a1.63,1.63,0,0,0,0-3.26h-192a1.63,1.63,0,0,0,0,3.26Z" transform="translate(75.52 76.37)"/><path class="cls-6" d="M86.29,176.54H289.71a1.63,1.63,0,0,0,0-3.25H86.29a1.63,1.63,0,0,0,0,3.25Z" transform="translate(75.52 76.37)"/><path class="cls-7" d="M61.68,167.18H286.37a1.63,1.63,0,0,0,0-3.26H61.68a1.63,1.63,0,0,0,0,3.26Z" transform="translate(75.52 76.37)"/><path class="cls-8" d="M267.64,141.05H46.77a1.63,1.63,0,0,0,0,3.26H267.64a1.63,1.63,0,0,0,0-3.26Z" transform="translate(75.52 76.37)"/><path class="cls-9" d="M289.71,184.55,213,184.06,91,183.27l-27.83-.18a1.63,1.63,0,0,0,0,3.26l76.68.5,122.08.78,27.83.18a1.63,1.63,0,0,0,0-3.26Z" transform="translate(75.52 76.37)"/><path class="cls-10" d="M289.71,191.62H62.7a1.63,1.63,0,0,0,0,3.26h227a1.63,1.63,0,0,0,0-3.26Z" transform="translate(75.52 76.37)"/><path class="cls-11" d="M288.3,203.48H60.64a1.63,1.63,0,0,0,0,3.26H288.3a1.63,1.63,0,0,0,0-3.26Z" transform="translate(75.52 76.37)"/><path class="cls-12" d="M77.56,216.35h206a1.63,1.63,0,0,0,0-3.25h-206a1.63,1.63,0,0,0,0,3.25Z" transform="translate(75.52 76.37)"/><path class="cls-13" d="M57.94,245.46H261.1a1.63,1.63,0,0,0,0-3.26H57.94a1.63,1.63,0,0,0,0,3.26Z" transform="translate(75.52 76.37)"/><path class="cls-14" d="M55.08,232H275.69a1.63,1.63,0,0,0,0-3.26H55.08a1.63,1.63,0,0,0,0,3.26Z" transform="translate(75.52 76.37)"/><path class="cls-15" d="M38.31,223.59l82.84-.93,132.57-1.5,30.27-.34c2.1,0,2.1-3.29,0-3.26l-82.83.93L68.59,220l-30.28.34c-2.09,0-2.1,3.29,0,3.26Z" transform="translate(75.52 76.37)"/><path class="cls-16" d="M275.82,194.75H55A1.63,1.63,0,0,0,55,198H275.82a1.63,1.63,0,0,0,0-3.26Z" transform="translate(75.52 76.37)"/><path class="cls-17" d="M222.45,6.4H1.57a1.63,1.63,0,0,0,0,3.25H222.45a1.63,1.63,0,0,0,0-3.25Z" transform="translate(75.52 76.37)"/><path class="cls-18" d="M236.9,6.4H54.42a1.63,1.63,0,0,0,0,3.25H236.9a1.63,1.63,0,0,0,0-3.25Z" transform="translate(75.52 76.37)"/><path class="cls-19" d="M261.1,19.66H40.22a1.63,1.63,0,0,0,0,3.26H261.1a1.63,1.63,0,0,0,0-3.26Z" transform="translate(75.52 76.37)"/><path class="cls-20" d="M77.56,31.3h192a1.63,1.63,0,0,0,0-3.26h-192a1.63,1.63,0,0,0,0,3.26Z" transform="translate(75.52 76.37)"/><path class="cls-21" d="M92,61H284a1.63,1.63,0,0,0,0-3.25H92A1.63,1.63,0,0,0,92,61Z" transform="translate(75.52 76.37)"/><path class="cls-22" d="M77.56,51.1H281a1.63,1.63,0,0,0,0-3.26H77.56a1.63,1.63,0,0,0,0,3.26Z" transform="translate(75.52 76.37)"/><path class="cls-23" d="M53,42.72H277.73a1.63,1.63,0,0,0,0-3.26H53a1.63,1.63,0,0,0,0,3.26Z" transform="translate(75.52 76.37)"/><path class="cls-24" d="M225.35,4.14H4.47a1.63,1.63,0,0,0,0,3.25H225.35a1.63,1.63,0,0,0,0-3.25Z" transform="translate(75.52 76.37)"/><path class="cls-25" d="M284,64.33H63.12a1.63,1.63,0,0,0,0,3.26H284a1.63,1.63,0,0,0,0-3.26Z" transform="translate(75.52 76.37)"/><path class="cls-26" d="M283.54,72.53H62.7a1.63,1.63,0,0,0,0,3.26H283.54a1.63,1.63,0,0,0,0-3.26Z" transform="translate(75.52 76.37)"/><path class="cls-27" d="M275.82,91.71H55A1.63,1.63,0,0,0,55,95H275.82a1.63,1.63,0,0,0,0-3.26Z" transform="translate(75.52 76.37)"/><path class="cls-28" d="M72.61,104.16h192a1.63,1.63,0,0,0,0-3.26h-192a1.63,1.63,0,0,0,0,3.26Z" transform="translate(75.52 76.37)"/><path class="cls-29" d="M42.91,125.53h192a1.63,1.63,0,0,0,0-3.26h-192a1.63,1.63,0,0,0,0,3.26Z" transform="translate(75.52 76.37)"/><path class="cls-30" d="M31.36,120.27H244.68a1.63,1.63,0,0,0,0-3.26H31.36a1.63,1.63,0,0,0,0,3.26Z" transform="translate(75.52 76.37)"/><path class="cls-31" d="M34.34,112.35H259a1.63,1.63,0,0,0,0-3.25H34.34a1.63,1.63,0,0,0,0,3.25Z" transform="translate(75.52 76.37)"/><path class="cls-32" d="M281.52,82.52H60.64a1.63,1.63,0,0,0,0,3.26H281.52a1.63,1.63,0,0,0,0-3.26Z" transform="translate(75.52 76.37)"/><path class="cls-33" d="M45.62,239.79H270.3a1.63,1.63,0,0,0,0-3.26H45.62a1.63,1.63,0,0,0,0,3.26Z" transform="translate(75.52 76.37)"/><path class="cls-34" d="M232,134.48H11.09a1.63,1.63,0,0,0,0,3.26H232a1.63,1.63,0,0,0,0-3.26Z" transform="translate(75.52 76.37)"/><path class="cls-35" d="M245.08,140.37H62.6a1.63,1.63,0,0,0,0,3.26H245.08a1.63,1.63,0,0,0,0-3.26Z" transform="translate(75.52 76.37)"/><path class="cls-36" d="M272.44,153.47H51.57a1.63,1.63,0,0,0,0,3.26H272.44a1.63,1.63,0,0,0,0-3.26Z" transform="translate(75.52 76.37)"/><path class="cls-37" d="M85.49,164.52h192a1.63,1.63,0,0,0,0-3.26h-192a1.63,1.63,0,0,0,0,3.26Z" transform="translate(75.52 76.37)"/><path class="cls-38" d="M84.76,187.11h192a1.63,1.63,0,0,0,0-3.26h-192a1.63,1.63,0,0,0,0,3.26Z" transform="translate(75.52 76.37)"/><path class="cls-39" d="M74.74,181.75H278.16a1.63,1.63,0,0,0,0-3.25H74.74a1.63,1.63,0,0,0,0,3.25Z" transform="translate(75.52 76.37)"/><path class="cls-40" d="M58.19,172.39H282.88a1.63,1.63,0,0,0,0-3.25H58.19a1.63,1.63,0,0,0,0,3.25Z" transform="translate(75.52 76.37)"/><path class="cls-41" d="M262.14,146.26H41.26a1.63,1.63,0,0,0,0,3.26H262.14a1.63,1.63,0,0,0,0-3.26Z" transform="translate(75.52 76.37)"/><path class="cls-42" d="M284.2,189.76l-76.68-.49-122.08-.79-27.83-.18a1.63,1.63,0,0,0,0,3.26l76.68.5,122.09.78,27.82.18a1.63,1.63,0,0,0,0-3.26Z" transform="translate(75.52 76.37)"/><path class="cls-43" d="M278.16,196.83h-227a1.63,1.63,0,0,0,0,3.26h227a1.63,1.63,0,0,0,0-3.26Z" transform="translate(75.52 76.37)"/><path class="cls-44" d="M281.79,208.69H54.13a1.63,1.63,0,0,0,0,3.26H281.79a1.63,1.63,0,0,0,0-3.26Z" transform="translate(75.52 76.37)"/><path class="cls-45" d="M66,221.57H272a1.63,1.63,0,0,0,0-3.26H66a1.63,1.63,0,0,0,0,3.26Z" transform="translate(75.52 76.37)"/><path class="cls-46" d="M46.4,250.67H249.55a1.63,1.63,0,0,0,0-3.26H46.4a1.63,1.63,0,0,0,0,3.26Z" transform="translate(75.52 76.37)"/><path class="cls-47" d="M48.57,237.22h220.6a1.63,1.63,0,0,0,0-3.26H48.57a1.63,1.63,0,0,0,0,3.26Z" transform="translate(75.52 76.37)"/><path class="cls-48" d="M264.27,201H43.4a1.63,1.63,0,0,0,0,3.26H264.27a1.63,1.63,0,0,0,0-3.26Z" transform="translate(75.52 76.37)"/><path class="cls-49" d="M32.81,228.8l82.83-.93,132.57-1.5,30.28-.34c2.09,0,2.1-3.29,0-3.26l-82.84.93L63.08,225.2l-30.27.34c-2.1,0-2.1,3.29,0,3.26Z" transform="translate(75.52 76.37)"/><path class="cls-50" d="M198.06,0H-22.82a1.63,1.63,0,0,0,0,3.26H198.06a1.63,1.63,0,0,0,0-3.26Z" transform="translate(75.52 76.37)"/><path class="cls-51" d="M225.35,11.61H42.87a1.63,1.63,0,0,0,0,3.25H225.35a1.63,1.63,0,0,0,0-3.25Z" transform="translate(75.52 76.37)"/><path class="cls-52" d="M249.55,24.87H28.67a1.63,1.63,0,0,0,0,3.26H249.55a1.63,1.63,0,0,0,0-3.26Z" transform="translate(75.52 76.37)"/><path class="cls-53" d="M71.05,36.51H263a1.63,1.63,0,0,0,0-3.26h-192a1.63,1.63,0,0,0,0,3.26Z" transform="translate(75.52 76.37)"/><path class="cls-54" d="M80.46,66.21h192a1.63,1.63,0,0,0,0-3.25h-192a1.63,1.63,0,0,0,0,3.25Z" transform="translate(75.52 76.37)"/><path class="cls-55" d="M71.05,56.31H274.47a1.63,1.63,0,0,0,0-3.26H71.05a1.63,1.63,0,0,0,0,3.26Z" transform="translate(75.52 76.37)"/><path class="cls-56" d="M41.49,47.93H266.18a1.63,1.63,0,0,0,0-3.26H41.49a1.63,1.63,0,0,0,0,3.26Z" transform="translate(75.52 76.37)"/><path class="cls-57" d="M222.45,15.2H1.57a1.63,1.63,0,0,0,0,3.26H222.45a1.63,1.63,0,0,0,0-3.26Z" transform="translate(75.52 76.37)"/><path class="cls-58" d="M272.44,69.54H51.57a1.63,1.63,0,0,0,0,3.26H272.44a1.63,1.63,0,0,0,0-3.26Z" transform="translate(75.52 76.37)"/><path class="cls-59" d="M276,77.74H55.18a1.63,1.63,0,0,0,0,3.26H276a1.63,1.63,0,0,0,0-3.26Z" transform="translate(75.52 76.37)"/><path class="cls-60" d="M264.27,96.92H43.4a1.63,1.63,0,0,0,0,3.26H264.27a1.63,1.63,0,0,0,0-3.26Z" transform="translate(75.52 76.37)"/><path class="cls-61" d="M64.08,109.37h192a1.63,1.63,0,0,0,0-3.26h-192a1.63,1.63,0,0,0,0,3.26Z" transform="translate(75.52 76.37)"/><path class="cls-62" d="M31.36,130.74h192a1.63,1.63,0,0,0,0-3.26h-192a1.63,1.63,0,0,0,0,3.26Z" transform="translate(75.52 76.37)"/><path class="cls-63" d="M19.81,125.48H233.14a1.63,1.63,0,0,0,0-3.26H19.81a1.63,1.63,0,0,0,0,3.26Z" transform="translate(75.52 76.37)"/><path class="cls-64" d="M22.79,117.56H247.48a1.63,1.63,0,0,0,0-3.25H22.79a1.63,1.63,0,0,0,0,3.25Z" transform="translate(75.52 76.37)"/><path class="cls-65" d="M270,87.73H49.09a1.63,1.63,0,0,0,0,3.26H270a1.63,1.63,0,0,0,0-3.26Z" transform="translate(75.52 76.37)"/><path class="cls-66" d="M34.07,245H258.75a1.63,1.63,0,0,0,0-3.26H34.07a1.63,1.63,0,0,0,0,3.26Z" transform="translate(75.52 76.37)"/><path class="cls-67" d="M.85,271h8.5v28.79h.27a9.87,9.87,0,0,1,4.12-4.11,12.41,12.41,0,0,1,5.62-1.24c5.9,0,9.73,4.94,9.73,11.66v50.18c0,11.24-5.48,14.53-11,14.53-5.08,0-7-2.6-9-5.48H8.8V370h-8Zm19.74,39.76c0-5.49-1.64-8.64-5.07-8.64-3.7,0-6.17,3.56-6.17,8.23V355.7c0,6,2.88,8.23,6.31,8.23s4.93-2.75,4.93-8Z" transform="translate(75.52 76.37)"/><path class="cls-67" d="M38.69,295.23h8v5.21h.28c2.6-4,6-6,11.38-6v8.5c-8.23,0-11.11,3.16-11.11,11V370h-8.5Z" transform="translate(75.52 76.37)"/><path class="cls-67" d="M81.31,307.57c0-4.52-1.51-6.3-4.94-6.3-4.8,0-5.48,2.88-5.48,7.26v7H62.38v-8.78c0-7.68,6.45-12.34,14.26-12.34,8.23,0,13.17,3.43,13.17,13V370h-8v-4h-.27c-2.33,2.88-4.8,4.8-9.87,4.8-6.58,0-10.15-4.8-10.15-12.34V338.15c0-9.32,6.31-14.4,19.75-14.4Zm0,23c-4.39,0-11.25,1.78-11.25,8.09v17c0,5.35.83,8.23,5.35,8.23,3.7,0,5.9-2.75,5.9-7.68Z" transform="translate(75.52 76.37)"/><path class="cls-67" d="M99.43,295.23h7.95v5.08h.28a11.81,11.81,0,0,1,9.87-5.9c7,0,10.14,5.21,10.14,11.24V370h-8.5V309c0-4-1.5-6.86-5.34-6.86s-5.9,3.84-5.9,6.86v61h-8.5Z" transform="translate(75.52 76.37)"/><path class="cls-67" d="M157.54,365.3h-.27c-2.06,2.88-4,5.48-9.05,5.48-5.49,0-11-3.29-11-14.53V306.07c0-6.72,3.84-11.66,9.73-11.66,4.25,0,7.54,1.51,9.74,5.35H157V271h8.5v99h-8Zm-.55-55c0-4.67-2.47-8.23-6.17-8.23-3.43,0-5.07,3.15-5.07,8.64V356c0,5.21,1.51,8,4.93,8s6.31-2.2,6.31-8.23Z" transform="translate(75.52 76.37)"/><path class="cls-67" d="M184.81,406.55H176.3L184.62,370l-10.84-74.73h8.5l6,50.32h.27l7.27-50.32h8.5Z" transform="translate(75.52 76.37)"/><path class="cls-67" d="M209.42,295.23H217l6.3,63.21h.28L229,295.23h11.53L246,358.44h.28l6.31-63.21h7.54l-8,74.73H240.55l-5.63-64.85h-.28L229,370H217.37Z" transform="translate(75.52 76.37)"/><path class="cls-67" d="M268.71,271h9.05v10.42h-9.05Zm.27,24.26h8.5V370H269Z" transform="translate(75.52 76.37)"/><path class="cls-67" d="M287.55,295.23h7.95v5.08h.28a11.81,11.81,0,0,1,9.87-5.9c7,0,10.15,5.21,10.15,11.24V370h-8.5V309c0-4-1.51-6.86-5.35-6.86s-5.9,3.84-5.9,6.86v61h-8.5Z" transform="translate(75.52 76.37)"/><path class="cls-67" d="M345.11,345.83h8.5v10.55c0,11.39-6.85,14.4-14.12,14.4s-14.12-3-14.12-14.4V308.81c0-11.38,6.86-14.4,14.12-14.4s14.12,3,14.12,14.4v25.91H333.87v21.66c0,5.49,2.19,7.55,5.62,7.55s5.62-2.06,5.62-7.55Zm0-37c0-5.49-2.19-7.54-5.62-7.54s-5.62,2.05-5.62,7.54V327h11.24Z" transform="translate(75.52 76.37)"/><path class="cls-68" d="M42.26,386.94h8.92c4.08,0,6.17,1.88,6.17,5.05,0,3.58-2.48,4.5-3.09,4.7v.06c1.13.15,2.78,1,2.78,3.95,0,2.17.31,4.16,1,4.91H54.55a5.26,5.26,0,0,1-.49-2.74c0-3.43-.71-4.95-3.72-4.95H45.53v7.69H42.26Zm3.27,8.5h5.36c2.07,0,3.19-1,3.19-3,0-2.38-1.54-2.85-3.24-2.85H45.53Z" transform="translate(75.52 76.37)"/><path class="cls-68" d="M65.19,386.94H78.64v2.82H68.46v4.89h9.42v2.67H68.46v5.47H78.82v2.82H65.19Z" transform="translate(75.52 76.37)"/><path class="cls-68" d="M91.75,386.94h3.48l7.19,18.67h-3.5l-1.76-4.94H89.71L88,405.61H84.58ZM90.6,398.19h5.7l-2.8-8h-.08Z" transform="translate(75.52 76.37)"/><path class="cls-68" d="M108.71,386.94H112v15.85h9.49v2.82H108.71Z" transform="translate(75.52 76.37)"/><path class="cls-68" d="M124.07,386.94h15.12v2.82h-5.94v15.85H130V389.76h-5.91Z" transform="translate(75.52 76.37)"/><path class="cls-68" d="M151.64,398.29l-7-11.35h3.79l4.94,8.37,4.87-8.37h3.66l-7,11.35v7.32h-3.27Z" transform="translate(75.52 76.37)"/><path class="cls-68" d="M207.09,386.94h15.12v2.82h-5.94v15.85H213V389.76h-5.91Z" transform="translate(75.52 76.37)"/><path class="cls-68" d="M228.69,386.94h8.92c4.08,0,6.17,1.88,6.17,5.05a4.52,4.52,0,0,1-3.09,4.7v.06c1.13.15,2.78,1,2.78,3.95,0,2.17.31,4.16,1,4.91H241a5.17,5.17,0,0,1-.5-2.74c0-3.43-.7-4.95-3.71-4.95H232v7.69h-3.27Zm3.27,8.5h5.36c2.06,0,3.19-1,3.19-3,0-2.38-1.54-2.85-3.24-2.85H232Z" transform="translate(75.52 76.37)"/><path class="cls-68" d="M251.28,386.94h3.27v10.88c0,2.51.16,5.41,4.39,5.41s4.4-2.9,4.4-5.41V386.94h3.27v11.95c0,4.79-3.06,7.17-7.67,7.17s-7.66-2.38-7.66-7.17Z" transform="translate(75.52 76.37)"/><path class="cls-68" d="M276.85,399.39c0,2.88,2.12,4,4.73,4,2.88,0,3.95-1.41,3.95-2.82a2.23,2.23,0,0,0-1.54-2.31c-1.31-.49-3-.83-5.57-1.54-3.19-.86-4.13-2.8-4.13-4.73,0-3.74,3.45-5.5,6.82-5.5,3.9,0,7.17,2.07,7.17,6H285c-.16-2.41-1.78-3.3-4-3.3-1.51,0-3.42.55-3.42,2.43,0,1.31.89,2,2.22,2.41.29.08,4.42,1.15,5.39,1.44a4.93,4.93,0,0,1,3.63,4.76c0,4.19-3.71,5.86-7.42,5.86-4.27,0-7.72-2-7.8-6.67Z" transform="translate(75.52 76.37)"/><path class="cls-68" d="M294.21,386.94h15.12v2.82h-5.94v15.85h-3.27V389.76h-5.91Z" transform="translate(75.52 76.37)"/><rect class="cls-69" width="505.5" height="558.69"/><path class="cls-67" d="M306.91,241.72a9.74,9.74,0,1,1,9.76,9.63A9.59,9.59,0,0,1,306.91,241.72Zm9.76,8a8,8,0,1,0-7.83-8A7.75,7.75,0,0,0,316.67,249.75Zm-2-2.46H313V236.2h4.22c2.62,0,3.91,1,3.91,3.16a2.88,2.88,0,0,1-2.87,3l3.15,4.88h-1.88l-2.92-4.81h-1.93Zm2-6.23c1.42,0,2.69-.1,2.69-1.81,0-1.37-1.25-1.62-2.41-1.62h-2.29v3.43Z" transform="translate(75.52 76.37)"/></svg>