<svg id="Layer_1" data-name="Layer 1" xmlns="http://www.w3.org/2000/svg" viewBox="0 0 920.69 148.24"><title>sy-logo</title><path d="M37.07,112.84c-20,0-29.47-7.14-30.54-7.14-.6,0-3,3.34-4.71,5.62H.46L0,79H1.52c3.65,10.79,12.76,22.64,19.9,26.89,3.34,2,9.42,4.56,15,4.56,14.28,0,24.16-8.66,24.16-22.33,0-10.94-7.75-16-17.63-19.6-8.05-2.89-13.52-4.56-22-7.9C9.57,56,.76,46.15.76,32.78.76,10.9,19.45.42,38.74.42,57.27.42,65.32,8,66.39,8c.61,0,3-3.34,4.56-5.78h1.67V32.32H71C65.93,18.65,54.39,2.85,39.5,2.85c-12.61,0-22.33,8.36-22.33,20.82,0,10.48,7.9,16.4,17.62,20,7,2.73,13.37,4.86,20.81,7.59C70,56.78,78.09,65.75,78.09,80.63c0,20.06-17.93,32.21-41,32.21"/><path d="M119.55,112.38c-20.66,0-34.33-16.86-34.33-37.82,0-19.3,14.43-36.77,35.09-36.77,14,0,27.65,6.38,27.65,18.54,0,5-4.1,9.42-9,9.42s-8.51-3-9.12-6.39a16,16,0,0,0,1.22-6.22c0-7.75-3.34-12.92-10.94-12.92-11.09,0-18.84,13.83-18.84,30.08,0,17.63,9.72,29.63,24.31,29.63,12.15,0,18.53-4.41,23.55-12.31l1.21.61c-3.64,12-14.28,24.15-30.84,24.15"/><path d="M191.4,111.47V109.8c5.47-.3,9.42-1.52,9.42-4.71V68.18c0-11.24-3-19.75-13.21-19.75-6.84,0-11.09,2.58-13.52,6.23A9.51,9.51,0,0,0,173,58.91v46.18c0,3.8,4.1,4.26,8.36,4.86v1.52h-33V110c4.71-.45,9-2,9-5.47V20.17A3.18,3.18,0,0,0,155.86,17c-1.67-1.37-4.86-2.73-7.45-4.25v-.91L172,1.18h1.21l-.3,52.41.3.16c2.74-5.17,11.55-16,25.83-16,13.37,0,17.62,9.88,17.62,23.25v44.51c0,3,5.62,4.1,9.12,4.56v1.36Z"/><path d="M278.3,112.08h-1.07V96.43l-.15-.3c-4.41,7-13.07,16.25-24.31,16.25-12.91,0-19-8.2-19-22.94V52.53c0-1.67-.15-6.23-.76-7.44-1.52-3.5-6.38-3.8-10.17-4.11V39.31h26.73V82.46c0,13.21,2.74,19.59,12.92,19.59,7.9,0,11.54-4,14.73-7.9V51c0-1.82-.3-5.77-1.52-7.44-2.43-1.22-7-2.13-11.39-2.59V39.31h28.56V98.56c0,1.52.15,2.28,1.52,3.19,1.82,1.06,6.07,3,8.5,4.1v.91Z"/><path d="M360.78,48.28c-3.19,9.57-18.08,55.44-29,88.56-2.73,8.36-7.59,11.4-12.76,11.4-4.55,0-9.57-3.19-9.57-7.9a8,8,0,0,1,8.05-8.36c4.26,0,7.3,3.5,10.33,6.53h.46c4.71-12.6,7.29-21.11,7.75-22.94-.61-1.36-22-58-26.89-70.33-1.83-2-3.65-4-10.94-4.26V39.31H335V41c-4.25.61-7.9,1.68-7.9,5.47,0,2.59,10.79,30.39,16.71,45.73,3-9.42,13.83-43,13.83-46.18,0-3.8-4.86-4.71-8.66-5V39.31h23.7V41c-4.86.31-9.88,1.22-11.85,7.3"/><path d="M366.55,111.47V109.8c9.27-.61,11.54-2.43,11.54-5.62V19.11c0-1.52-.15-2.28-1.51-3.19-1.83-1.07-6.39-3.65-8.82-4.71V10.3l24.92-8.66h1.06v103.3c0,4.1,3.5,4.1,11.24,4.86v1.67Z"/><path d="M447.67,111.47V110c3.95-.15,7.14-1.21,7.14-3.49,0-2-9.57-16.56-16.87-27.95-1.67-2.59-2.58-3.19-3.79-3.19a2.29,2.29,0,0,0-1.37.3v29.47c0,3.8,4.25,4.26,8.36,4.86v1.52H408V110c4.71-.45,9.11-1.67,9.11-5.47V20.78c0-1.52,0-2.28-1.37-3.34s-5-2.74-7.59-4.11v-.91L431.56,1.64h1.22V73.8c.15,0,1.37-.46,1.37-.46,6.38-5,27-25.06,27-27.95,0-2.28-7-4.41-12-4.56V39.31h37.22v1.52c-1.37.15-14.89,1.83-22.49,8.51-5.92,5.32-10.94,10.18-16.1,15,8.35,13.67,16.1,26.28,21.57,34.48a38.69,38.69,0,0,0,8.51,9.42,40.47,40.47,0,0,0,9.26,1.67v1.52Z"/><path d="M499.92,25a9.84,9.84,0,0,1-9.57-9.57,9.57,9.57,0,0,1,19.14,0A9.72,9.72,0,0,1,499.92,25m-17.47,86.44V110c4.71-.45,10.33-1.67,10.33-5.47V54.2c0-1.52-.15-2.89-1.52-3.8a31.15,31.15,0,0,0-7.44-3.49V46l23.7-8.36h.91v67.45c.3,4,5.77,4.41,9.72,4.86v1.52Z"/><path d="M520.73,111.47V109.8c9.26-.61,11.54-2.43,11.54-5.62V19.11c0-1.52-.15-2.28-1.52-3.19-1.82-1.07-6.38-3.65-8.81-4.71V10.3l24.92-8.66h1.06v103.3c0,4.1,3.49,4.1,11.24,4.86v1.67Z"/><path d="M559.46,111.47V109.8c9.27-.61,11.55-2.43,11.55-5.62V19.11c0-1.52-.15-2.28-1.52-3.19-1.82-1.07-6.38-3.65-8.81-4.71V10.3l24.91-8.66h1.06v103.3c0,4.1,3.5,4.1,11.25,4.86v1.67Z"/><path d="M720.79,76.08c5.62-10.64,8.65-19.9,9.11-24.46.46-5.17-.91-10-5.32-10C712,41.59,691.47,83.37,691.47,97c0,4.41.76,6.23,4.4,6.23,4.71,0,16-10,24.92-27.19M676.73,101.6c0-25.52,30.54-62.59,50.59-62.59a7.8,7.8,0,0,1,7.14,5l.91-2.43,14-3.34h.91c-1.37,3.34-16.1,41.78-17.32,45-2.43,6.53-5.77,16.1-5.17,17.77,3.65-.91,12.61-9.42,16.71-13.82l1.07,1.06c-4.1,6.53-22.49,24-29.63,24-2.88,0-4.55-1.52-4.55-4.86,0-3.49,4.1-13.37,7.14-22l-.61-.15c-6.68,10.18-21,27-32.06,27-6.68,0-9.11-3.64-9.11-10.63"/><path d="M765.29,68c4-10.78,5.47-17.77,5.47-18.83s0-1.52-.76-1.52c-1.67,0-7.75,4.71-15.19,14.73l-1.37-.91C763,45.85,775.47,38,780.94,38c2.88,0,4.71,1.36,4.71,5s-2.13,11.85-4.1,17.32l.45.15c10.48-17,19.14-22,24.46-22a8.34,8.34,0,0,1,8.36,8.36,7.91,7.91,0,0,1-8.06,8.05c-6.07,0-7.14-4.56-8.66-8.21C792,48,782,62,778.51,71.67c-5.78,15.8-9.88,27.35-14.74,39.8H748.58C755.26,94.91,762,77.29,765.29,68"/><path d="M843.22,76.08c5.32-10.18,7.45-20.66,7.45-24.92,0-5.47-2.13-9.72-6.23-9.72-11.85,0-29.93,42.23-29.93,55.9,0,4,1.37,5.32,4,5.32,6.23,0,16.71-11.24,24.76-26.58M799,101.29c0-26,28.41-62.13,46.79-62.13,4.87,0,7.6,2.43,8.82,4.86L866.47,6.19c.45-1.36-.16-2-1.22-2.12l-8.36-1.22V1.18H883c-8.2,23.85-19.9,60.16-27,82.34-2,6.23-4.86,14.43-4.86,16.26,0,1.06.15,1.67,1.07,1.67,2.27,0,12.6-9.42,16.55-14.28l1.07,1.06c-4.1,6.84-21.27,24-29.47,24-3.5,0-5-1.67-5-5,0-3.8,3.5-13.67,6.08-22.48l-.46-.46c-7.14,10.94-20.81,28-32.2,28-7.29,0-9.73-4.4-9.73-10.94"/><path d="M866.16,99.93c0-3.8,2.88-6.69,7.29-6.69s6.07,3.34,6.83,7.29c.61,3.65,1.22,8.66,7.6,8.66,5.32,0,8.81-6.53,8.81-11.54,0-5.62-1.82-9.42-4.1-14.28-1.22-2.58-4.1-7.9-6.08-12.15-1.67-3.65-3-6.84-3-12,0-13.36,11.85-21,23.85-21,7.6,0,13.37,4.25,13.37,8.81,0,3.95-1.82,6.69-6.07,6.69-3,0-5-3-6.08-5.93-1.22-3.34-2.89-6.38-6.68-6.38-3.2,0-6.84,3.19-6.84,8.2,0,4.41,2.58,8.81,5.16,14.13,1.22,2.43,4.11,7.29,5.47,10.18,2.28,4.86,3.8,8.51,3.65,14.13-.3,8-9.12,24.3-26.89,24.3-8.35,0-16.25-4.71-16.25-12.45"/><path d="M589,148.11c-9.17,0-16.71-4.58-16.71-12.12,0-3.11,1.63-9.17,9.17-9.17,8.87,0,10.34,11.53,18.47,11.53,14.64,0,32.67-14,36.36-28.08,5-19.22,4.73-39.32,4.73-54.4,0-13.6-1.47-23.79-3.84-37.84-.29-1.33-.59-2.81-1.77-2.81-2.07,0-8.72,8.87-17.74,21L616,34.74C626.64,15.22,639.79,0,647.48,0c4.43,0,6.06,3,7.39,9.17,1.18,5.76,4,18.62,4,40.2,0,11.09.15,24.24-2.07,41.83,15.52-22.47,29.12-45.82,29.12-62.08,0-10.64-6.36-12.42-6.36-20,0-5,3.26-9.17,8.43-9.17,6.8,0,9.61,4.58,9.61,12.12,0,4.58-.74,12.27-4.59,22.62-8.13,21.43-19.51,39.31-39.17,68C631.07,132.88,604,148.11,589,148.11"/></svg>