<?xml version="1.0" encoding="utf-8"?>
<!-- Generator: Adobe Illustrator 23.0.0, SVG Export Plug-In . SVG Version: 6.00 Build 0)  -->
<svg version="1.1" id="Layer_1" xmlns="http://www.w3.org/2000/svg" xmlns:xlink="http://www.w3.org/1999/xlink" x="0px" y="0px"
	 viewBox="0 0 512 476" style="enable-background:new 0 0 512 476;" xml:space="preserve">
<style type="text/css">
	.st0{fill:#FFFFFF;}
</style>
<g>
	<path class="st0" d="M119.1,371c-64.4,0-94.7-22.9-98.1-22.9c-1.9,0-9.8,10.7-15.1,18.1L0,365.9V262.2h4.9
		c11.7,34.7,41,72.7,63.9,86.4c10.7,6.3,30.3,14.6,48.3,14.6c45.9,0,77.6-27.8,77.6-71.7c0-35.1-24.9-51.2-56.6-63
		c-25.9-9.3-43.4-14.6-70.8-25.4c-36.6-14.6-64.9-46.4-64.9-89.3c0-70.3,60-103.9,122-103.9c59.5,0,85.4,24.4,88.8,24.4
		c1.9,0,9.8-10.7,14.6-18.5h5.4v96.6h-5.4c-16.1-43.9-53.2-94.7-101-94.7c-40.5,0-71.7,26.8-71.7,66.9c0,33.7,25.4,52.7,56.6,64.4
		c22.5,8.8,42.9,15.6,66.9,24.4c46.4,17.6,72.2,46.4,72.2,94.2C250.8,332,193.2,371,119.1,371"/>
	<path class="st0" d="M163,476c-29.4,0-53.7-14.7-53.7-38.9c0-10,5.2-29.4,29.4-29.4c28.5,0,33.2,37,59.4,37
		c47,0,104.9-45.1,116.8-90.2c16.1-61.7,15.2-126.3,15.2-174.7c0-43.7-4.8-76.4-12.3-121.6c-1-4.3-1.9-9-5.7-9
		c-6.6,0-28,28.5-57,67.4l-5.2-4.7C284.1,49.2,326.3,0.3,351,0.3c14.2,0,19.5,9.5,23.7,29.4c3.8,18.5,12.8,59.8,12.8,129.1
		c0,35.6,0.5,77.9-6.6,134.4c49.9-72.2,93.5-147.2,93.5-199.4c0-34.2-20.4-39.9-20.4-64.1c0-16.1,10.4-29.4,27.1-29.4
		C503,0.3,512,15,512,39.2c0,14.7-2.4,39.4-14.7,72.6c-26.1,68.8-62.7,126.3-125.8,218.4C298.3,427.1,211.4,476,163,476"/>
</g>
</svg>
