<?xml version="1.0" encoding="utf-8"?>
<!-- Generator: Adobe Illustrator 23.0.0, SVG Export Plug-In . SVG Version: 6.00 Build 0)  -->
<svg version="1.1" id="Layer_1" xmlns="http://www.w3.org/2000/svg" xmlns:xlink="http://www.w3.org/1999/xlink" x="0px" y="0px"
	 viewBox="0 0 1224 811.9" style="enable-background:new 0 0 1224 811.9;" xml:space="preserve">
<style type="text/css">
	.st0{fill:#FFFFFF;}
	.st1{fill:#010101;}
	.st2{fill:#000101;}
</style>
<g>
	<g>
		<path d="M123.3,140.9c-25.9,0-47-21.1-47-47s21.1-47,47-47s47,21.1,47,47S149.3,140.9,123.3,140.9 M123.3,50.2
			c-24.1,0-43.7,19.6-43.7,43.7s19.6,43.7,43.7,43.7S167,118,167,93.9S147.4,50.2,123.3,50.2"/>
		<path d="M134.6,109.1h-3.4c0-9.8,5.2-18.2,5.8-19.2c2-2.9,3-6.1,3-9.6c0-9.3-7.5-16.8-16.8-16.8c-9.3,0-16.8,7.5-16.8,16.8
			c0,3.4,1,6.7,2.9,9.5c0.3,0.4,5.9,9.2,5.9,19.3H112c0-9-5.1-17.1-5.3-17.4c-2.3-3.3-3.5-7.2-3.5-11.3c0-11.1,9-20.1,20.1-20.1
			c11.1,0,20.1,9,20.1,20.1c0,4.1-1.2,8-3.5,11.4C139.4,92.6,134.6,100.4,134.6,109.1"/>
		<path d="M131.1,120.8h-15.6c-3.7,0-6.7-3-6.7-6.7c0-3.7,3-6.7,6.7-6.7h15.6c3.7,0,6.7,3,6.7,6.7
			C137.8,117.8,134.7,120.8,131.1,120.8 M115.5,110.8c-1.8,0-3.4,1.5-3.4,3.4c0,1.8,1.5,3.4,3.4,3.4h15.6c1.8,0,3.4-1.5,3.4-3.4
			c0-1.8-1.5-3.4-3.4-3.4H115.5z"/>
		<path d="M123.5,127.6h-0.2c-4.2,0-7.7-3.4-7.7-7.7h3.4c0,2.4,1.9,4.3,4.3,4.3h0.2c2.4,0,4.3-1.9,4.3-4.3h3.4
			C131.1,124.1,127.7,127.6,123.5,127.6"/>
		<rect x="122.3" y="83.4" transform="matrix(0.7071 -0.7071 0.7071 0.7071 -23.2518 114.0008)" width="7.3" height="3.4"/>
		<polygon points="125,109.1 121.7,109.1 121.7,88.3 117.1,83.7 119.4,81.3 125,86.9 		"/>
	</g>
	<g>
		<path d="M1083.8,140.9c-25.9,0-47-21.1-47-47s21.1-47,47-47c25.9,0,47,21.1,47,47S1109.7,140.9,1083.8,140.9 M1083.8,50.2
			c-24.1,0-43.7,19.6-43.7,43.7s19.6,43.7,43.7,43.7c24.1,0,43.7-19.6,43.7-43.7S1107.9,50.2,1083.8,50.2"/>
		<path d="M1108.9,104h-50.4c-0.9,0-1.7-0.8-1.7-1.7c0-14,12.1-25.3,26.9-25.3s26.9,11.4,26.9,25.3
			C1110.6,103.3,1109.9,104,1108.9,104 M1060.2,100.7h47c-0.9-11.3-11.1-20.3-23.5-20.3C1071.3,80.4,1061.2,89.3,1060.2,100.7"/>
		<path d="M1112.6,117.5h-57.3c-0.6,0-1.1-0.3-1.4-0.8c-0.3-0.5-0.3-1.1-0.1-1.6l3.4-6.8c0.3-0.6,0.9-0.9,1.5-0.9h50.3
			c0.6,0,1.2,0.3,1.5,0.9l3.6,6.8c0.3,0.5,0.3,1.1,0,1.7C1113.7,117.2,1113.2,117.5,1112.6,117.5 M1058,114.1h51.8l-1.8-3.5h-48.3
			L1058,114.1z"/>
		<rect x="1082.1" y="68.3" width="3.4" height="10.4"/>
		<rect x="1077" y="66.9" width="13.5" height="3.4"/>
		<path d="M1067.6,96.3l-3.1-1.3c2.6-6.2,8.6-10.8,15.6-12l0.5,3.3C1074.8,87.3,1069.8,91.1,1067.6,96.3"/>
	</g>
	<g>
		<path d="M283.4,127.7c-13.1,0-23.7-10.6-23.7-23.7c0-13.1,10.6-23.7,23.7-23.7c13.1,0,23.7,10.6,23.7,23.7
			C307.1,117.1,296.5,127.7,283.4,127.7 M283.4,83.7c-11.2,0-20.4,9.1-20.4,20.4c0,11.2,9.1,20.4,20.4,20.4
			c11.2,0,20.4-9.1,20.4-20.4C303.8,92.8,294.7,83.7,283.4,83.7"/>
		<path d="M283.4,140.9c-25.9,0-47-21.1-47-47s21.1-47,47-47c25.9,0,47,21.1,47,47S309.3,140.9,283.4,140.9 M283.4,50.2
			c-24.1,0-43.7,19.6-43.7,43.7s19.6,43.7,43.7,43.7c24.1,0,43.7-19.6,43.7-43.7S307.5,50.2,283.4,50.2"/>
		<rect x="263" y="107.4" width="41.2" height="3.4"/>
		<rect x="263" y="93.9" width="17" height="3.4"/>
		<rect x="290.2" y="62" width="3.4" height="21.5"/>
		<rect x="273.4" y="62" width="3.4" height="21.3"/>
		<rect x="270.7" y="60.1" width="24.7" height="3.4"/>
	</g>
	<g>
		<path d="M443.5,124.2L443.5,124.2c-9.3,0-16.8-7.5-16.8-16.8l0-32.2c0-6.5,5.3-11.7,11.7-11.7c6.5,0,11.7,5.3,11.7,11.7v32.1
			c0,3.7-3,6.8-6.8,6.8s-6.8-3-6.8-6.8V73.6h3.4v33.7c0,1.9,1.5,3.4,3.4,3.4c1.9,0,3.4-1.5,3.4-3.4V75.2c0-4.6-3.8-8.4-8.4-8.4
			c-4.6,0-8.4,3.7-8.4,8.4l0,32.2c0,7.4,6,13.4,13.4,13.4h0c3.6,0,6.9-1.4,9.5-3.9c2.5-2.5,3.9-5.9,3.9-9.5V74.1h3.4v33.4
			c0,4.5-1.7,8.7-4.9,11.9C452.2,122.5,448,124.2,443.5,124.2"/>
		<path d="M443.5,140.9c-25.9,0-47-21.1-47-47s21.1-47,47-47c25.9,0,47,21.1,47,47S469.4,140.9,443.5,140.9 M443.5,50.2
			c-24.1,0-43.7,19.6-43.7,43.7s19.6,43.7,43.7,43.7c24.1,0,43.7-19.6,43.7-43.7S467.6,50.2,443.5,50.2"/>
	</g>
	<g>
		<path d="M625.5,117.5h-43.9c-0.9,0-1.7-0.8-1.7-1.7V77.4h3.4v36.7h40.5V77.4h3.4v38.4C627.2,116.7,626.4,117.5,625.5,117.5"/>
		<path d="M571.9,83.5l-1.4-3l32.4-14.9c0.4-0.2,1-0.2,1.4,0l32.4,14.9l-1.4,3l-31.7-14.6L571.9,83.5z"/>
		<path d="M613.7,115.8h-3.4v-22h-13.6v22h-3.4V92.1c0-0.9,0.8-1.7,1.7-1.7h17c0.9,0,1.7,0.8,1.7,1.7V115.8z"/>
		<rect x="583.3" y="67" width="6.7" height="7.8"/>
		<path d="M603.6,140.9c-25.9,0-47-21.1-47-47s21.1-47,47-47c25.9,0,47,21.1,47,47S629.5,140.9,603.6,140.9 M603.6,50.2
			c-24.1,0-43.7,19.6-43.7,43.7s19.6,43.7,43.7,43.7c24.1,0,43.7-19.6,43.7-43.7S627.6,50.2,603.6,50.2"/>
	</g>
	<g>
		<path d="M785,120.9h-42.8c-0.5,0-0.9-0.2-1.2-0.5c-0.3-0.3-0.5-0.8-0.5-1.2l2-42.4c0-0.9,0.8-1.6,1.7-1.6H783
			c0.9,0,1.6,0.7,1.7,1.6l2,42.4c0,0.5-0.1,0.9-0.5,1.2C785.9,120.7,785.5,120.9,785,120.9 M744,117.5h39.2l-1.8-39h-35.6L744,117.5
			z"/>
		<path d="M773.8,82.8h-3.4v-9.6c0-3.4-3-6.2-6.7-6.2c-3.7,0-6.7,2.8-6.7,6.2v9.6h-3.4v-9.6c0-5.3,4.5-9.6,10.1-9.6
			c5.6,0,10.1,4.3,10.1,9.6V82.8z"/>
		<path d="M763.6,140.9c-25.9,0-47-21.1-47-47s21.1-47,47-47c25.9,0,47,21.1,47,47S789.6,140.9,763.6,140.9 M763.6,50.2
			c-24.1,0-43.7,19.6-43.7,43.7s19.6,43.7,43.7,43.7c24.1,0,43.7-19.6,43.7-43.7S787.7,50.2,763.6,50.2"/>
	</g>
	<g>
		<rect x="897.9" y="100.6" width="54.9" height="3.4"/>
		<path d="M954.1,117.5h-3.4v-6.8h-52.8v-3.4h54.5c0.9,0,1.7,0.8,1.7,1.7V117.5z"/>
		<path d="M954.1,112.8h-3.4v-10.1c-1-4.3-4.8-8.8-9.4-8.8h-19.7v8.6h-3.4V92.2c0-0.9,0.8-1.7,1.7-1.7h21.4
			c6.5,0,11.6,5.9,12.8,11.6c0,0.1,0,0.2,0,0.3V112.8z"/>
		<rect x="896.7" y="87.1" width="3.4" height="30.4"/>
		<path d="M909.1,102.7c-3.4,0-6.2-2.8-6.2-6.2c0-3.4,2.8-6.2,6.2-6.2c3.4,0,6.2,2.8,6.2,6.2C915.3,100,912.5,102.7,909.1,102.7
			 M909.1,93.7c-1.6,0-2.8,1.3-2.8,2.8s1.3,2.8,2.8,2.8c1.6,0,2.8-1.3,2.8-2.8S910.7,93.7,909.1,93.7"/>
		<path d="M954.4,84.3l-30.7-14.1L893,84.3l-1.4-3L923,66.8c0.4-0.2,1-0.2,1.4,0l31.4,14.5L954.4,84.3z"/>
		<path d="M923.7,140.9c-25.9,0-47-21.1-47-47s21.1-47,47-47c25.9,0,47,21.1,47,47S949.6,140.9,923.7,140.9 M923.7,50.2
			c-24.1,0-43.7,19.6-43.7,43.7s19.6,43.7,43.7,43.7c24.1,0,43.7-19.6,43.7-43.7S947.8,50.2,923.7,50.2"/>
	</g>
	<g>
		<path d="M933.4,272.8v-3.4c9.7,0,17.6-7.9,17.6-17.6c0-6.6-3.6-12.6-9.4-15.6l-1-0.5l0.1-1.2c0.1-0.7,0.1-1.4,0.1-2.1
			c0-9.1-7.4-16.5-16.5-16.5c-9.1,0-16.5,7.4-16.5,16.5c0,0.9,0.1,1.9,0.2,2.8l0.2,1.4L907,237c-5.8,1.9-9.6,7.2-9.6,13.3
			c0,7.7,6.3,14,14,14v3.4c-9.6,0-17.4-7.8-17.4-17.4c0-7,4.2-13.3,10.6-16c-0.1-0.7-0.1-1.3-0.1-2c0-10.9,8.9-19.9,19.9-19.9
			c10.9,0,19.9,8.9,19.9,19.9c0,0.5,0,0.9-0.1,1.4c6.3,3.8,10.2,10.6,10.2,18C954.4,263.4,945,272.8,933.4,272.8"/>
		<path d="M924.2,293.2c-25.9,0-47-21.1-47-47s21.1-47,47-47c25.9,0,47,21.1,47,47S950.1,293.2,924.2,293.2 M924.2,202.5
			c-24.1,0-43.7,19.6-43.7,43.7s19.6,43.7,43.7,43.7c24.1,0,43.7-19.6,43.7-43.7S948.3,202.5,924.2,202.5"/>
		<rect x="920.3" y="253.3" transform="matrix(0.8539 -0.5204 0.5204 0.8539 3.2754 521.5529)" width="20.8" height="3.4"/>
		<rect x="913.6" y="244.2" transform="matrix(0.5175 -0.8557 0.8557 0.5175 226.1336 904.723)" width="3.4" height="15.2"/>
		<rect x="920.8" y="236.2" width="3.4" height="43.7"/>
	</g>
	<g>
		<path d="M123.7,255.2c-0.2,0-0.4,0-0.7-0.1l-34.7-14.6c-0.6-0.3-1-0.9-1-1.5c0-0.7,0.4-1.3,1-1.5l34.7-15.2c0.4-0.2,0.9-0.2,1.3,0
			l33.9,14.4c0.6,0.3,1,0.9,1,1.5c0,0.7-0.4,1.3-1,1.5l-33.9,15.4C124.2,255.2,123.9,255.2,123.7,255.2 M93.3,238.9l30.4,12.8
			l29.7-13.5l-29.7-12.6L93.3,238.9z"/>
		<rect x="99.7" y="243.9" width="3.4" height="21.8"/>
		<rect x="143.5" y="243.9" width="3.4" height="21.8"/>
		<path d="M123.3,274.8c-11.7,0-23.6-3.1-23.6-9.1h3.4c0,1.6,6,5.7,20.2,5.7s20.2-4.1,20.2-5.7h3.4
			C146.8,271.7,135,274.8,123.3,274.8"/>
		<rect x="153.8" y="238.9" width="3.4" height="12"/>
		<path d="M123.3,293.2c-25.9,0-47-21.1-47-47s21.1-47,47-47s47,21.1,47,47S149.3,293.2,123.3,293.2 M123.3,202.5
			c-24.1,0-43.7,19.6-43.7,43.7s19.6,43.7,43.7,43.7s43.7-19.6,43.7-43.7S147.4,202.5,123.3,202.5"/>
	</g>
	<g>
		<rect x="1064.1" y="269.8" width="40.5" height="3.4"/>
		<rect x="1060.7" y="259.7" width="23.6" height="3.4"/>
		<path d="M1090.3,272.6l-1.7-2.9c7.4-4.2,11.5-12.4,10.4-20.9c-0.7-5.6-3.5-10.6-7.9-14l2.1-2.6c5.1,4,8.4,9.8,9.2,16.2
			C1103.6,258.2,1098.8,267.7,1090.3,272.6"/>
		<path d="M1084.6,250.9c-0.4,0-0.9-0.1-1.3-0.4l0,0l-14.4-9.9c-1-0.7-1.3-2.1-0.6-3.1l12.1-17.7c3.3-4.8,9.9-6.1,14.8-2.7l0.6,0.4
			c4.8,3.3,6.1,9.9,2.7,14.8l-12.1,17.7C1086.1,250.6,1085.4,250.9,1084.6,250.9 M1071.8,238.5l12.5,8.6l11.5-16.8
			c2.3-3.3,1.4-7.8-1.9-10.1l-0.6-0.4c-3.3-2.3-7.8-1.4-10.1,1.9L1071.8,238.5z"/>
		<path class="st0" d="M1099.5,236c0,2.7-2.2,4.8-4.8,4.8c-2.7,0-4.8-2.2-4.8-4.8c0-2.7,2.2-4.8,4.8-4.8
			C1097.3,231.2,1099.5,233.3,1099.5,236"/>
		<path d="M1094.7,242.5c-3.6,0-6.5-2.9-6.5-6.5c0-3.6,2.9-6.5,6.5-6.5c3.6,0,6.5,2.9,6.5,6.5
			C1101.2,239.6,1098.3,242.5,1094.7,242.5 M1094.7,232.9c-1.7,0-3.1,1.4-3.1,3.1c0,1.7,1.4,3.1,3.1,3.1c1.7,0,3.1-1.4,3.1-3.1
			C1097.8,234.3,1096.4,232.9,1094.7,232.9"/>
		<rect x="1070.8" y="262.3" width="3.4" height="9.7"/>
		<path d="M1084.3,293.2c-25.9,0-47-21.1-47-47s21.1-47,47-47c25.9,0,47,21.1,47,47S1110.3,293.2,1084.3,293.2 M1084.3,202.5
			c-24.1,0-43.7,19.6-43.7,43.7s19.6,43.7,43.7,43.7c24.1,0,43.7-19.6,43.7-43.7S1108.4,202.5,1084.3,202.5"/>
		<rect x="1093.8" y="215.2" transform="matrix(0.5804 -0.8143 0.8143 0.5804 283.2698 983.3998)" width="4.1" height="3.4"/>
	</g>
	<g>
		<path d="M298.5,255.1v-3.4c10.8,0,12-4.5,12-7.9c0-3.4-1.2-7.9-12-7.9v-3.4c12.7,0,15.4,6.1,15.4,11.3
			C313.9,248.9,311.2,255.1,298.5,255.1"/>
		<path d="M283.5,293.2c-25.9,0-47-21.1-47-47s21.1-47,47-47c25.9,0,47,21.1,47,47S309.4,293.2,283.5,293.2 M283.5,202.5
			c-24.1,0-43.7,19.6-43.7,43.7s19.6,43.7,43.7,43.7c24.1,0,43.7-19.6,43.7-43.7S307.6,202.5,283.5,202.5"/>
		<path d="M298.7,264.4h-33.7c-0.9,0-1.7-0.8-1.7-1.7v-38.5c0-0.9,0.8-1.7,1.7-1.7h33.7c0.9,0,1.7,0.8,1.7,1.7v38.5
			C300.3,263.7,299.6,264.4,298.7,264.4 M266.6,261.1H297v-35.1h-30.4V261.1z"/>
		<rect x="264.9" y="232.5" width="33.6" height="3.4"/>
		<rect x="263.3" y="269.8" width="37.1" height="3.4"/>
	</g>
	<g>
		<path d="M421.1,266.4c-6.4,0-11.6-5.2-11.6-11.6c0-6.4,5.2-11.6,11.6-11.6c6.4,0,11.6,5.2,11.6,11.6
			C432.7,261.2,427.5,266.4,421.1,266.4 M421.1,246.5c-4.6,0-8.3,3.7-8.3,8.3c0,4.6,3.7,8.3,8.3,8.3c4.6,0,8.3-3.7,8.3-8.3
			C429.4,250.2,425.7,246.5,421.1,246.5"/>
		<path d="M465.6,266.4c-6.4,0-11.6-5.2-11.6-11.6c0-6.4,5.2-11.6,11.6-11.6c6.4,0,11.6,5.2,11.6,11.6
			C477.2,261.2,472,266.4,465.6,266.4 M465.6,246.5c-4.6,0-8.3,3.7-8.3,8.3c0,4.6,3.7,8.3,8.3,8.3c4.6,0,8.3-3.7,8.3-8.3
			C473.9,250.2,470.2,246.5,465.6,246.5"/>
		<path d="M442,256.3L442,256.3l-21.1,0c-0.6,0-1.2-0.4-1.5-1c-0.3-0.6-0.2-1.3,0.2-1.8l10.9-13.5c0.3-0.4,0.8-0.6,1.3-0.6h0l26,0
			c0.7,0,1.3,0.4,1.6,1.1c0.2,0.7,0,1.4-0.5,1.9l-15.8,13.5C442.8,256.1,442.4,256.3,442,256.3 M424.5,252.9l17,0l11.9-10.1l-20.6,0
			L424.5,252.9z"/>
		<path d="M463.9,255.9l-9.8-24.3c-0.2-0.5-0.1-1.1,0.2-1.6c0.3-0.5,0.8-0.7,1.4-0.7h5.5c2.1,0,4,1.1,5.1,2.9c1.1,1.8,1.1,4,0.1,5.8
			l-3-1.6c0.4-0.8,0.4-1.7-0.1-2.5c-0.5-0.8-1.3-1.2-2.2-1.2h-3l8.8,22L463.9,255.9z"/>
		<rect x="433" y="228.5" transform="matrix(0.8819 -0.4715 0.4715 0.8819 -62.9387 233.5683)" width="3.4" height="27.7"/>
		<rect x="423.4" y="229.2" width="12.2" height="3.4"/>
		<path d="M443.5,293.2c-25.9,0-47-21.1-47-47s21.1-47,47-47c25.9,0,47,21.1,47,47S469.4,293.2,443.5,293.2 M443.5,202.5
			c-24.1,0-43.7,19.6-43.7,43.7s19.6,43.7,43.7,43.7c24.1,0,43.7-19.6,43.7-43.7S467.6,202.5,443.5,202.5"/>
	</g>
	<g>
		<path d="M615.8,245.4c-6.5,0-11.8-6-11.8-13.4s5.3-13.4,11.8-13.4c6.5,0,11.8,6,11.8,13.4S622.3,245.4,615.8,245.4 M615.8,221.9
			c-4.6,0-8.4,4.5-8.4,10.1c0,5.6,3.8,10.1,8.4,10.1c4.6,0,8.4-4.5,8.4-10.1C624.2,226.4,620.4,221.9,615.8,221.9"/>
		<path d="M603.8,293.2c-25.9,0-47-21.1-47-47s21.1-47,47-47c25.9,0,47,21.1,47,47S629.8,293.2,603.8,293.2 M603.8,202.5
			c-24.1,0-43.7,19.6-43.7,43.7s19.6,43.7,43.7,43.7c24.1,0,43.7-19.6,43.7-43.7S627.9,202.5,603.8,202.5"/>
		<path d="M603.8,293.2c-25.9,0-47-21.1-47-47s21.1-47,47-47c25.9,0,47,21.1,47,47S629.8,293.2,603.8,293.2 M603.8,202.5
			c-24.1,0-43.7,19.6-43.7,43.7s19.6,43.7,43.7,43.7c24.1,0,43.7-19.6,43.7-43.7S627.9,202.5,603.8,202.5"/>
		<rect x="590.4" y="219.1" width="3.4" height="60.1"/>
		<rect x="613.8" y="243.7" width="3.4" height="35.5"/>
		<path d="M594.1,245.5h-3.9c-3.6,0-6.5-2.9-6.5-6.5v-19.8h3.4V239c0,1.7,1.4,3.2,3.2,3.2h3.9c1.7,0,3.2-1.4,3.2-3.2v-19.8h3.4V239
			C600.6,242.6,597.6,245.5,594.1,245.5"/>
	</g>
	<g>
		<path d="M779.1,269.9h-30.3c-0.9,0-1.7-0.8-1.7-1.7v-33.9c0-0.9,0.8-1.7,1.7-1.7h30.3c0.9,0,1.7,0.8,1.7,1.7v33.9
			C780.8,269.1,780.1,269.9,779.1,269.9 M750.5,266.5h27V236h-27V266.5z"/>
		<path d="M770.7,232.9h-3.4v-13.8h-6.7v13.8h-3.4v-15.5c0-0.9,0.8-1.7,1.7-1.7h10.1c0.9,0,1.7,0.8,1.7,1.7V232.9z"/>
		<path d="M756.9,278.5c-2.9,0-5.2-2.3-5.2-5.2s2.3-5.2,5.2-5.2c2.9,0,5.2,2.3,5.2,5.2S759.8,278.5,756.9,278.5 M756.9,271.5
			c-1,0-1.9,0.8-1.9,1.9s0.8,1.8,1.9,1.8c1,0,1.8-0.8,1.8-1.8S758,271.5,756.9,271.5"/>
		<path d="M771.2,278.5c-2.9,0-5.2-2.3-5.2-5.2s2.3-5.2,5.2-5.2c2.9,0,5.2,2.3,5.2,5.2S774.1,278.5,771.2,278.5 M771.2,271.5
			c-1,0-1.9,0.8-1.9,1.9s0.8,1.8,1.9,1.8c1,0,1.8-0.8,1.8-1.8S772.2,271.5,771.2,271.5"/>
		<path d="M764,293.2c-25.9,0-47-21.1-47-47s21.1-47,47-47c25.9,0,47,21.1,47,47S789.9,293.2,764,293.2 M764,202.5
			c-24.1,0-43.7,19.6-43.7,43.7s19.6,43.7,43.7,43.7c24.1,0,43.7-19.6,43.7-43.7S788.1,202.5,764,202.5"/>
	</g>
	<g>
		<path d="M766.8,430.5c-0.2,0-0.5,0-0.7-0.1c-0.5-0.2-0.8-0.6-0.9-1.1c0-0.2-4.2-17.7-11.1-22.8c-0.1,0-0.1-0.1-0.2-0.1
			c-2.5-2.5-7.1-6.6-8.9-7.5c-2.4-0.7-8.8-1.8-12,0.6c-0.5,0.3-1,0.4-1.6,0.2c-0.5-0.2-0.9-0.6-1.1-1.2c-0.1-0.4-2.2-9.7,3.5-14.8
			c0.6-0.6,3.2-3.2,8.4-3.6c0.6-0.2,2.5-1.9,3.4-2.7c0.9-0.8,1.6-1.5,2.3-2c2.4-1.6,4.9-2.7,7.7-3.3c5.8-1.3,12-0.8,18,1.2
			c0,0,0,0,0.1,0c0.2,0.1,5.5,2.2,11.1,6.5c7.5,5.8,12,13,12.9,20.6c0.1,0.6-0.2,1.2-0.6,1.5c-0.5,0.4-1.1,0.5-1.6,0.2
			c0,0-2.1-0.8-4.3-1.6c2.5,4.1,4.6,11.1,1,20.5c-0.2,0.5-0.6,0.9-1.2,1c-0.5,0.1-1.1,0-1.5-0.4c-0.1-0.1-6.3-5.4-10.8-8.2
			c-0.6,4.2-2.9,12.3-11,16.7C767.4,430.4,767.1,430.5,766.8,430.5 M756.2,403.8c6.3,4.8,10.2,17.2,11.7,22.4
			c7.4-5.5,7.6-15.2,7.6-15.3c0-0.6,0.3-1.1,0.8-1.4c0.5-0.3,1.1-0.3,1.6-0.1c3.5,1.6,9,5.9,11.8,8.3c3.4-11.6-3.3-18-4.3-18.8
			c-1.4-0.8-1.1-1.9-0.9-2.3c0.6-1.5,2.2-1,3.1-0.7c1.1,0.4,4,1.4,6.2,2.2c-3.6-14.3-20.5-21.3-21.3-21.6c-5.4-1.9-11-2.2-16.1-1.1
			c-2.4,0.5-4.5,1.4-6.5,2.8c-0.4,0.3-1.2,1-1.9,1.6c-2.3,2.1-3.9,3.5-5.4,3.6c-4.2,0.3-6.1,2.4-6.2,2.5c-0.1,0.1-0.1,0.1-0.2,0.2
			c-2.8,2.4-3,6.7-2.8,9.3c5.3-2,12.4,0,12.7,0.1c0.1,0,0.1,0,0.2,0.1C749,396.8,755.2,402.8,756.2,403.8"/>
		<path d="M733,396.1l-2.7-2c4-5.5,12.6-5.7,18-5.2c-3.1-3.3-6.6-7-6.7-7.1l2.4-2.3c0.3,0.3,7,7.3,9.9,10.7l3.3,3.9l-5-1.2
			c0,0-3.8-0.9-8.1-0.9h-0.1C740.4,392.1,735.4,392.8,733,396.1"/>
		<path d="M760.6,381.6c0,1.1-0.9,2-2,2c-1.1,0-2-0.9-2-2c0-1.1,0.9-2,2-2C759.7,379.6,760.6,380.5,760.6,381.6"/>
		<path d="M763.8,445.5c-25.9,0-47-21.1-47-47c0-25.9,21.1-47,47-47c25.9,0,47,21.1,47,47C810.8,424.4,789.7,445.5,763.8,445.5
			 M763.8,354.8c-24.1,0-43.7,19.6-43.7,43.7c0,24.1,19.6,43.7,43.7,43.7c24.1,0,43.7-19.6,43.7-43.7
			C807.5,374.4,787.9,354.8,763.8,354.8"/>
	</g>
	<g>
		<path d="M913.9,404.7L913.9,404.7c-0.9,0-1.7-0.8-1.7-1.7c0,0,0-3,0-7.1c0-3,0.8-6.2,2.2-9.2c7.3-14.9,28.5-15.4,34.8-15.3
			c0.5,0,0.9,0.2,1.2,0.6c0.3,0.4,0.4,0.8,0.4,1.3c-0.1,0.5-1.7,11.6-10.3,17.2c-0.3,0.2-0.5,0.3-0.8,0.3c-0.2,0-3.6,0.1-6.7,0.2
			c0.6,0.3,1.2,0.4,1.7,0.5c0.7,0.1,1.3,0.6,1.4,1.3c0.2,0.7-0.1,1.4-0.7,1.8c-0.2,0.1-4.7,3.1-13.2,3.6c-1,0.1-1.7-0.6-1.8-1.6
			c-0.1-0.9,0.6-1.7,1.6-1.8c3.5-0.2,6.2-0.9,8.1-1.5c-2-1.1-3.9-2.5-3.7-3.9c0.1-0.7,0.7-1.8,2.3-1.7c2,0.1,8.6-0.1,10.4-0.2
			c5.1-3.5,7.3-9.6,8.1-12.7c-7.4,0.1-23.9,1.6-29.7,13.4c-1.2,2.5-1.9,5.2-1.9,7.7c0,4.1,0,7.1,0,7.1
			C915.6,403.9,914.8,404.7,913.9,404.7"/>
		<path d="M924.1,445.5c-25.9,0-47-21.1-47-47c0-25.9,21.1-47,47-47c25.9,0,47,21.1,47,47C971.1,424.4,950,445.5,924.1,445.5
			 M924.1,354.8c-24.1,0-43.7,19.6-43.7,43.7c0,24.1,19.6,43.7,43.7,43.7c24.1,0,43.7-19.6,43.7-43.7
			C967.7,374.4,948.2,354.8,924.1,354.8"/>
		<path d="M928.8,405.2h-28.4c-0.9,0-1.7-0.8-1.7-1.7c0-0.9,0.8-1.7,1.7-1.7h28.4c0.9,0,1.7,0.8,1.7,1.7
			C930.5,404.4,929.7,405.2,928.8,405.2"/>
		<path d="M925.2,425.2h-22.4c-0.4,0-0.8-0.1-1.1-0.4l-3.9-3.4c-0.4-0.3-0.6-0.8-0.6-1.3v-8.9c0-0.5,0.2-1,0.7-1.3l10.1-7.7
			c0.7-0.6,1.8-0.4,2.3,0.3c0.6,0.7,0.4,1.8-0.3,2.3l-9.4,7.2v7.3l2.9,2.5h21.2l2.8-2.1v-7.5l-9.3-7.3c-0.7-0.6-0.9-1.6-0.3-2.4
			c0.6-0.7,1.6-0.9,2.4-0.3l10,7.9c0.4,0.3,0.6,0.8,0.6,1.3v9.2c0,0.5-0.2,1-0.7,1.3l-3.9,3C925.9,425.1,925.5,425.2,925.2,425.2"/>
	</g>
	<g>
		<path d="M122.8,445.5c-25.9,0-47-21.1-47-47c0-25.9,21.1-47,47-47s47,21.1,47,47C169.8,424.4,148.7,445.5,122.8,445.5
			 M122.8,354.8c-24.1,0-43.7,19.6-43.7,43.7c0,24.1,19.6,43.7,43.7,43.7s43.7-19.6,43.7-43.7C166.4,374.4,146.9,354.8,122.8,354.8"
			/>
		<path d="M134.6,391.7H111c-0.9,0-1.7-0.8-1.7-1.7v-16.9c0-0.9,0.8-1.7,1.7-1.7h23.6c0.9,0,1.7,0.8,1.7,1.7V390
			C136.3,390.9,135.6,391.7,134.6,391.7 M112.7,388.3h20.2v-13.6h-20.2V388.3z"/>
		<path d="M137.8,428.9h-30.1c-0.9,0-1.7-0.8-1.7-1.7v-30.4c0-0.9,0.8-1.7,1.7-1.7h30.1c0.9,0,1.7,0.8,1.7,1.7v30.4
			C139.5,428.1,138.8,428.9,137.8,428.9 M109.4,425.5h26.8v-27.1h-26.8V425.5z"/>
		<rect x="117.7" y="390" width="3.4" height="6.7"/>
		<rect x="124.5" y="390" width="3.4" height="6.7"/>
		<path d="M94,405.4c-1.8,0-3.5-0.7-4.8-2l2.4-2.4c0.6,0.6,1.5,1,2.4,1c0.9,0,1.8-0.4,2.4-1c0.6-0.6,1-1.5,1-2.4
			c0-0.9-0.4-1.8-1-2.4l2.4-2.4c1.3,1.3,2,3,2,4.8c0,1.8-0.7,3.5-2,4.8C97.5,404.7,95.8,405.4,94,405.4"/>
		<rect x="100.9" y="399.5" transform="matrix(0.6445 -0.7646 0.7646 0.6445 -273.9767 222.7104)" width="3.4" height="13.1"/>
		<path d="M151.4,405.4c-1.8,0-3.5-0.7-4.8-2c-1.3-1.3-2-3-2-4.8c0-1.8,0.7-3.5,2-4.8l2.4,2.4c-0.6,0.6-1,1.5-1,2.4
			c0,0.9,0.4,1.8,1,2.4s1.5,1,2.4,1c0.9,0,1.8-0.4,2.4-1l2.4,2.4C154.9,404.7,153.2,405.4,151.4,405.4"/>
		<rect x="136.3" y="404.3" transform="matrix(0.7644 -0.6447 0.6447 0.7644 -228.1075 187.7638)" width="13.1" height="3.4"/>
		<path d="M119.7,379.9c0,1.1-0.9,2-2,2c-1.1,0-2-0.9-2-2c0-1.1,0.9-2,2-2C118.8,377.9,119.7,378.8,119.7,379.9"/>
		<path d="M129.8,379.9c0,1.1-0.9,2-2,2c-1.1,0-2-0.9-2-2c0-1.1,0.9-2,2-2C128.9,377.9,129.8,378.8,129.8,379.9"/>
	</g>
	<g>
		<path d="M1106.3,381.6h-5.1c-0.7,0-1.3-0.4-1.6-1.1l-3.5-9.1h-23.7l-3.4,9.1c-0.2,0.7-0.9,1.1-1.6,1.1h-5.2
			c-0.9,0-1.7-0.8-1.7-1.7c0-0.9,0.8-1.7,1.7-1.7h4l3.4-9.1c0.2-0.7,0.9-1.1,1.6-1.1h26c0.7,0,1.3,0.4,1.6,1.1l3.5,9.1h3.9
			c0.9,0,1.7,0.8,1.7,1.7C1108,380.8,1107.3,381.6,1106.3,381.6"/>
		<path d="M1086.9,388.4h-5.3c-0.8,0-1.5-0.6-1.6-1.4l-3-17c-0.2-0.9,0.4-1.8,1.4-1.9c0.9-0.2,1.8,0.4,1.9,1.4l2.8,15.6h2.4
			l2.5-15.5c0.1-0.9,1-1.5,1.9-1.4c0.9,0.1,1.5,1,1.4,1.9l-2.8,17C1088.4,387.8,1087.7,388.4,1086.9,388.4"/>
		<path d="M1084.2,397.8c-4.4,0-8.8-0.5-13-1.4l-0.5-0.1c-0.9-0.2-1.5-1.1-1.3-2c0.2-0.9,1.1-1.5,2-1.3l0.5,0.1
			c8,1.8,16.6,1.8,24.6,0l0.5-0.1c0.9-0.2,1.8,0.4,2,1.3c0.2,0.9-0.4,1.8-1.3,2l-0.5,0.1C1093,397.3,1088.6,397.8,1084.2,397.8"/>
		<path d="M1084.3,428.8c-14.6,0-30.3-3.6-30.3-9.5c0-2.2,2.1-4.1,4.5-6.3c0.4-0.4,0.9-0.8,1.3-1.2c3.2-3,5.3-6.6,6.2-10.6l3.4-15
			c0.2-0.8,0.9-1.3,1.6-1.3h26.4c0.8,0,1.5,0.5,1.6,1.3l3.3,14.8c0.8,4.1,3.1,7.8,6.4,10.9c0.5,0.5,1,0.9,1.5,1.3
			c2.5,2.2,4.5,3.9,4.5,6C1114.6,425.2,1098.9,428.8,1084.3,428.8 M1072.3,388.4l-3.1,13.6c-1,4.6-3.4,8.9-7.2,12.3
			c-0.5,0.4-0.9,0.9-1.4,1.3c-1.4,1.3-3.3,3-3.3,3.8c0,1.5,9.6,6.1,27,6.1c17.4,0,27-4.6,27-6.1c0-0.7-2-2.4-3.3-3.5
			c-0.5-0.4-1-0.9-1.5-1.4c-3.9-3.5-6.5-7.9-7.5-12.6l-3-13.5H1072.3z"/>
		<path d="M1081.6,428.5c-0.8,0-1.4-0.5-1.6-1.3l-1.1-4.4l-5.7-4.9c-0.5-0.4-0.7-1-0.6-1.6l2.2-10.1c0.2-0.9,1.1-1.5,2-1.3
			c0.9,0.2,1.5,1.1,1.3,2l-2,9.1l5.4,4.6c0.3,0.2,0.5,0.5,0.5,0.9l1.2,5c0.2,0.9-0.3,1.8-1.2,2
			C1081.8,428.5,1081.7,428.5,1081.6,428.5"/>
		<path d="M1084.3,445.5c-25.9,0-47-21.1-47-47c0-25.9,21.1-47,47-47c25.9,0,47,21.1,47,47C1131.4,424.4,1110.3,445.5,1084.3,445.5
			 M1084.3,354.8c-24.1,0-43.7,19.6-43.7,43.7c0,24.1,19.6,43.7,43.7,43.7c24.1,0,43.7-19.6,43.7-43.7
			C1128,374.4,1108.4,354.8,1084.3,354.8"/>
	</g>
	<g>
		<path class="st0" d="M294.8,398.4c0,6.5-5.3,11.8-11.8,11.8c-6.5,0-11.8-5.3-11.8-11.8c0-6.5,5.3-11.8,11.8-11.8
			C289.5,386.6,294.8,391.9,294.8,398.4"/>
		<path d="M283,412c-7.5,0-13.5-6.1-13.5-13.5s6.1-13.5,13.5-13.5c7.5,0,13.5,6.1,13.5,13.5S290.4,412,283,412 M283,388.3
			c-5.6,0-10.2,4.6-10.2,10.2c0,5.6,4.6,10.2,10.2,10.2c5.6,0,10.2-4.6,10.2-10.2C293.1,392.8,288.6,388.3,283,388.3"/>
		<line class="st0" x1="294.8" y1="410.3" x2="302.6" y2="418.1"/>
		<rect x="297" y="408.7" transform="matrix(0.7084 -0.7058 0.7058 0.7084 -205.237 331.6241)" width="3.4" height="11"/>
		<line class="st0" x1="263.5" y1="378.9" x2="271.2" y2="386.6"/>
		<rect x="265.7" y="377.3" transform="matrix(0.7084 -0.7058 0.7058 0.7084 -192.1616 300.2912)" width="3.4" height="10.9"/>
		<line class="st0" x1="283" y1="415.1" x2="283" y2="426.1"/>
		<rect x="277.5" y="419" transform="matrix(1.484435e-03 -1 1 1.484435e-03 -138.0649 703.0027)" width="11" height="3.4"/>
		<line class="st0" x1="283.1" y1="370.8" x2="283.1" y2="381.7"/>
		<rect x="277.6" y="374.6" transform="matrix(2.386020e-03 -1 1 2.386020e-03 -93.8619 658.4276)" width="11" height="3.4"/>
		<line class="st0" x1="271.2" y1="410.2" x2="263.4" y2="418"/>
		<rect x="261.8" y="412.4" transform="matrix(0.7081 -0.7061 0.7061 0.7081 -214.3712 309.6006)" width="11" height="3.4"/>
		<line class="st0" x1="302.6" y1="378.9" x2="294.9" y2="386.7"/>
		<rect x="293.3" y="381.1" transform="matrix(0.7087 -0.7055 0.7055 0.7087 -183.0269 322.2447)" width="11" height="3.4"/>
		<line class="st0" x1="266.3" y1="398.4" x2="255.4" y2="398.4"/>
		<rect x="259.2" y="392.9" transform="matrix(1.272953e-03 -1 1 1.272953e-03 -137.8926 658.741)" width="3.4" height="11"/>
		<line class="st0" x1="310.7" y1="398.5" x2="299.7" y2="398.5"/>
		<rect x="303.5" y="393" transform="matrix(2.365242e-03 -1 1 2.365242e-03 -93.9807 702.7621)" width="3.4" height="11"/>
		<path d="M283,445.5c-25.9,0-47-21.1-47-47c0-25.9,21.1-47,47-47c25.9,0,47,21.1,47,47C330.1,424.4,309,445.5,283,445.5 M283,354.8
			c-24.1,0-43.7,19.6-43.7,43.7c0,24.1,19.6,43.7,43.7,43.7c24.1,0,43.7-19.6,43.7-43.7C326.7,374.4,307.1,354.8,283,354.8"/>
	</g>
	<g>
		<path d="M433.6,398.4c0,1.3-1.1,2.3-2.3,2.3c-1.3,0-2.3-1-2.3-2.3c0-1.3,1-2.3,2.3-2.3C432.6,396.1,433.6,397.2,433.6,398.4"/>
		<path d="M445.6,398.4c0,1.3-1.1,2.3-2.3,2.3c-1.3,0-2.3-1-2.3-2.3c0-1.3,1-2.3,2.3-2.3C444.6,396.1,445.6,397.2,445.6,398.4"/>
		<path d="M457.6,398.4c0,1.3-1.1,2.3-2.3,2.3c-1.3,0-2.3-1-2.3-2.3c0-1.3,1-2.3,2.3-2.3C456.6,396.1,457.6,397.2,457.6,398.4"/>
		<path d="M443.4,422.1c-3.7,0-7.4-0.7-10.8-2l-18.9,1.9l1.9-2.9c1.6-2.6,3.8-5.6,5-7.4c-2.6-2-7.6-6.8-7.6-13.8
			c0-7,3.3-13,9.6-17.3c5.6-3.8,12.9-5.9,20.8-5.9c7.8,0,15.2,2.1,20.7,5.9c6.2,4.3,9.6,10.3,9.6,17.3
			C473.6,413.1,458.2,422.1,443.4,422.1 M433.1,416.7l0.4,0.2c3.1,1.3,6.5,1.9,9.9,1.9c13.2,0,26.9-7.8,26.9-20.9
			c0-9.8-9.2-19.8-26.9-19.8c-17.8,0-27,10-27,19.8c0,7.4,7.4,11.9,7.5,12l1.6,0.9l-1.1,1.5c0,0-2,2.8-4,5.7L433.1,416.7z"/>
		<path d="M443.3,445.5c-25.9,0-47-21.1-47-47c0-25.9,21.1-47,47-47c25.9,0,47,21.1,47,47C490.3,424.4,469.2,445.5,443.3,445.5
			 M443.3,354.8c-24.1,0-43.7,19.6-43.7,43.7c0,24.1,19.6,43.7,43.7,43.7c24.1,0,43.7-19.6,43.7-43.7
			C487,374.4,467.4,354.8,443.3,354.8"/>
	</g>
	<g>
		<path class="st1" d="M604.9,432.3c-4.7,0-9.4-1.4-13.5-3.8c-0.6-0.4-0.9-1.2-0.7-1.9c0.2-0.7,0.9-1.2,1.6-1.2c0,0,0.1,0,0.1,0
			c5.1,0,10-3.2,12.1-7.9c0.7-1.5,0.6-2.9-0.1-4.3c-1.3-2.4-4.6-4.3-7.6-5.1c-0.2,0.9-0.3,2,0.2,3c0.5,1,1.4,1.7,2.8,2.2
			c0.7,0.2,1.1,0.8,1.2,1.6c0,0.7-0.4,1.4-1.1,1.6c-0.2,0.1-4.5,1.6-9.2-1.2c0.4,1.3,1,2.6,2,3.4c0.6,0.5,0.8,1.2,0.5,1.9
			c-0.3,0.7-1,1.1-1.7,1c-0.2,0-3.8-0.3-7.6-3l-0.1,2.7c0,0.6-0.4,1.2-1,1.5c-0.6,0.3-1.3,0.2-1.8-0.2c-9.8-8-13.5-20.1-9.9-32.4
			c4-13.6,15.9-23.8,29.8-25.4c0.7-0.1,1.4,0.3,1.7,0.9c0.3,0.6,0.2,1.4-0.2,1.9c-0.1,0.1-7.4,8.4-6.2,16.9
			c0.6,4.4,3.5,8.2,8.4,11.3c0,0,0.1,0,0.1,0.1c5,3.6,9.4,4.2,12.3,1.9c2.1-1.8,3-5.1,1.9-7.3c-0.9-1.9-2.8-2.2-4.5-2l-1.9,4
			c-0.2,0.4-0.6,0.8-1.1,0.9c-0.5,0.1-1,0-1.4-0.3l-5.7-4.2c-0.5-0.4-0.8-1.1-0.6-1.7l1.9-8.2l-0.8-7c-0.1-0.7,0.3-1.4,0.9-1.7
			c0.6-0.3,1.4-0.2,1.9,0.3l2.2,2.1c1.2-1.9,3.6-4.4,8.2-5.7c0.8-0.2,1.6,0.2,2,0.9c0.3,0.7,0.1,1.6-0.6,2.1c-0.6,0.5-2,1.7-2.7,3.1
			c5.5-0.6,10.4,1.4,14.1,5.6c6.3,7.2,8,19.7,4,30.5c-2.3,6.2-6.3,11.9-11.2,16.1c-5.5,4.6-11.7,7.2-18.2,7.4
			C605.4,432.2,605.2,432.3,604.9,432.3 M597.8,427.7c2.5,0.9,5.2,1.3,7.8,1.2c12.9-0.4,22.7-11.4,26.4-21.3
			c3.6-9.7,2.2-20.8-3.4-27.1c-2.4-2.7-6.7-5.6-13.3-4.1c-0.5,0.1-1,0-1.3-0.3c-0.4-0.3-0.6-0.7-0.7-1.2c-0.1-0.5,0-0.9,0-1.4
			c-0.9,1.1-1.1,2-1.1,2.1c-0.1,0.6-0.6,1.1-1.2,1.2c-0.6,0.2-1.2,0-1.6-0.4l-0.6-0.5l0.3,2.6c0,0.2,0,0.4,0,0.6l-1.7,7.4l3.2,2.3
			l1.4-3c0.2-0.5,0.7-0.8,1.2-0.9c4.1-0.8,7.5,0.6,9,3.8c1.7,3.6,0.5,8.6-2.8,11.3c-1.9,1.6-7.4,4.7-16.4-1.7
			c-5.8-3.6-9.2-8.2-9.9-13.6c-0.9-6.4,2-12.4,4.4-16c-10.8,2.8-19.7,11.3-22.9,22.3c-2.9,9.8-0.5,19.5,6.2,26.5l0.1-2.6
			c0-0.7,0.5-1.3,1.1-1.5c0.6-0.2,1.4-0.1,1.8,0.5c1.4,1.5,2.8,2.5,4.1,3.2c-1-2.8-1.1-5.6-1.1-5.8c0-0.7,0.4-1.3,1.1-1.6
			c0.7-0.2,1.4-0.1,1.8,0.5c1.6,1.8,3.3,2.8,4.7,3.2c-0.2-0.3-0.3-0.5-0.4-0.8c-1.5-3.3,0.1-6.9,0.2-7c0.3-0.7,1.1-1.1,1.8-1
			c4.2,0.7,9.3,3.2,11.4,7.2c1.2,2.3,1.3,4.8,0.2,7.2C605.8,422.9,602.1,426.2,597.8,427.7"/>
		<path d="M603.6,445.5c-25.9,0-47-21.1-47-47c0-25.9,21.1-47,47-47c25.9,0,47,21.1,47,47C650.6,424.4,629.5,445.5,603.6,445.5
			 M603.6,354.8c-24.1,0-43.7,19.6-43.7,43.7c0,24.1,19.6,43.7,43.7,43.7c24.1,0,43.7-19.6,43.7-43.7
			C647.2,374.4,627.6,354.8,603.6,354.8"/>
	</g>
	<g>
		<path class="st1" d="M588.9,568.1h-7.6c-0.6,0-1.1-0.3-1.4-0.8c-0.3-0.5-0.3-1.1-0.1-1.6l14.9-31.3h-16.6c-0.9,0-1.7-0.8-1.7-1.7
			v-6.2c0-0.9,0.8-1.7,1.7-1.7h27.1c0.9,0,1.7,0.8,1.7,1.7v5.1c0,0.2-0.1,0.5-0.2,0.7l-16.4,34.9
			C590.2,567.8,589.6,568.1,588.9,568.1 M584,564.8h3.9l15.8-33.6v-3h-23.8v2.9h17.5c0.6,0,1.1,0.3,1.4,0.8c0.3,0.5,0.3,1.1,0.1,1.6
			L584,564.8z"/>
		<path class="st1" d="M613.9,580.5c-9.4,0-16.5-6.9-16.5-16.1c0-3.9,1.5-8.1,4.5-12.8l9.4-14.4c0.3-0.5,0.8-0.8,1.4-0.8h8
			c0.6,0,1.2,0.3,1.5,0.9c0.3,0.6,0.2,1.2-0.1,1.7l-6.9,10.1h0.1c8.5,0,15.1,6.7,15.1,15.2C630.3,573.4,623.1,580.5,613.9,580.5
			 M613.5,539.8l-8.9,13.6c-2.7,4.2-4,7.8-4,11c0,7.2,5.7,12.7,13.2,12.7c7.4,0,13.1-5.6,13.1-12.8c0-6.8-5.1-11.9-11.8-11.9
			c-1.2,0-2.4,0.3-3,0.8c-0.7,0.5-1.6,0.4-2.2-0.1c-0.6-0.6-0.7-1.5-0.2-2.2l7.7-11.2H613.5z M613.8,574c-5.3,0-9.5-4.2-9.5-9.4
			c0-5.3,4.2-9.4,9.6-9.4c5.3,0,9.5,4.2,9.5,9.5C623.4,569.8,619.1,574,613.8,574 M613.9,558.5c-3.5,0-6.2,2.7-6.2,6.1
			s2.7,6.1,6.2,6.1c3.4,0,6.2-2.7,6.2-6C620,561.2,617.3,558.5,613.9,558.5"/>
		<path d="M603.6,597.7c-25.9,0-47-21.1-47-47c0-25.9,21.1-47,47-47c25.9,0,47,21.1,47,47C650.6,576.7,629.5,597.7,603.6,597.7
			 M603.6,507.1c-24.1,0-43.7,19.6-43.7,43.7c0,24.1,19.6,43.7,43.7,43.7c24.1,0,43.7-19.6,43.7-43.7
			C647.2,526.6,627.6,507.1,603.6,507.1"/>
	</g>
	<g>
		<path d="M763.6,597.7c-25.9,0-47-21.1-47-47c0-25.9,21.1-47,47-47c25.9,0,47,21.1,47,47C810.7,576.7,789.6,597.7,763.6,597.7
			 M763.6,507.1c-24.1,0-43.7,19.6-43.7,43.7c0,24.1,19.6,43.7,43.7,43.7c24.1,0,43.7-19.6,43.7-43.7
			C807.3,526.6,787.7,507.1,763.6,507.1"/>
		<path d="M789.3,544H738c-2.6,0-4.7-2.1-4.7-4.7v-4c0-2.6,2.1-4.7,4.7-4.7h51.2c2.6,0,4.7,2.1,4.7,4.7v4
			C794,541.8,791.9,544,789.3,544 M738,533.8c-0.8,0-1.4,0.6-1.4,1.4v4c0,0.8,0.6,1.4,1.4,1.4h51.2c0.8,0,1.4-0.6,1.4-1.4v-4
			c0-0.8-0.6-1.4-1.4-1.4H738z"/>
		<path d="M789.3,567.6H738c-2.6,0-4.7-2.1-4.7-4.7v-2.3c0-2.6,2.1-4.7,4.7-4.7h51.2c2.6,0,4.7,2.1,4.7,4.7v2.3
			C794,565.4,791.9,567.6,789.3,567.6 M738,559.1c-0.8,0-1.4,0.6-1.4,1.4v2.3c0,0.8,0.6,1.4,1.4,1.4h51.2c0.8,0,1.4-0.6,1.4-1.4
			v-2.3c0-0.8-0.6-1.4-1.4-1.4H738z"/>
		<path d="M760.6,553.8c-2.8,0-5-1.3-7-2.4c-1.8-1-3.5-1.9-5.4-2c-1.8,0-4,0.6-6,1.3c-3.6,1.1-7.7,2.3-9.6-0.9
			c-0.6-1-0.7-2.2-0.3-3.3c1.1-3.2,6-5.3,7-5.7l1.2,3.1c-1.8,0.7-4.6,2.4-5.1,3.6c-0.1,0.2-0.1,0.3,0.1,0.5c0.5,0.9,3.3,0.1,5.7-0.6
			c2.2-0.7,4.7-1.4,7-1.4h0.1c2.8,0,5.1,1.3,7,2.4c1.8,1,3.4,1.9,5.4,1.9c0,0,0.1,0,0.1,0c2.8,0,5.1-1.2,7.3-2.3
			c2.3-1.2,4.7-2.4,7.5-2.2c5.8,0.4,6.4-0.3,7.3-1.4c0.9-1.2,2.2-2.9,6.8-3.9l0.7,3.3c-3.3,0.7-4,1.6-4.8,2.6
			c-1.5,2-3.1,3.3-10.2,2.8c-1.9-0.1-3.7,0.8-5.8,1.8c-2.4,1.2-5.2,2.6-8.7,2.7C760.7,553.8,760.7,553.8,760.6,553.8 M740.5,544
			l-0.6-1.6L740.5,544C740.5,544,740.5,544,740.5,544"/>
		<path d="M735.9,558.7c-3.4-4.1-2.2-7.9-1.1-9.4l2.7,2l-1.3-1l1.4,1c-0.2,0.2-1.5,2.3,1,5.3L735.9,558.7z"/>
		<path d="M789.7,559.1l-0.9-3.2c1.4-0.4,1.6-1.4,1.6-2c0-0.8-0.4-1.5-0.9-1.7c-1.9-0.5-2.1-2.5-2.2-4c-0.1-0.8-0.2-1.8-0.5-2.7
			c-0.5-1.4-2.9-1.4-2.9-1.4h0l-0.1-3.4c1.8-0.1,5.2,0.7,6.2,3.7c0.4,1.3,0.5,2.5,0.6,3.5c0,0.4,0.1,0.8,0.1,1.1
			c1.8,0.7,3,2.6,3,4.7C793.8,556.4,792.2,558.4,789.7,559.1"/>
	</g>
	<g>
		<path d="M923.7,597.7c-25.9,0-47-21.1-47-47c0-25.9,21.1-47,47-47c25.9,0,47,21.1,47,47C970.7,576.7,949.6,597.7,923.7,597.7
			 M923.7,507.1c-24.1,0-43.7,19.6-43.7,43.7c0,24.1,19.6,43.7,43.7,43.7c24.1,0,43.7-19.6,43.7-43.7
			C967.4,526.6,947.8,507.1,923.7,507.1"/>
		<path d="M940.1,546.9l8.8,4.3l-1.6,3.2c-1.6,3.3-4.7,5.5-8.5,6.2c-1.8-3.3-1.9-7.2-0.3-10.5L940.1,546.9z"/>
		<path d="M946.9,573.9l-1.4-1.3c-4-3.8-13.3-8.3-23.7-11.4c-10.5-3.1-20.7-4.5-26-3.5l-2,0.4l0-2c0-0.6-0.1-14.9,2.8-21.7
			c1.7-5.3,13.3-4.2,20.1-3c2.5,0.4,4.4,2.6,4.3,5.2c-0.1,4.1,1.7,7.5,4.7,8.6c3.2,1.2,7.2-0.6,9.6-4.4c1.4-2.1,4-2.9,6.3-1.9
			c15.1,6.6,16.4,11.5,15.7,13.9c-1.7,7.1-8.9,19.2-9.2,19.7l-0.1,0.1L946.9,573.9z M899.9,554c6,0,14.3,1.4,22.9,4
			c9.9,3,18.6,7,23.5,10.9c2-3.6,6.5-11.8,7.8-17l0-0.2c0.3-1.1-2.7-5.1-13.8-9.9c-0.8-0.3-1.7-0.1-2.1,0.7
			c-3.3,5.2-8.9,7.5-13.6,5.8c-4.3-1.6-7-6.3-6.8-11.8c0-0.9-0.6-1.6-1.5-1.8c-11.5-1.9-16.1-0.3-16.4,0.7c0,0,0,0.1-0.1,0.3
			c-2.1,4.8-2.5,14.4-2.6,18.5C898,554,898.9,554,899.9,554"/>
		<path d="M935.1,543.2c-1.6-1.8-4.2-3.3-7.2-4.2c-2.9-0.9-5.9-1-8.1-0.4l-0.9-3.2c2.8-0.8,6.4-0.6,10,0.4c3.6,1.1,6.8,3,8.7,5.2
			L935.1,543.2z"/>
	</g>
	<g>
		<path d="M123.3,575.8c-0.6,0-1.2-0.3-1.5-0.9l-19.5-35.1c-0.4-0.6-0.2-1.5,0.3-2l19.5-19.9c0.6-0.6,1.8-0.6,2.4,0l19.5,19.9
			c0.5,0.5,0.6,1.3,0.3,2l-19.5,35.1C124.5,575.4,123.9,575.8,123.3,575.8 M105.9,539.2l17.4,31.4l17.4-31.4l-17.4-17.8L105.9,539.2
			z"/>
		<path d="M146.3,588.8c-0.1,0-0.3,0-0.4,0c-2.3-0.2-5-0.6-6.9-2.5c-0.9-0.9-1.5-1.9-1.7-3c-0.8-4.1,3-6.3,4.3-7l0.4-0.2
			c1.3-0.8,2.6-1.5,3.1-2.5c0.4-0.7,0.3-1.7-0.1-2.4c-0.8-1.2-2.6-1.6-3.9-1.3l-0.3,0.1c-2,0.4-4.1,0.8-6,4.3
			c-0.7,1.2-1.1,2.5-1.5,3.8c-1,2.9-2.1,6.3-6.2,6.3c-1.3,0-2.5-0.3-3.4-1c-3.3-2.2-2.4-7.1-1.9-9.5l3.3,0.6c-0.4,2.4-0.8,5.2,0.5,6
			c0.5,0.3,1.1,0.4,1.5,0.4c1.5,0,2-0.8,3.1-4c0.5-1.3,1-2.9,1.8-4.4c2.7-4.9,6-5.5,8.3-6l0.3-0.1c3-0.6,6,0.5,7.4,2.8
			c1.1,1.7,1.2,3.9,0.3,5.7c-1,2-2.8,3-4.4,3.9l-0.4,0.2c-2.6,1.5-2.8,2.6-2.7,3.5c0.1,0.4,0.3,0.9,0.7,1.3c1.2,1.2,3,1.5,4.8,1.6
			c1.4,0.1,4.7-0.9,6-1.9l2,2.7C152.4,587.4,148.7,588.8,146.3,588.8"/>
		<rect x="121.7" y="520" width="3.4" height="51.4"/>
		<rect x="103.8" y="537.3" width="39" height="3.4"/>
		<path d="M123.3,597.7c-25.9,0-47-21.1-47-47c0-25.9,21.1-47,47-47s47,21.1,47,47C170.4,576.7,149.3,597.7,123.3,597.7
			 M123.3,507.1c-24.1,0-43.7,19.6-43.7,43.7c0,24.1,19.6,43.7,43.7,43.7s43.7-19.6,43.7-43.7C167,526.6,147.4,507.1,123.3,507.1"/>
	</g>
	<g>
		<path class="st2" d="M1088.8,547.3h-10.1c-4.6,0-8.4-3.8-8.4-8.4c0-4.6,3.8-8.4,8.4-8.4h10.1c4.6,0,8.4,3.8,8.4,8.4
			C1097.2,543.5,1093.4,547.3,1088.8,547.3 M1078.7,533.8c-2.8,0-5,2.3-5,5c0,2.8,2.3,5,5,5h10.1c2.8,0,5-2.3,5-5c0-2.8-2.3-5-5-5
			H1078.7z"/>
		<path class="st2" d="M1076.5,566.7c-3.4,0-6.2-2.8-6.2-6.2c0-3.4,2.8-6.2,6.2-6.2c3.4,0,6.2,2.8,6.2,6.2
			C1082.6,563.9,1079.9,566.7,1076.5,566.7 M1076.5,557.7c-1.5,0-2.8,1.3-2.8,2.8c0,1.5,1.3,2.8,2.8,2.8c1.5,0,2.8-1.3,2.8-2.8
			C1079.3,559,1078,557.7,1076.5,557.7"/>
		<path class="st2" d="M1091.2,566.7c-3.4,0-6.2-2.8-6.2-6.2c0-3.4,2.8-6.2,6.2-6.2c3.4,0,6.2,2.8,6.2,6.2
			C1097.4,563.9,1094.6,566.7,1091.2,566.7 M1091.2,557.7c-1.5,0-2.8,1.3-2.8,2.8c0,1.5,1.3,2.8,2.8,2.8c1.5,0,2.8-1.3,2.8-2.8
			C1094,559,1092.8,557.7,1091.2,557.7"/>
		<path d="M1083.8,597.7c-25.9,0-47-21.1-47-47c0-25.9,21.1-47,47-47c25.9,0,47,21.1,47,47C1130.8,576.7,1109.7,597.7,1083.8,597.7
			 M1083.8,507.1c-24.1,0-43.7,19.6-43.7,43.7c0,24.1,19.6,43.7,43.7,43.7c24.1,0,43.7-19.6,43.7-43.7
			C1127.5,526.6,1107.9,507.1,1083.8,507.1"/>
		<path class="st2" d="M1094,574.3h-20.5c-7.3,0-13.3-6-13.3-13.3v-27.3c0-7.3,6-13.3,13.3-13.3h20.5c7.3,0,13.3,6,13.3,13.3V561
			C1107.3,568.3,1101.3,574.3,1094,574.3 M1073.5,523.8c-5.5,0-9.9,4.5-9.9,9.9V561c0,5.5,4.5,9.9,9.9,9.9h20.5
			c5.5,0,9.9-4.5,9.9-9.9v-27.3c0-5.5-4.5-9.9-9.9-9.9H1073.5z"/>
		
			<rect x="1065.8" y="574.7" transform="matrix(0.3953 -0.9186 0.9186 0.3953 117.9587 1331.933)" class="st2" width="9.5" height="3.4"/>
		
			<rect x="1095.4" y="571.6" transform="matrix(0.9186 -0.3953 0.3953 0.9186 -138.4865 480.5475)" class="st2" width="3.4" height="9.5"/>
	</g>
	<g>
		<path class="st1" d="M274,582.8c-0.9,0-1.7-0.3-2.3-1l-19-19.1c-0.6-0.7-1-1.5-1-2.3c0-0.9,0.4-1.7,1-2.3l10.3-10.4
			c0.9-2.3,3.6-8.6,8-14.7c6.2-8.5,13.1-12.7,20.5-12.6c8.5,0.2,22.2,14.1,22.2,22.4c0,3.4-2,7.1-6.3,11.8c0,2.9-1,5.7-2.8,7.9
			c-6.2,7.7-15,9.1-18.4,9.3l-9.9,9.9C275.7,582.4,274.9,582.8,274,582.8 M291,523.7c-14.9,0-24.1,22.8-25.1,25.4l-0.1,0.3
			L255,560.3l19,19.1l10.7-10.8l0.7,0c2.4-0.1,10.8-0.9,16.6-8.1c1.4-1.8,2.2-4.1,2-6.4l0-0.7l0.5-0.5c3.9-4.1,5.9-7.5,5.9-10
			c0-6.6-12.2-18.9-19-19.1C291.3,523.8,291.1,523.7,291,523.7"/>
		
			<rect x="273.7" y="544" transform="matrix(0.7164 -0.6977 0.6977 0.7164 -311.8969 350.6865)" class="st1" width="3.4" height="29.9"/>
		<path class="st1" d="M294.1,556.9c-0.8,0-1.5-0.6-1.6-1.4c-0.5-2.9,0.9-6.7,3.5-8.8c2-1.7,4.4-2.1,6.7-1.2c1.6,0.6,2.9,2,3.6,3.8
			c0.6,1.5,0.9,3,1.1,4.4c0.1,0.9-0.5,1.8-1.4,1.9c-0.9,0.1-1.8-0.5-1.9-1.4c-0.2-1.2-0.4-2.5-0.9-3.5c-0.4-1-1.1-1.7-1.8-2
			c-1.1-0.5-2.3-0.2-3.3,0.6c-1.6,1.3-2.6,3.8-2.3,5.6c0.2,0.9-0.4,1.8-1.3,2C294.3,556.9,294.2,556.9,294.1,556.9"/>
		<path class="st1" d="M294,551.8C294,551.8,294,551.8,294,551.8c-5.7-0.2-8.4-3.8-10.8-6.9c-4-5.3-1.1-11.6,3.5-15.5
			c0.7-0.6,1.8-0.5,2.4,0.2c0.6,0.7,0.5,1.8-0.2,2.4c-3.2,2.7-5.9,7.2-3,10.9c2.6,3.4,4.5,5.5,8.2,5.6c0.9,0,1.7,0.8,1.6,1.7
			C295.6,551.1,294.9,551.8,294,551.8"/>
		<path d="M283.4,597.7c-25.9,0-47-21.1-47-47c0-25.9,21.1-47,47-47c25.9,0,47,21.1,47,47C330.4,576.7,309.3,597.7,283.4,597.7
			 M283.4,507.1c-24.1,0-43.7,19.6-43.7,43.7c0,24.1,19.6,43.7,43.7,43.7c24.1,0,43.7-19.6,43.7-43.7
			C327.1,526.6,307.5,507.1,283.4,507.1"/>
	</g>
	<g>
		<path class="st1" d="M443.4,586.6l-5.8-4.3c-13-9.7-28-23-28-39.4c0-10.9,9.1-22.6,22.6-22.6c3.8,0,7.6,1.2,11.2,3.6
			c3.6-2.4,7.3-3.6,11.2-3.6c6.4,0,12.4,2.7,16.7,7.5c3.8,4.2,5.9,9.7,5.9,15.1c0,16.5-15,29.7-28,39.4L443.4,586.6z M432.3,523.6
			c-11.5,0-19.3,10-19.3,19.3c0,15,14.2,27.5,26.6,36.7l3.8,2.8l3.8-2.8c12.4-9.2,26.6-21.8,26.6-36.7c0-4.6-1.8-9.2-5.1-12.9
			c-3.7-4.1-8.7-6.4-14.2-6.4c-3.4,0-6.9,1.2-10.2,3.6l-1,0.7l-1-0.7C439.1,524.8,435.7,523.6,432.3,523.6"/>
		<path class="st1" d="M443.4,576.6l-1-0.7c-11.5-8.6-24.7-20.1-24.7-33c0-7,5.9-14.6,14.6-14.6c4.6,0,8.4,3.2,11.2,6.2
			c2.7-3,6.5-6.2,11.2-6.2c8.7,0,14.6,7.5,14.6,14.6c0,12.9-13.2,24.4-24.7,33L443.4,576.6z M432.3,531.6c-4.6,0-11.2,4-11.2,11.2
			c0,11.1,12.5,22.1,22.4,29.5c20-15.2,22.4-24.1,22.4-29.5c0-7.2-6.6-11.2-11.2-11.2c-3.1,0-6.2,2-9.9,6.4l-1.3,1.5l-1.3-1.5
			C438.5,533.7,435.3,531.6,432.3,531.6"/>
		<path d="M443.5,597.7c-25.9,0-47-21.1-47-47c0-25.9,21.1-47,47-47c25.9,0,47,21.1,47,47C490.5,576.7,469.4,597.7,443.5,597.7
			 M443.5,507.1c-24.1,0-43.7,19.6-43.7,43.7c0,24.1,19.6,43.7,43.7,43.7c24.1,0,43.7-19.6,43.7-43.7
			C487.2,526.6,467.6,507.1,443.5,507.1"/>
	</g>
	<g>
		<rect x="130.3" y="698.7" transform="matrix(0.7071 -0.7071 0.7071 0.7071 -469.6061 303.8568)" width="3.4" height="40.3"/>
		<path d="M111,706.3c-0.4,0-0.9-0.2-1.2-0.5l-19.2-19.2c-0.7-0.7-0.7-1.7,0-2.4l7.4-7.4c0.7-0.7,1.7-0.7,2.4,0l19.2,19.2
			c0.3,0.3,0.5,0.8,0.5,1.2l-0.1,7.3c0,0.9-0.7,1.6-1.7,1.7L111,706.3L111,706.3z M94.1,685.4l17.5,17.5l5-0.1l0.1-5l-17.5-17.5
			L94.1,685.4z"/>
		<path d="M123.3,750c-25.9,0-47-21.1-47-47c0-25.9,21.1-47,47-47s47,21.1,47,47C170.4,728.9,149.3,750,123.3,750 M123.3,659.3
			c-24.1,0-43.7,19.6-43.7,43.7c0,24.1,19.6,43.7,43.7,43.7S167,727.1,167,703C167,678.9,147.4,659.3,123.3,659.3"/>
		<rect x="94.7" y="717.1" transform="matrix(0.7071 -0.7071 0.7071 0.7071 -474.6216 291.7506)" width="40.3" height="3.4"/>
		<path d="M135.9,706.3L135.9,706.3l-7.4-0.1c-0.9,0-1.6-0.7-1.7-1.7l-0.1-7.3c0-0.5,0.2-0.9,0.5-1.2l19.2-19.2
			c0.7-0.7,1.7-0.7,2.4,0l7.4,7.4c0.7,0.7,0.7,1.7,0,2.4l-19.2,19.2C136.8,706.2,136.3,706.3,135.9,706.3 M130.2,702.9l5,0.1
			l17.5-17.5l-5.1-5.1l-17.5,17.5L130.2,702.9z"/>
	</g>
	<g>
		<path d="M257.7,690.7l-1.4-3l25.3-11.6c0.4-0.2,1-0.2,1.4,0l25.1,11.6l-1.4,3l-24.4-11.3L257.7,690.7z"/>
		<path d="M282.3,750c-25.9,0-47-21.1-47-47c0-25.9,21.1-47,47-47c25.9,0,47,21.1,47,47C329.3,728.9,308.2,750,282.3,750
			 M282.3,659.3c-24.1,0-43.7,19.6-43.7,43.7c0,24.1,19.6,43.7,43.7,43.7c24.1,0,43.7-19.6,43.7-43.7
			C326,678.9,306.4,659.3,282.3,659.3"/>
		<rect x="258.7" y="692.9" width="47.2" height="3.4"/>
		<rect x="263.8" y="699.6" width="3.4" height="30.4"/>
		<rect x="272.2" y="699.6" width="3.4" height="30.4"/>
		<rect x="289.1" y="699.6" width="3.4" height="30.4"/>
		<rect x="297.5" y="699.6" width="3.4" height="30.4"/>
		<rect x="280.6" y="699.6" width="3.4" height="30.4"/>
	</g>
	<g>
		<path d="M461.5,743.1h-3.4V735L441.3,717l-16.9,17.4v8.6H421v-9.3c0-0.4,0.2-0.9,0.5-1.2l18.6-19.1c0.3-0.3,0.7-0.5,1.2-0.5h0
			c0.5,0,0.9,0.2,1.2,0.5l18.5,19.7c0.3,0.3,0.5,0.7,0.5,1.1V743.1z"/>
		<path d="M458.1,730.4h-3.4v-15.1l-13.6-12.6l-13.4,12.6v15.1h-3.4v-15.8c0-0.5,0.2-0.9,0.5-1.2l15.1-14.1c0.6-0.6,1.6-0.6,2.3,0
			l15.3,14.1c0.3,0.3,0.5,0.8,0.5,1.2V730.4z"/>
		<path d="M454.7,710.6h-3.4V697l-10.1-8.5l-10.1,8.5v13.5h-3.4v-14.3c0-0.5,0.2-1,0.6-1.3l11.7-9.9c0.6-0.5,1.5-0.5,2.2,0l11.8,9.9
			c0.4,0.3,0.6,0.8,0.6,1.3V710.6z"/>
		<rect x="439.5" y="669.3" width="3.4" height="16.4"/>
		<path d="M441.2,750c-25.9,0-47-21.1-47-47s21.1-47,47-47c25.9,0,47,21.1,47,47S467.2,750,441.2,750 M441.2,659.3
			c-24.1,0-43.7,19.6-43.7,43.7s19.6,43.7,43.7,43.7c24.1,0,43.7-19.6,43.7-43.7S465.3,659.3,441.2,659.3"/>
	</g>
	<g>
		<path d="M622.2,709.6h-43.9c-0.9,0-1.7-0.8-1.7-1.7v-27c0-0.9,0.8-1.7,1.7-1.7h43.9c0.9,0,1.7,0.8,1.7,1.7v27
			C623.9,708.9,623.1,709.6,622.2,709.6 M579.9,706.3h40.6v-23.6h-40.6V706.3z"/>
		<path d="M627.5,726.5h-54.8c-0.5,0-1-0.3-1.4-0.7c-0.3-0.4-0.4-1-0.2-1.5l5.5-16.9c0.2-0.7,0.9-1.2,1.6-1.2h43.9
			c0.7,0,1.4,0.5,1.6,1.2l5.3,16.9c0.2,0.5,0.1,1.1-0.2,1.5C628.5,726.3,628,726.5,627.5,726.5 M575,723.2h50.2l-4.3-13.5h-41.5
			L575,723.2z"/>
		<polygon points="607,719.9 593.3,719.9 594.6,716.5 605.7,716.5 		"/>
		<path d="M600.2,750c-25.9,0-47-21.1-47-47s21.1-47,47-47c25.9,0,47,21.1,47,47S626.1,750,600.2,750 M600.2,659.3
			c-24.1,0-43.7,19.6-43.7,43.7s19.6,43.7,43.7,43.7c24.1,0,43.7-19.6,43.7-43.7S624.3,659.3,600.2,659.3"/>
	</g>
	<g>
		<path d="M751.8,724.5c-0.4,0-0.8-0.1-1.1-0.4c-0.4-0.3-0.6-0.8-0.6-1.3v-39.6c0-0.5,0.2-0.9,0.6-1.3c0.4-0.3,0.8-0.5,1.3-0.4
			l39.3,4.8c0.8,0.1,1.5,0.8,1.5,1.7V718c0,0.8-0.6,1.6-1.5,1.7l-39.3,4.8C752,724.5,751.9,724.5,751.8,724.5 M753.5,685.1v35.8
			l36-4.4v-26.9L753.5,685.1z"/>
		<path d="M751.8,724.5c-0.1,0-0.1,0-0.2,0l-24.7-3c-0.8-0.1-1.5-0.8-1.5-1.7v-33.5c0-0.8,0.6-1.6,1.5-1.7l24.7-3
			c0.5-0.1,1,0.1,1.3,0.4c0.4,0.3,0.6,0.8,0.6,1.3v39.6c0,0.5-0.2,0.9-0.6,1.3C752.6,724.3,752.2,724.5,751.8,724.5 M728.8,718.3
			l21.3,2.6v-35.8l-21.3,2.6V718.3z"/>
		
			<rect x="751.8" y="707" transform="matrix(0.999 -4.537864e-02 4.537864e-02 0.999 -31.3637 35.7384)" width="39.4" height="3.4"/>
		
			<rect x="769.8" y="677.8" transform="matrix(3.271917e-02 -0.9995 0.9995 3.271917e-02 49.155 1445.7195)" width="3.4" height="39.4"/>
		<rect x="762.5" y="684.4" width="3.4" height="37.2"/>
		<rect x="782" y="687.1" width="3.4" height="31.9"/>
		<rect x="772.4" y="685.8" width="3.4" height="34.5"/>
		<polygon points="746.1,692 732.8,693.1 732.8,696.1 746.1,695.5 		"/>
		<polygon points="746.1,701.2 732.8,701.5 732.8,704.5 746.1,704.9 		"/>
		<polygon points="746.1,710.5 732.8,709.9 732.8,712.9 746.1,714 		"/>
		<path d="M759.2,750c-25.9,0-47-21.1-47-47s21.1-47,47-47c25.9,0,47,21.1,47,47S785.1,750,759.2,750 M759.2,659.3
			c-24.1,0-43.7,19.6-43.7,43.7s19.6,43.7,43.7,43.7c24.1,0,43.7-19.6,43.7-43.7S783.2,659.3,759.2,659.3"/>
	</g>
</g>
</svg>
